<svg width="222" height="78" viewBox="0 0 222 78" fill="none" xmlns="http://www.w3.org/2000/svg">
<g filter="url(#filter0_d_30_13245)">
<rect x="4" width="214" height="70" rx="8" fill="#96001F"/>
<path d="M41.3358 32.4224H39.1134C38.5001 32.4224 38.0024 32.9197 38.0024 33.5334V34.6444C38.0024 35.258 38.5001 35.7554 39.1134 35.7554H41.3358C41.9494 35.7554 42.4468 35.258 42.4468 34.6444V33.5334C42.4468 32.9197 41.9494 32.4224 41.3358 32.4224Z" fill="white"/>
<path d="M46.8914 32.4224H44.6691C44.0554 32.4224 43.5581 32.92 43.5581 33.5334V34.6444C43.5581 35.258 44.0554 35.7554 44.6691 35.7554H46.8914C47.5051 35.7554 48.0024 35.258 48.0024 34.6444V33.5334C48.0024 32.9197 47.5051 32.4224 46.8914 32.4224Z" fill="white"/>
<path d="M52.4466 32.4224H50.2246C49.6109 32.4224 49.1133 32.92 49.1133 33.5334V34.6444C49.1133 35.258 49.6109 35.7554 50.2246 35.7554H52.4466C53.0603 35.7554 53.5579 35.258 53.5579 34.6444V33.5334C53.5579 32.9197 53.0603 32.4224 52.4466 32.4224Z" fill="white"/>
<path d="M35.7801 37.2224H33.5578C32.9441 37.2224 32.4468 37.7197 32.4468 38.3334V39.4444C32.4468 40.0581 32.9441 40.5557 33.5578 40.5557H35.7801C36.3938 40.5557 36.8911 40.0581 36.8911 39.4444V38.3334C36.8914 37.7197 36.3938 37.2224 35.7801 37.2224Z" fill="white"/>
<path d="M41.3358 37.2224H39.1134C38.5001 37.2224 38.0024 37.7197 38.0024 38.3334V39.4444C38.0024 40.0581 38.5001 40.5557 39.1134 40.5557H41.3358C41.9494 40.5557 42.4468 40.0581 42.4468 39.4444V38.3334C42.4468 37.7197 41.9494 37.2224 41.3358 37.2224Z" fill="white"/>
<path d="M46.8914 37.2224H44.6691C44.0554 37.2224 43.5581 37.7197 43.5581 38.3334V39.4444C43.5581 40.0581 44.0554 40.5557 44.6691 40.5557H46.8914C47.5051 40.5557 48.0024 40.0581 48.0024 39.4444V38.3334C48.0024 37.7197 47.5051 37.2224 46.8914 37.2224Z" fill="white"/>
<path d="M52.4466 37.2224H50.2246C49.6109 37.2224 49.1133 37.7197 49.1133 38.3334V39.4444C49.1133 40.0581 49.6109 40.5557 50.2246 40.5557H52.4466C53.0603 40.5557 53.5579 40.0581 53.5579 39.4444V38.3334C53.5579 37.7197 53.0603 37.2224 52.4466 37.2224Z" fill="white"/>
<path d="M35.7801 42.022H33.5578C32.9441 42.022 32.4468 42.5196 32.4468 43.1333V44.2443C32.4468 44.858 32.9441 45.3553 33.5578 45.3553H35.7801C36.3938 45.3553 36.8911 44.858 36.8911 44.2443V43.1333C36.8914 42.52 36.3938 42.022 35.7801 42.022Z" fill="white"/>
<path d="M41.3358 42.022H39.1134C38.5001 42.022 38.0024 42.52 38.0024 43.1333V44.2443C38.0024 44.858 38.5001 45.3553 39.1134 45.3553H41.3358C41.9494 45.3553 42.4468 44.858 42.4468 44.2443V43.1333C42.4468 42.52 41.9494 42.022 41.3358 42.022Z" fill="white"/>
<path d="M46.8914 42.022H44.6691C44.0554 42.022 43.5581 42.5196 43.5581 43.1333V44.2443C43.5581 44.858 44.0554 45.3553 44.6691 45.3553H46.8914C47.5051 45.3553 48.0024 44.858 48.0024 44.2443V43.1333C48.0024 42.52 47.5051 42.022 46.8914 42.022Z" fill="white"/>
<path d="M54.6691 23.5332H53.2801V25.1999C53.2801 26.5782 52.1588 27.6999 50.7801 27.6999C49.4018 27.6999 48.2801 26.5782 48.2801 25.1999V23.5332H45.5024V25.1999C45.5024 26.5782 44.3811 27.6999 43.0024 27.6999C41.6241 27.6999 40.5024 26.5782 40.5024 25.1999V23.5332H37.7248V25.1999C37.7248 26.5782 36.6034 27.6999 35.2248 27.6999C33.8464 27.6999 32.7248 26.5782 32.7248 25.1999V23.5332H31.3358C29.4978 23.5332 28.0024 25.0285 28.0024 26.8665V46.4665C28.0024 48.3045 29.4978 49.7999 31.3358 49.7999H54.6691C56.5071 49.7999 58.0024 48.3045 58.0024 46.4665V26.8665C58.0024 25.0285 56.5071 23.5332 54.6691 23.5332ZM55.7801 46.4665C55.7801 47.0792 55.2818 47.5775 54.6691 47.5775H31.3358C30.7231 47.5775 30.2248 47.0792 30.2248 46.4665V31.3109C30.2248 30.6972 30.7224 30.1999 31.3358 30.1999H54.6691C55.2828 30.1999 55.7801 30.6972 55.7801 31.3109V46.4665Z" fill="white"/>
<path d="M35.2248 26.8666C36.1454 26.8666 36.8914 26.1203 36.8914 25.2V21.8666C36.8914 20.946 36.1454 20.2 35.2248 20.2C34.3044 20.2 33.5581 20.946 33.5581 21.8666V25.2C33.5581 26.1203 34.3041 26.8666 35.2248 26.8666Z" fill="white"/>
<path d="M43.0026 26.8666C43.9233 26.8666 44.6693 26.1203 44.6693 25.2V21.8666C44.6693 20.946 43.9233 20.2 43.0026 20.2C42.0823 20.2 41.3359 20.946 41.3359 21.8666V25.2C41.3359 26.1203 42.0823 26.8666 43.0026 26.8666Z" fill="white"/>
<path d="M50.7799 26.8666C51.7006 26.8666 52.4466 26.1203 52.4466 25.2V21.8666C52.4466 20.946 51.7006 20.2 50.7799 20.2C49.8596 20.2 49.1133 20.946 49.1133 21.8666V25.2C49.1133 26.1203 49.8596 26.8666 50.7799 26.8666Z" fill="white"/>
<path d="M68.0024 20.824H73.2344C74.4611 20.824 75.3838 21.1387 76.0024 21.768C76.6211 22.3867 76.9304 23.2667 76.9304 24.408C76.9304 25.5494 76.6051 26.44 75.9544 27.08C75.3144 27.7094 74.3544 28.024 73.0744 28.024H70.3224V31.8H68.0024V20.824ZM73.0264 26.056C73.5278 26.056 73.9118 25.912 74.1784 25.624C74.4451 25.336 74.5784 24.9307 74.5784 24.408C74.5784 23.896 74.4451 23.5014 74.1784 23.224C73.9118 22.936 73.5278 22.792 73.0264 22.792H70.3224V26.056H73.0264Z" fill="white"/>
<path d="M78.6743 20.824H84.4983C85.725 20.824 86.6476 21.128 87.2663 21.736C87.885 22.3334 88.1943 23.176 88.1943 24.264C88.1943 25.8 87.5543 26.824 86.2743 27.336L88.5143 31.8H86.0023L84.0663 27.704H80.9943V31.8H78.6743V20.824ZM84.2903 25.768C84.7916 25.768 85.1756 25.6347 85.4423 25.368C85.709 25.1014 85.8423 24.7334 85.8423 24.264C85.8423 23.7947 85.709 23.432 85.4423 23.176C85.1756 22.92 84.7916 22.792 84.2903 22.792H80.9943V25.768H84.2903Z" fill="white"/>
<path d="M95.3732 31.992C93.6132 31.992 92.2479 31.5227 91.2772 30.584C90.3065 29.6347 89.8212 28.2107 89.8212 26.312C89.8212 24.4134 90.3065 22.9947 91.2772 22.056C92.2479 21.1067 93.6132 20.632 95.3732 20.632C97.1439 20.632 98.5145 21.1067 99.4852 22.056C100.456 22.9947 100.941 24.4134 100.941 26.312C100.941 28.2107 100.456 29.6347 99.4852 30.584C98.5145 31.5227 97.1439 31.992 95.3732 31.992ZM95.3732 30.024C96.4185 30.024 97.2079 29.7254 97.7412 29.128C98.2852 28.52 98.5572 27.6614 98.5572 26.552V26.072C98.5572 24.9627 98.2852 24.1094 97.7412 23.512C97.2079 22.904 96.4185 22.6 95.3732 22.6C94.3279 22.6 93.5385 22.904 93.0052 23.512C92.4719 24.1094 92.2052 24.9627 92.2052 26.072V26.552C92.2052 27.6614 92.4719 28.52 93.0052 29.128C93.5385 29.7254 94.3279 30.024 95.3732 30.024Z" fill="white"/>
<path d="M107.586 31.992C105.89 31.992 104.578 31.528 103.65 30.6C102.733 29.672 102.274 28.2427 102.274 26.312C102.274 24.424 102.765 23.0054 103.746 22.056C104.728 21.1067 106.114 20.632 107.906 20.632C108.856 20.632 109.72 20.7814 110.498 21.08C111.288 21.368 111.912 21.8107 112.37 22.408C112.84 22.9947 113.074 23.7147 113.074 24.568H110.674C110.674 23.9707 110.408 23.496 109.874 23.144C109.352 22.7814 108.722 22.6 107.986 22.6C106.866 22.6 106.029 22.8987 105.474 23.496C104.93 24.0934 104.658 24.952 104.658 26.072V26.552C104.658 27.7254 104.909 28.6 105.41 29.176C105.922 29.7414 106.701 30.024 107.746 30.024C108.61 30.024 109.325 29.8214 109.89 29.416C110.456 29 110.744 28.44 110.754 27.736H107.426V25.832H113.074V31.8H111.474L111.266 30.584C110.754 31.0747 110.216 31.432 109.65 31.656C109.085 31.88 108.397 31.992 107.586 31.992Z" fill="white"/>
<path d="M115.127 20.824H120.951C122.178 20.824 123.101 21.128 123.719 21.736C124.338 22.3334 124.647 23.176 124.647 24.264C124.647 25.8 124.007 26.824 122.727 27.336L124.967 31.8H122.455L120.519 27.704H117.447V31.8H115.127V20.824ZM120.743 25.768C121.245 25.768 121.629 25.6347 121.895 25.368C122.162 25.1014 122.295 24.7334 122.295 24.264C122.295 23.7947 122.162 23.432 121.895 23.176C121.629 22.92 121.245 22.792 120.743 22.792H117.447V25.768H120.743Z" fill="white"/>
<path d="M129.922 20.824H132.834L137.122 31.8H134.594L133.81 29.704H128.818L128.034 31.8H125.634L129.922 20.824ZM133.074 27.768L132.034 24.984C131.906 24.6427 131.677 23.9227 131.346 22.824H131.266C130.936 23.9227 130.706 24.6427 130.578 24.984L129.538 27.768H133.074Z" fill="white"/>
<path d="M138.221 20.824H141.837L143.373 26.872C143.491 27.3307 143.661 28.1574 143.885 29.352H143.965C144.157 28.104 144.307 27.2774 144.413 26.872L145.949 20.824H149.405V31.8H147.085V24.808C147.085 24.4987 147.117 23.912 147.181 23.048H147.101L146.765 24.344L144.877 31.8H142.669L140.781 24.344L140.445 23.048H140.365C140.429 23.944 140.461 24.5307 140.461 24.808V31.8H138.221V20.824Z" fill="white"/>
<path d="M151.549 20.824H160.173V22.792H153.869V25.208H159.469V27.176H153.869V29.832H160.269V31.8H151.549V20.824Z" fill="white"/>
<path d="M165.469 20.824H168.381L172.669 31.8H170.141L169.357 29.704H164.365L163.581 31.8H161.181L165.469 20.824ZM168.621 27.768L167.581 24.984C167.453 24.6427 167.224 23.9227 166.893 22.824H166.813C166.483 23.9227 166.253 24.6427 166.125 24.984L165.085 27.768H168.621Z" fill="white"/>
<path d="M172.968 30.712L178.52 22.792H173.384V20.824H181.928V21.928L176.392 29.832H182.072V31.8H172.968V30.712Z" fill="white"/>
<path d="M186.797 20.824H189.709L193.997 31.8H191.469L190.685 29.704H185.693L184.909 31.8H182.509L186.797 20.824ZM189.949 27.768L188.909 24.984C188.781 24.6427 188.552 23.9227 188.221 22.824H188.141C187.811 23.9227 187.581 24.6427 187.453 24.984L186.413 27.768H189.949ZM188.173 20.024C187.587 20.024 187.101 19.9174 186.717 19.704C186.333 19.4907 186.051 19.2187 185.869 18.888C185.688 18.5467 185.597 18.1947 185.597 17.832H187.037C187.069 18.024 187.181 18.2 187.373 18.36C187.565 18.52 187.832 18.6 188.173 18.6C188.515 18.6 188.787 18.52 188.989 18.36C189.192 18.2 189.304 18.024 189.325 17.832H190.765C190.765 18.1947 190.675 18.5467 190.493 18.888C190.312 19.2187 190.024 19.4907 189.629 19.704C189.245 19.9174 188.76 20.024 188.173 20.024Z" fill="white"/>
<path d="M68.0024 36.824H70.3224V47.8H68.0024V36.824Z" fill="white"/>
<path d="M72.4556 36.824H74.7116L78.9356 42.792C79.0636 42.9734 79.2769 43.3307 79.5756 43.864L79.6556 43.816L79.6076 42.888V36.824H81.8636V47.8H79.6076L75.3676 41.784C75.1649 41.496 74.9569 41.144 74.7436 40.728L74.6636 40.776C74.6956 41.2347 74.7116 41.5547 74.7116 41.736V47.8H72.4556V36.824Z" fill="white"/>
<path d="M86.6584 38.824H83.2664V36.824H92.3704V38.824H88.9784V47.8H86.6584V38.824Z" fill="white"/>
<path d="M93.7837 36.824H102.408V38.792H96.1037V41.208H101.704V43.176H96.1037V45.832H102.504V47.8H93.7837V36.824Z" fill="white"/>
<path d="M104.456 36.824H110.28C111.506 36.824 112.429 37.128 113.048 37.736C113.666 38.3334 113.976 39.176 113.976 40.264C113.976 41.8 113.336 42.824 112.056 43.336L114.296 47.8H111.784L109.848 43.704H106.776V47.8H104.456V36.824ZM110.072 41.768C110.573 41.768 110.957 41.6347 111.224 41.368C111.49 41.1014 111.624 40.7334 111.624 40.264C111.624 39.7947 111.49 39.432 111.224 39.176C110.957 38.92 110.573 38.792 110.072 38.792H106.776V41.768H110.072Z" fill="white"/>
<path d="M114.713 36.824H117.225L119.289 42.84C119.407 43.1814 119.647 43.9387 120.009 45.112H120.089C120.431 43.9387 120.66 43.1814 120.777 42.84L122.825 36.824H125.241L121.273 47.8H118.681L114.713 36.824Z" fill="white"/>
<path d="M126.393 36.824H135.017V38.792H128.713V41.208H134.313V43.176H128.713V45.832H135.113V47.8H126.393V36.824Z" fill="white"/>
<path d="M137.065 36.824H139.321L143.545 42.792C143.673 42.9734 143.886 43.3307 144.185 43.864L144.265 43.816L144.217 42.888V36.824H146.473V47.8H144.217L139.977 41.784C139.774 41.496 139.566 41.144 139.353 40.728L139.273 40.776C139.305 41.2347 139.321 41.5547 139.321 41.736V47.8H137.065V36.824Z" fill="white"/>
<path d="M151.268 38.824H147.876V36.824H156.98V38.824H153.588V47.8H151.268V38.824ZM152.26 50.728H151.524V48.648H153.364V50.568L152.484 52.168H151.524L152.26 50.728Z" fill="white"/>
<path d="M158.393 36.824H160.713V47.8H158.393V36.824Z" fill="white"/>
<path d="M162.846 36.824H171.47V38.792H165.166V41.208H170.766V43.176H165.166V45.832H171.566V47.8H162.846V36.824Z" fill="white"/>
<path d="M179.251 42.584L177.523 39.384H179.107L181.283 42.584L179.107 45.784H177.523L179.251 42.584ZM182.819 42.584L181.091 39.384H182.675L184.851 42.584L182.675 45.784H181.091L182.819 42.584Z" fill="white"/>
</g>
<defs>
<filter id="filter0_d_30_13245" x="0" y="0" width="222" height="78" filterUnits="userSpaceOnUse" color-interpolation-filters="sRGB">
<feFlood flood-opacity="0" result="BackgroundImageFix"/>
<feColorMatrix in="SourceAlpha" type="matrix" values="0 0 0 0 0 0 0 0 0 0 0 0 0 0 0 0 0 0 127 0" result="hardAlpha"/>
<feOffset dy="4"/>
<feGaussianBlur stdDeviation="2"/>
<feComposite in2="hardAlpha" operator="out"/>
<feColorMatrix type="matrix" values="0 0 0 0 0 0 0 0 0 0 0 0 0 0 0 0 0 0 0.25 0"/>
<feBlend mode="normal" in2="BackgroundImageFix" result="effect1_dropShadow_30_13245"/>
<feBlend mode="normal" in="SourceGraphic" in2="effect1_dropShadow_30_13245" result="shape"/>
</filter>
</defs>
</svg>
