<svg width="256" height="78" viewBox="0 0 256 78" fill="none" xmlns="http://www.w3.org/2000/svg">
<g filter="url(#filter0_d_30_13242)">
<path d="M52.5015 42.585L55.6015 39.4838C56.019 39.0712 56.5473 38.7889 57.1221 38.6709C57.697 38.5529 58.2937 38.6045 58.8398 38.8192L62.6179 40.3283C63.1698 40.5524 63.643 40.9349 63.978 41.4277C64.3129 41.9204 64.4946 42.5014 64.5 43.0972V50.0195C64.4968 50.4249 64.4116 50.8254 64.2496 51.1969C64.0876 51.5685 63.8521 51.9034 63.5573 52.1815C63.2625 52.4596 62.9145 52.6751 62.5343 52.8151C62.154 52.9551 61.7494 53.0167 61.3447 52.9961C34.8706 51.3486 29.5287 28.9203 28.5184 20.3366C28.4715 19.9151 28.5144 19.4884 28.6442 19.0847C28.7739 18.6809 28.9877 18.3092 29.2714 17.994C29.555 17.6788 29.9022 17.4273 30.29 17.256C30.6779 17.0847 31.0976 16.9975 31.5215 17.0001H38.2058C38.8023 17.0018 39.3846 17.1821 39.8778 17.5176C40.371 17.8532 40.7527 18.3286 40.9736 18.8829L42.482 22.6625C42.7038 23.2067 42.7604 23.8042 42.6447 24.3804C42.529 24.9565 42.2462 25.4858 41.8316 25.9022L38.7317 29.0034C38.7317 29.0034 40.5169 41.0897 52.5015 42.585Z" fill="#96001F"/>
<path d="M80.331 36.204C79.651 36.204 79.005 36.136 78.393 36C77.781 35.864 77.237 35.6487 76.761 35.354C76.2963 35.048 75.928 34.6683 75.656 34.215C75.3953 33.7503 75.265 33.1893 75.265 32.532C75.265 32.4753 75.265 32.4187 75.265 32.362C75.265 32.294 75.2707 32.243 75.282 32.209H77.798C77.7867 32.243 77.781 32.2883 77.781 32.345C77.781 32.4017 77.781 32.4527 77.781 32.498C77.781 32.8607 77.8773 33.1667 78.07 33.416C78.274 33.6653 78.5687 33.8523 78.954 33.977C79.3393 34.1017 79.787 34.164 80.297 34.164C80.6257 34.164 80.9147 34.147 81.164 34.113C81.4247 34.0677 81.6513 34.011 81.844 33.943C82.048 33.8637 82.2123 33.773 82.337 33.671C82.473 33.569 82.5693 33.45 82.626 33.314C82.694 33.178 82.728 33.025 82.728 32.855C82.728 32.549 82.626 32.2997 82.422 32.107C82.2293 31.9143 81.9573 31.75 81.606 31.614C81.266 31.478 80.8807 31.3533 80.45 31.24C80.0193 31.1267 79.5773 31.0133 79.124 30.9C78.6707 30.7753 78.2287 30.628 77.798 30.458C77.3673 30.2767 76.982 30.0613 76.642 29.812C76.302 29.5627 76.03 29.2453 75.826 28.86C75.622 28.4747 75.52 28.01 75.52 27.466C75.52 26.888 75.639 26.3893 75.877 25.97C76.1263 25.5507 76.472 25.205 76.914 24.933C77.356 24.661 77.866 24.4627 78.444 24.338C79.022 24.202 79.651 24.134 80.331 24.134C80.9657 24.134 81.5663 24.202 82.133 24.338C82.6997 24.4627 83.1983 24.6667 83.629 24.95C84.0597 25.2333 84.394 25.5903 84.632 26.021C84.8813 26.4517 85.006 26.9617 85.006 27.551V27.755H82.541V27.619C82.541 27.313 82.4503 27.0523 82.269 26.837C82.0877 26.6217 81.8327 26.4517 81.504 26.327C81.1753 26.2023 80.79 26.14 80.348 26.14C79.872 26.14 79.464 26.1853 79.124 26.276C78.7953 26.3667 78.5403 26.5027 78.359 26.684C78.189 26.854 78.104 27.058 78.104 27.296C78.104 27.568 78.2003 27.7947 78.393 27.976C78.597 28.146 78.869 28.299 79.209 28.435C79.5603 28.5597 79.9513 28.673 80.382 28.775C80.8127 28.877 81.2547 28.9903 81.708 29.115C82.1613 29.2397 82.6033 29.387 83.034 29.557C83.4647 29.727 83.85 29.9423 84.19 30.203C84.53 30.4523 84.802 30.764 85.006 31.138C85.21 31.512 85.312 31.9597 85.312 32.481C85.312 33.3763 85.0967 34.096 84.666 34.64C84.2353 35.184 83.646 35.5807 82.898 35.83C82.15 36.0793 81.2943 36.204 80.331 36.204ZM90.0161 36.204C89.1094 36.204 88.3898 35.9547 87.8571 35.456C87.3244 34.9573 87.0581 34.1527 87.0581 33.042V27.058H89.4211V32.651C89.4211 32.9457 89.4551 33.195 89.5231 33.399C89.5911 33.5917 89.6874 33.7503 89.8121 33.875C89.9481 33.9997 90.1124 34.0903 90.3051 34.147C90.4978 34.2037 90.7131 34.232 90.9511 34.232C91.3024 34.232 91.6198 34.147 91.9031 33.977C92.1864 33.807 92.4074 33.5747 92.5661 33.28C92.7248 32.974 92.8041 32.634 92.8041 32.26V27.058H95.1671V36H93.2291L93.0591 34.776H92.9401C92.7248 35.0593 92.4698 35.3087 92.1751 35.524C91.8918 35.7393 91.5688 35.9037 91.2061 36.017C90.8434 36.1417 90.4468 36.204 90.0161 36.204ZM97.336 36V27.058H99.291L99.478 28.282H99.597C99.801 27.9873 100.045 27.7323 100.328 27.517C100.623 27.3017 100.951 27.1373 101.314 27.024C101.677 26.9107 102.073 26.854 102.504 26.854C103.093 26.854 103.609 26.9617 104.051 27.177C104.493 27.3923 104.833 27.7323 105.071 28.197C105.32 28.6617 105.445 29.268 105.445 30.016V36H103.082V30.39C103.082 30.1067 103.048 29.8687 102.98 29.676C102.912 29.472 102.81 29.3077 102.674 29.183C102.549 29.047 102.391 28.9507 102.198 28.894C102.005 28.8373 101.79 28.809 101.552 28.809C101.201 28.809 100.883 28.894 100.6 29.064C100.317 29.234 100.096 29.4663 99.937 29.761C99.7784 30.0557 99.699 30.3957 99.699 30.781V36H97.336ZM109.926 36.204C109.631 36.204 109.314 36.17 108.974 36.102C108.645 36.034 108.333 35.915 108.039 35.745C107.744 35.5637 107.5 35.3087 107.308 34.98C107.126 34.64 107.036 34.2093 107.036 33.688C107.036 33.0647 107.172 32.549 107.444 32.141C107.716 31.733 108.101 31.4157 108.6 31.189C109.11 30.951 109.716 30.7867 110.419 30.696C111.121 30.6053 111.898 30.56 112.748 30.56V29.897C112.748 29.6363 112.702 29.4097 112.612 29.217C112.532 29.0243 112.385 28.8713 112.17 28.758C111.966 28.6447 111.677 28.588 111.303 28.588C110.929 28.588 110.623 28.6333 110.385 28.724C110.158 28.8147 109.994 28.9337 109.892 29.081C109.801 29.217 109.756 29.37 109.756 29.54V29.744H107.461C107.449 29.6873 107.444 29.6363 107.444 29.591C107.444 29.5343 107.444 29.4663 107.444 29.387C107.444 28.8657 107.602 28.418 107.92 28.044C108.237 27.6587 108.685 27.364 109.263 27.16C109.841 26.956 110.515 26.854 111.286 26.854C112.113 26.854 112.804 26.9617 113.36 27.177C113.926 27.3923 114.357 27.7097 114.652 28.129C114.958 28.5483 115.111 29.0753 115.111 29.71V33.773C115.111 33.977 115.167 34.13 115.281 34.232C115.405 34.3227 115.541 34.368 115.689 34.368H116.25V35.915C116.136 35.9717 115.961 36.0283 115.723 36.085C115.485 36.153 115.196 36.187 114.856 36.187C114.527 36.187 114.232 36.136 113.972 36.034C113.722 35.9433 113.513 35.813 113.343 35.643C113.173 35.4617 113.054 35.2463 112.986 34.997H112.867C112.674 35.235 112.436 35.4447 112.153 35.626C111.881 35.8073 111.558 35.949 111.184 36.051C110.821 36.153 110.402 36.204 109.926 36.204ZM110.725 34.419C111.042 34.419 111.325 34.3737 111.575 34.283C111.824 34.181 112.034 34.0507 112.204 33.892C112.374 33.722 112.504 33.518 112.595 33.28C112.697 33.042 112.748 32.787 112.748 32.515V32.022C112.113 32.022 111.546 32.0673 111.048 32.158C110.549 32.2373 110.152 32.379 109.858 32.583C109.574 32.787 109.433 33.0703 109.433 33.433C109.433 33.637 109.484 33.8127 109.586 33.96C109.688 34.1073 109.835 34.2207 110.028 34.3C110.22 34.3793 110.453 34.419 110.725 34.419ZM111.269 25.987C110.623 25.987 110.096 25.8737 109.688 25.647C109.28 25.409 108.979 25.1143 108.787 24.763C108.605 24.4117 108.515 24.0603 108.515 23.709H109.943C109.977 23.8337 110.045 23.964 110.147 24.1C110.249 24.236 110.39 24.3493 110.572 24.44C110.764 24.5193 110.997 24.559 111.269 24.559C111.563 24.559 111.807 24.5137 112 24.423C112.192 24.3323 112.34 24.219 112.442 24.083C112.544 23.947 112.6 23.8223 112.612 23.709H114.04C114.04 24.0603 113.943 24.4117 113.751 24.763C113.558 25.1143 113.258 25.409 112.85 25.647C112.453 25.8737 111.926 25.987 111.269 25.987ZM117.016 32.43V30.356H121.317V32.43H117.016ZM123.085 36V23.709H125.448V36H123.085ZM130.954 39.026V27.058H132.892L133.096 28.265H133.215C133.51 27.7777 133.895 27.4207 134.371 27.194C134.847 26.9673 135.374 26.854 135.952 26.854C136.7 26.854 137.341 27.0183 137.873 27.347C138.417 27.6757 138.831 28.1857 139.114 28.877C139.409 29.5683 139.556 30.458 139.556 31.546C139.556 32.6 139.409 33.4727 139.114 34.164C138.82 34.8553 138.406 35.371 137.873 35.711C137.352 36.0397 136.74 36.204 136.037 36.204C135.652 36.204 135.295 36.1587 134.966 36.068C134.638 35.9887 134.343 35.8583 134.082 35.677C133.822 35.4957 133.601 35.2747 133.419 35.014H133.317V39.026H130.954ZM135.221 34.266C135.697 34.266 136.071 34.1753 136.343 33.994C136.627 33.8013 136.831 33.518 136.955 33.144C137.08 32.7587 137.142 32.2883 137.142 31.733V31.342C137.142 30.7753 137.08 30.305 136.955 29.931C136.831 29.5457 136.627 29.2623 136.343 29.081C136.071 28.8883 135.697 28.792 135.221 28.792C134.779 28.792 134.417 28.894 134.133 29.098C133.85 29.302 133.64 29.5967 133.504 29.982C133.368 30.3673 133.3 30.832 133.3 31.376V31.665C133.3 32.0617 133.34 32.4243 133.419 32.753C133.499 33.0703 133.612 33.3423 133.759 33.569C133.918 33.7957 134.116 33.9713 134.354 34.096C134.592 34.2093 134.881 34.266 135.221 34.266ZM145.36 36.204C144.374 36.204 143.547 36.0397 142.878 35.711C142.209 35.371 141.705 34.8553 141.365 34.164C141.025 33.4727 140.855 32.5943 140.855 31.529C140.855 30.4523 141.025 29.574 141.365 28.894C141.705 28.2027 142.204 27.6927 142.861 27.364C143.53 27.024 144.346 26.854 145.309 26.854C146.216 26.854 146.981 27.0183 147.604 27.347C148.227 27.6643 148.698 28.163 149.015 28.843C149.332 29.5117 149.491 30.3787 149.491 31.444V32.056H143.252C143.275 32.5773 143.354 33.0193 143.49 33.382C143.637 33.7447 143.858 34.0167 144.153 34.198C144.459 34.368 144.861 34.453 145.36 34.453C145.632 34.453 145.876 34.419 146.091 34.351C146.318 34.283 146.51 34.181 146.669 34.045C146.828 33.909 146.952 33.739 147.043 33.535C147.134 33.331 147.179 33.0987 147.179 32.838H149.491C149.491 33.4047 149.389 33.8977 149.185 34.317C148.981 34.7363 148.698 35.0877 148.335 35.371C147.972 35.643 147.536 35.8527 147.026 36C146.527 36.136 145.972 36.204 145.36 36.204ZM143.286 30.56H147.06C147.06 30.22 147.015 29.9253 146.924 29.676C146.845 29.4267 146.731 29.2227 146.584 29.064C146.437 28.9053 146.255 28.792 146.04 28.724C145.836 28.6447 145.604 28.605 145.343 28.605C144.912 28.605 144.55 28.6787 144.255 28.826C143.972 28.962 143.751 29.1773 143.592 29.472C143.445 29.7553 143.343 30.118 143.286 30.56ZM159.305 36.204C158.625 36.204 157.979 36.136 157.367 36C156.755 35.864 156.211 35.6487 155.735 35.354C155.27 35.048 154.902 34.6683 154.63 34.215C154.369 33.7503 154.239 33.1893 154.239 32.532C154.239 32.4753 154.239 32.4187 154.239 32.362C154.239 32.294 154.244 32.243 154.256 32.209H156.772C156.76 32.243 156.755 32.2883 156.755 32.345C156.755 32.4017 156.755 32.4527 156.755 32.498C156.755 32.8607 156.851 33.1667 157.044 33.416C157.248 33.6653 157.542 33.8523 157.928 33.977C158.313 34.1017 158.761 34.164 159.271 34.164C159.599 34.164 159.888 34.147 160.138 34.113C160.398 34.0677 160.625 34.011 160.818 33.943C161.022 33.8637 161.186 33.773 161.311 33.671C161.447 33.569 161.543 33.45 161.6 33.314C161.668 33.178 161.702 33.025 161.702 32.855C161.702 32.549 161.6 32.2997 161.396 32.107C161.203 31.9143 160.931 31.75 160.58 31.614C160.24 31.478 159.854 31.3533 159.424 31.24C158.993 31.1267 158.551 31.0133 158.098 30.9C157.644 30.7753 157.202 30.628 156.772 30.458C156.341 30.2767 155.956 30.0613 155.616 29.812C155.276 29.5627 155.004 29.2453 154.8 28.86C154.596 28.4747 154.494 28.01 154.494 27.466C154.494 26.888 154.613 26.3893 154.851 25.97C155.1 25.5507 155.446 25.205 155.888 24.933C156.33 24.661 156.84 24.4627 157.418 24.338C157.996 24.202 158.625 24.134 159.305 24.134C159.939 24.134 160.54 24.202 161.107 24.338C161.673 24.4627 162.172 24.6667 162.603 24.95C163.033 25.2333 163.368 25.5903 163.606 26.021C163.855 26.4517 163.98 26.9617 163.98 27.551V27.755H161.515V27.619C161.515 27.313 161.424 27.0523 161.243 26.837C161.061 26.6217 160.806 26.4517 160.478 26.327C160.149 26.2023 159.764 26.14 159.322 26.14C158.846 26.14 158.438 26.1853 158.098 26.276C157.769 26.3667 157.514 26.5027 157.333 26.684C157.163 26.854 157.078 27.058 157.078 27.296C157.078 27.568 157.174 27.7947 157.367 27.976C157.571 28.146 157.843 28.299 158.183 28.435C158.534 28.5597 158.925 28.673 159.356 28.775C159.786 28.877 160.228 28.9903 160.682 29.115C161.135 29.2397 161.577 29.387 162.008 29.557C162.438 29.727 162.824 29.9423 163.164 30.203C163.504 30.4523 163.776 30.764 163.98 31.138C164.184 31.512 164.286 31.9597 164.286 32.481C164.286 33.3763 164.07 34.096 163.64 34.64C163.209 35.184 162.62 35.5807 161.872 35.83C161.124 36.0793 160.268 36.204 159.305 36.204ZM170.163 36.204C169.177 36.204 168.349 36.0397 167.681 35.711C167.012 35.371 166.508 34.8553 166.168 34.164C165.828 33.4727 165.658 32.5943 165.658 31.529C165.658 30.4523 165.828 29.574 166.168 28.894C166.508 28.2027 167.006 27.6927 167.664 27.364C168.332 27.024 169.148 26.854 170.112 26.854C171.018 26.854 171.783 27.0183 172.407 27.347C173.03 27.6643 173.5 28.163 173.818 28.843C174.135 29.5117 174.294 30.3787 174.294 31.444V32.056H168.055C168.077 32.5773 168.157 33.0193 168.293 33.382C168.44 33.7447 168.661 34.0167 168.956 34.198C169.262 34.368 169.664 34.453 170.163 34.453C170.435 34.453 170.678 34.419 170.894 34.351C171.12 34.283 171.313 34.181 171.472 34.045C171.63 33.909 171.755 33.739 171.846 33.535C171.936 33.331 171.982 33.0987 171.982 32.838H174.294C174.294 33.4047 174.192 33.8977 173.988 34.317C173.784 34.7363 173.5 35.0877 173.138 35.371C172.775 35.643 172.339 35.8527 171.829 36C171.33 36.136 170.775 36.204 170.163 36.204ZM168.089 30.56H171.863C171.863 30.22 171.817 29.9253 171.727 29.676C171.647 29.4267 171.534 29.2227 171.387 29.064C171.239 28.9053 171.058 28.792 170.843 28.724C170.639 28.6447 170.406 28.605 170.146 28.605C169.715 28.605 169.352 28.6787 169.058 28.826C168.774 28.962 168.553 29.1773 168.395 29.472C168.247 29.7553 168.145 30.118 168.089 30.56ZM181.025 36.204C180.447 36.204 179.915 36.0907 179.427 35.864C178.951 35.626 178.566 35.269 178.271 34.793H178.152L177.965 36H176.027V23.709H178.39V28.044H178.492C178.674 27.7833 178.895 27.5623 179.155 27.381C179.416 27.1997 179.711 27.0693 180.039 26.99C180.368 26.8993 180.725 26.854 181.11 26.854C181.813 26.854 182.425 27.0183 182.946 27.347C183.479 27.6757 183.893 28.1857 184.187 28.877C184.482 29.557 184.629 30.4353 184.629 31.512C184.629 32.5887 184.482 33.4727 184.187 34.164C183.904 34.8553 183.49 35.371 182.946 35.711C182.414 36.0397 181.773 36.204 181.025 36.204ZM180.294 34.266C180.77 34.266 181.144 34.1753 181.416 33.994C181.7 33.8013 181.904 33.518 182.028 33.144C182.153 32.77 182.215 32.2997 182.215 31.733V31.342C182.215 30.7753 182.153 30.305 182.028 29.931C181.904 29.5457 181.7 29.2623 181.416 29.081C181.144 28.8883 180.77 28.792 180.294 28.792C179.954 28.792 179.665 28.8543 179.427 28.979C179.189 29.0923 178.991 29.2623 178.832 29.489C178.685 29.7043 178.572 29.9763 178.492 30.305C178.413 30.6337 178.373 30.9963 178.373 31.393V31.699C178.373 32.2317 178.441 32.6907 178.577 33.076C178.713 33.4613 178.923 33.756 179.206 33.96C179.49 34.164 179.852 34.266 180.294 34.266ZM187.662 39.196C187.243 39.196 186.892 39.162 186.608 39.094C186.336 39.0373 186.161 38.9977 186.081 38.975V37.377H187.118C187.402 37.377 187.657 37.309 187.883 37.173C188.11 37.0483 188.308 36.8783 188.478 36.663C188.648 36.459 188.773 36.238 188.852 36L185.35 27.058H187.849L189.379 31.189C189.447 31.3817 189.521 31.6253 189.6 31.92C189.691 32.2033 189.782 32.5037 189.872 32.821C189.963 33.127 190.037 33.399 190.093 33.637H190.178C190.224 33.4783 190.275 33.2913 190.331 33.076C190.388 32.8607 190.445 32.6397 190.501 32.413C190.569 32.1863 190.632 31.971 190.688 31.767C190.756 31.5517 190.813 31.3647 190.858 31.206L192.133 27.058H194.513L191.47 35.575C191.3 36.0737 191.102 36.5383 190.875 36.969C190.66 37.411 190.405 37.7963 190.11 38.125C189.816 38.465 189.464 38.7257 189.056 38.907C188.66 39.0997 188.195 39.196 187.662 39.196ZM81.652 61.288C80.66 61.288 79.788 61.144 79.036 60.856C78.284 60.552 77.652 60.072 77.14 59.416C76.644 58.744 76.268 57.864 76.012 56.776C75.772 55.688 75.652 54.352 75.652 52.768C75.652 51.168 75.772 49.832 76.012 48.76C76.268 47.672 76.644 46.792 77.14 46.12C77.652 45.448 78.284 44.968 79.036 44.68C79.788 44.392 80.66 44.248 81.652 44.248C82.66 44.248 83.532 44.392 84.268 44.68C85.004 44.968 85.62 45.448 86.116 46.12C86.628 46.792 87.004 47.672 87.244 48.76C87.5 49.832 87.628 51.168 87.628 52.768C87.628 54.352 87.5 55.688 87.244 56.776C87.004 57.864 86.628 58.744 86.116 59.416C85.62 60.072 85.004 60.552 84.268 60.856C83.532 61.144 82.66 61.288 81.652 61.288ZM81.652 58.696C82.356 58.696 82.892 58.512 83.26 58.144C83.628 57.76 83.884 57.184 84.028 56.416C84.172 55.648 84.244 54.688 84.244 53.536V52.048C84.244 50.88 84.172 49.912 84.028 49.144C83.884 48.36 83.628 47.776 83.26 47.392C82.892 47.008 82.356 46.816 81.652 46.816C80.948 46.816 80.404 47.008 80.02 47.392C79.652 47.776 79.396 48.352 79.252 49.12C79.108 49.872 79.036 50.832 79.036 52V53.488C79.036 54.656 79.108 55.632 79.252 56.416C79.396 57.184 79.652 57.76 80.02 58.144C80.404 58.512 80.948 58.696 81.652 58.696ZM92.3494 61C92.3494 59.704 92.5014 58.432 92.8054 57.184C93.1254 55.936 93.5574 54.736 94.1014 53.584C94.6454 52.432 95.2534 51.344 95.9254 50.32C96.6134 49.28 97.3174 48.344 98.0374 47.512H89.8774V44.536H102.093V46.504C101.533 47.176 100.965 47.904 100.389 48.688C99.8134 49.472 99.2614 50.304 98.7334 51.184C98.2214 52.048 97.7574 52.952 97.3414 53.896C96.9254 54.824 96.5974 55.784 96.3574 56.776C96.1174 57.752 95.9974 58.736 95.9974 59.728V61H92.3494ZM110.27 61.288C108.926 61.288 107.798 61.08 106.886 60.664C105.974 60.248 105.286 59.672 104.822 58.936C104.358 58.2 104.126 57.352 104.126 56.392V55.984H107.366V56.44C107.366 57.144 107.598 57.696 108.062 58.096C108.542 58.496 109.23 58.696 110.126 58.696C110.99 58.696 111.662 58.496 112.142 58.096C112.622 57.696 112.862 57.08 112.862 56.248C112.862 55.624 112.734 55.144 112.478 54.808C112.222 54.472 111.886 54.232 111.47 54.088C111.07 53.944 110.63 53.872 110.15 53.872H108.686V51.352H110.126C110.574 51.352 110.974 51.272 111.326 51.112C111.694 50.936 111.982 50.68 112.19 50.344C112.414 50.008 112.526 49.576 112.526 49.048C112.526 48.552 112.422 48.144 112.214 47.824C112.022 47.488 111.742 47.24 111.374 47.08C111.022 46.92 110.614 46.84 110.15 46.84C109.686 46.84 109.262 46.92 108.878 47.08C108.51 47.24 108.222 47.48 108.014 47.8C107.806 48.12 107.702 48.52 107.702 49V49.36H104.51V48.76C104.51 47.864 104.742 47.08 105.206 46.408C105.686 45.72 106.358 45.192 107.222 44.824C108.086 44.44 109.086 44.248 110.222 44.248C111.358 44.248 112.35 44.424 113.198 44.776C114.062 45.128 114.726 45.648 115.19 46.336C115.67 47.008 115.91 47.808 115.91 48.736C115.91 49.36 115.79 49.912 115.55 50.392C115.326 50.872 115.022 51.28 114.638 51.616C114.254 51.936 113.814 52.208 113.318 52.432V52.528C114.182 52.784 114.886 53.256 115.43 53.944C115.99 54.616 116.27 55.488 116.27 56.56C116.254 57.52 115.998 58.352 115.502 59.056C115.022 59.76 114.334 60.312 113.438 60.712C112.542 61.096 111.486 61.288 110.27 61.288ZM124.543 61.288C123.295 61.288 122.207 61.072 121.279 60.64C120.367 60.192 119.663 59.56 119.167 58.744C118.671 57.928 118.423 56.96 118.423 55.84H121.711C121.711 56.4 121.815 56.904 122.023 57.352C122.247 57.784 122.567 58.12 122.983 58.36C123.399 58.584 123.887 58.696 124.447 58.696C124.991 58.696 125.455 58.576 125.839 58.336C126.239 58.096 126.551 57.752 126.775 57.304C126.999 56.84 127.111 56.272 127.111 55.6C127.111 54.976 126.999 54.456 126.775 54.04C126.567 53.608 126.263 53.288 125.863 53.08C125.479 52.856 125.023 52.744 124.495 52.744C124.079 52.744 123.711 52.816 123.391 52.96C123.087 53.088 122.823 53.248 122.599 53.44C122.375 53.632 122.183 53.84 122.023 54.064L119.023 53.68L119.695 44.536H129.583V47.488H122.479L122.215 51.208C122.391 51.08 122.623 50.944 122.911 50.8C123.199 50.656 123.551 50.528 123.967 50.416C124.399 50.288 124.895 50.224 125.455 50.224C126.415 50.224 127.271 50.424 128.023 50.824C128.791 51.224 129.399 51.824 129.847 52.624C130.295 53.408 130.519 54.408 130.519 55.624C130.519 56.792 130.271 57.8 129.775 58.648C129.295 59.496 128.607 60.152 127.711 60.616C126.831 61.064 125.775 61.288 124.543 61.288ZM138.752 61V58.312H142.688V48.592H138.728V46.576C139.256 46.528 139.864 46.408 140.552 46.216C141.256 46.008 141.96 45.76 142.664 45.472C143.368 45.168 144 44.848 144.56 44.512H146.048V58.312H149.72V61H138.752ZM158.112 61.288C157.104 61.288 156.208 61.144 155.424 60.856C154.656 60.568 154 60.112 153.456 59.488C152.912 58.864 152.504 58.04 152.232 57.016C151.96 55.976 151.824 54.712 151.824 53.224C151.824 51.544 151.96 50.128 152.232 48.976C152.504 47.824 152.896 46.904 153.408 46.216C153.936 45.512 154.584 45.008 155.352 44.704C156.12 44.4 157.008 44.248 158.016 44.248C159.232 44.248 160.24 44.472 161.04 44.92C161.856 45.368 162.456 45.984 162.84 46.768C163.24 47.536 163.44 48.432 163.44 49.456H160.2C160.2 48.896 160.12 48.424 159.96 48.04C159.8 47.64 159.552 47.336 159.216 47.128C158.88 46.92 158.456 46.816 157.944 46.816C157.192 46.816 156.616 47.016 156.216 47.416C155.832 47.8 155.568 48.368 155.424 49.12C155.296 49.872 155.224 50.784 155.208 51.856C155.368 51.696 155.608 51.504 155.928 51.28C156.264 51.056 156.68 50.864 157.176 50.704C157.672 50.528 158.208 50.44 158.784 50.44C159.92 50.44 160.872 50.672 161.64 51.136C162.424 51.584 163.008 52.208 163.392 53.008C163.776 53.808 163.968 54.736 163.968 55.792C163.968 56.928 163.712 57.912 163.2 58.744C162.704 59.56 162.016 60.192 161.136 60.64C160.272 61.072 159.264 61.288 158.112 61.288ZM157.992 58.696C158.584 58.696 159.072 58.576 159.456 58.336C159.84 58.08 160.128 57.736 160.32 57.304C160.512 56.856 160.608 56.36 160.608 55.816C160.608 55.24 160.512 54.736 160.32 54.304C160.128 53.872 159.84 53.536 159.456 53.296C159.072 53.04 158.584 52.912 157.992 52.912C157.416 52.912 156.928 53.04 156.528 53.296C156.144 53.536 155.856 53.872 155.664 54.304C155.472 54.736 155.376 55.24 155.376 55.816C155.376 56.376 155.472 56.88 155.664 57.328C155.856 57.76 156.144 58.096 156.528 58.336C156.928 58.576 157.416 58.696 157.992 58.696ZM172.097 61.288C170.705 61.288 169.553 61.08 168.641 60.664C167.745 60.248 167.073 59.68 166.625 58.96C166.193 58.224 165.977 57.4 165.977 56.488C165.977 55.56 166.193 54.776 166.625 54.136C167.073 53.48 167.745 52.96 168.641 52.576C167.873 52.112 167.313 51.576 166.961 50.968C166.625 50.344 166.457 49.648 166.457 48.88C166.457 47.984 166.673 47.192 167.105 46.504C167.537 45.8 168.177 45.248 169.025 44.848C169.873 44.448 170.897 44.248 172.097 44.248C173.281 44.248 174.289 44.448 175.121 44.848C175.969 45.248 176.617 45.8 177.065 46.504C177.513 47.192 177.737 47.984 177.737 48.88C177.737 49.648 177.553 50.344 177.185 50.968C176.833 51.592 176.281 52.128 175.529 52.576C176.441 52.96 177.113 53.48 177.545 54.136C177.977 54.776 178.193 55.56 178.193 56.488C178.193 57.4 177.969 58.224 177.521 58.96C177.089 59.68 176.417 60.248 175.505 60.664C174.609 61.08 173.473 61.288 172.097 61.288ZM172.097 58.72C172.945 58.72 173.601 58.504 174.065 58.072C174.545 57.64 174.785 57.048 174.785 56.296C174.785 55.512 174.545 54.912 174.065 54.496C173.585 54.064 172.929 53.848 172.097 53.848C171.249 53.848 170.585 54.064 170.105 54.496C169.625 54.912 169.385 55.512 169.385 56.296C169.385 57.048 169.617 57.64 170.081 58.072C170.561 58.504 171.233 58.72 172.097 58.72ZM172.097 51.328C172.817 51.328 173.401 51.136 173.849 50.752C174.297 50.368 174.521 49.808 174.521 49.072C174.521 48.336 174.297 47.776 173.849 47.392C173.417 46.992 172.833 46.792 172.097 46.792C171.345 46.792 170.753 46.992 170.321 47.392C169.889 47.776 169.673 48.336 169.673 49.072C169.673 49.808 169.889 50.368 170.321 50.752C170.753 51.136 171.345 51.328 172.097 51.328ZM191.153 61.288C189.809 61.288 188.681 61.08 187.769 60.664C186.857 60.248 186.169 59.672 185.705 58.936C185.241 58.2 185.009 57.352 185.009 56.392V55.984H188.249V56.44C188.249 57.144 188.481 57.696 188.945 58.096C189.425 58.496 190.113 58.696 191.009 58.696C191.873 58.696 192.545 58.496 193.025 58.096C193.505 57.696 193.745 57.08 193.745 56.248C193.745 55.624 193.617 55.144 193.361 54.808C193.105 54.472 192.769 54.232 192.353 54.088C191.953 53.944 191.513 53.872 191.033 53.872H189.569V51.352H191.009C191.457 51.352 191.857 51.272 192.209 51.112C192.577 50.936 192.865 50.68 193.073 50.344C193.297 50.008 193.409 49.576 193.409 49.048C193.409 48.552 193.305 48.144 193.097 47.824C192.905 47.488 192.625 47.24 192.257 47.08C191.905 46.92 191.497 46.84 191.033 46.84C190.569 46.84 190.145 46.92 189.761 47.08C189.393 47.24 189.105 47.48 188.897 47.8C188.689 48.12 188.585 48.52 188.585 49V49.36H185.393V48.76C185.393 47.864 185.625 47.08 186.089 46.408C186.569 45.72 187.241 45.192 188.105 44.824C188.969 44.44 189.969 44.248 191.105 44.248C192.241 44.248 193.233 44.424 194.081 44.776C194.945 45.128 195.609 45.648 196.073 46.336C196.553 47.008 196.793 47.808 196.793 48.736C196.793 49.36 196.673 49.912 196.433 50.392C196.209 50.872 195.905 51.28 195.521 51.616C195.137 51.936 194.697 52.208 194.201 52.432V52.528C195.065 52.784 195.769 53.256 196.313 53.944C196.873 54.616 197.153 55.488 197.153 56.56C197.137 57.52 196.881 58.352 196.385 59.056C195.905 59.76 195.217 60.312 194.321 60.712C193.425 61.096 192.369 61.288 191.153 61.288ZM205.402 61.288C204.41 61.288 203.538 61.144 202.786 60.856C202.034 60.552 201.402 60.072 200.89 59.416C200.394 58.744 200.018 57.864 199.762 56.776C199.522 55.688 199.402 54.352 199.402 52.768C199.402 51.168 199.522 49.832 199.762 48.76C200.018 47.672 200.394 46.792 200.89 46.12C201.402 45.448 202.034 44.968 202.786 44.68C203.538 44.392 204.41 44.248 205.402 44.248C206.41 44.248 207.282 44.392 208.018 44.68C208.754 44.968 209.37 45.448 209.866 46.12C210.378 46.792 210.754 47.672 210.994 48.76C211.25 49.832 211.378 51.168 211.378 52.768C211.378 54.352 211.25 55.688 210.994 56.776C210.754 57.864 210.378 58.744 209.866 59.416C209.37 60.072 208.754 60.552 208.018 60.856C207.282 61.144 206.41 61.288 205.402 61.288ZM205.402 58.696C206.106 58.696 206.642 58.512 207.01 58.144C207.378 57.76 207.634 57.184 207.778 56.416C207.922 55.648 207.994 54.688 207.994 53.536V52.048C207.994 50.88 207.922 49.912 207.778 49.144C207.634 48.36 207.378 47.776 207.01 47.392C206.642 47.008 206.106 46.816 205.402 46.816C204.698 46.816 204.154 47.008 203.77 47.392C203.402 47.776 203.146 48.352 203.002 49.12C202.858 49.872 202.786 50.832 202.786 52V53.488C202.786 54.656 202.858 55.632 203.002 56.416C203.146 57.184 203.402 57.76 203.77 58.144C204.154 58.512 204.698 58.696 205.402 58.696ZM219.675 61.288C218.283 61.288 217.131 61.08 216.219 60.664C215.323 60.248 214.651 59.68 214.203 58.96C213.771 58.224 213.555 57.4 213.555 56.488C213.555 55.56 213.771 54.776 214.203 54.136C214.651 53.48 215.323 52.96 216.219 52.576C215.451 52.112 214.891 51.576 214.539 50.968C214.203 50.344 214.035 49.648 214.035 48.88C214.035 47.984 214.251 47.192 214.683 46.504C215.115 45.8 215.755 45.248 216.603 44.848C217.451 44.448 218.475 44.248 219.675 44.248C220.859 44.248 221.867 44.448 222.699 44.848C223.547 45.248 224.195 45.8 224.643 46.504C225.091 47.192 225.315 47.984 225.315 48.88C225.315 49.648 225.131 50.344 224.763 50.968C224.411 51.592 223.859 52.128 223.107 52.576C224.019 52.96 224.691 53.48 225.123 54.136C225.555 54.776 225.771 55.56 225.771 56.488C225.771 57.4 225.547 58.224 225.099 58.96C224.667 59.68 223.995 60.248 223.083 60.664C222.187 61.08 221.051 61.288 219.675 61.288ZM219.675 58.72C220.523 58.72 221.179 58.504 221.643 58.072C222.123 57.64 222.363 57.048 222.363 56.296C222.363 55.512 222.123 54.912 221.643 54.496C221.163 54.064 220.507 53.848 219.675 53.848C218.827 53.848 218.163 54.064 217.683 54.496C217.203 54.912 216.963 55.512 216.963 56.296C216.963 57.048 217.195 57.64 217.659 58.072C218.139 58.504 218.811 58.72 219.675 58.72ZM219.675 51.328C220.395 51.328 220.979 51.136 221.427 50.752C221.875 50.368 222.099 49.808 222.099 49.072C222.099 48.336 221.875 47.776 221.427 47.392C220.995 46.992 220.411 46.792 219.675 46.792C218.923 46.792 218.331 46.992 217.899 47.392C217.467 47.776 217.251 48.336 217.251 49.072C217.251 49.808 217.467 50.368 217.899 50.752C218.331 51.136 218.923 51.328 219.675 51.328Z" fill="#96001F"/>
<rect x="5" y="1" width="246" height="68" rx="7" stroke="#96001F" stroke-width="2" shape-rendering="crispEdges"/>
</g>
<defs>
<filter id="filter0_d_30_13242" x="0" y="0" width="256" height="78" filterUnits="userSpaceOnUse" color-interpolation-filters="sRGB">
<feFlood flood-opacity="0" result="BackgroundImageFix"/>
<feColorMatrix in="SourceAlpha" type="matrix" values="0 0 0 0 0 0 0 0 0 0 0 0 0 0 0 0 0 0 127 0" result="hardAlpha"/>
<feOffset dy="4"/>
<feGaussianBlur stdDeviation="2"/>
<feComposite in2="hardAlpha" operator="out"/>
<feColorMatrix type="matrix" values="0 0 0 0 0 0 0 0 0 0 0 0 0 0 0 0 0 0 0.25 0"/>
<feBlend mode="normal" in2="BackgroundImageFix" result="effect1_dropShadow_30_13242"/>
<feBlend mode="normal" in="SourceGraphic" in2="effect1_dropShadow_30_13242" result="shape"/>
</filter>
</defs>
</svg>
