<svg width="111" height="95" viewBox="0 0 111 95" fill="none" xmlns="http://www.w3.org/2000/svg">
<path d="M24.3369 0L3.57628e-06 28.9591L55.5 95L111 28.9591L86.6631 0H24.3369Z" fill="black"/>
<path d="M24.3369 0L3.57628e-06 28.9591L55.5 95L111 28.9591L86.6631 0H24.3369Z" fill="black"/>
<path d="M30.1116 2.96875L9.65297 26.3779L55.5744 87.5781L101.349 26.3779L82.9506 2.96875H30.1116Z" fill="#EAC734"/>
<path d="M30.1116 2.96875L9.65297 26.3779L55.5744 87.5781L101.349 26.3779L82.9506 2.96875H30.1116Z" fill="#ECD400"/>
<path d="M51.3088 19.5106C50.9088 19.5106 50.5288 19.4706 50.1688 19.3906C49.8088 19.3106 49.4888 19.184 49.2088 19.0106C48.9354 18.8306 48.7188 18.6073 48.5588 18.3406C48.4054 18.0673 48.3288 17.7373 48.3288 17.3506C48.3288 17.3173 48.3288 17.284 48.3288 17.2506C48.3288 17.2106 48.3321 17.1806 48.3388 17.1606H49.8188C49.8121 17.1806 49.8088 17.2073 49.8088 17.2406C49.8088 17.274 49.8088 17.304 49.8088 17.3306C49.8088 17.544 49.8654 17.724 49.9788 17.8706C50.0988 18.0173 50.2721 18.1273 50.4988 18.2006C50.7254 18.274 50.9888 18.3106 51.2888 18.3106C51.4821 18.3106 51.6521 18.3006 51.7988 18.2806C51.9521 18.254 52.0854 18.2206 52.1988 18.1806C52.3188 18.134 52.4154 18.0806 52.4888 18.0206C52.5688 17.9606 52.6254 17.8906 52.6588 17.8106C52.6988 17.7306 52.7188 17.6406 52.7188 17.5406C52.7188 17.3606 52.6588 17.214 52.5388 17.1006C52.4254 16.9873 52.2654 16.8906 52.0588 16.8106C51.8588 16.7306 51.6321 16.6573 51.3788 16.5906C51.1254 16.524 50.8654 16.4573 50.5988 16.3906C50.3321 16.3173 50.0721 16.2306 49.8188 16.1306C49.5654 16.024 49.3388 15.8973 49.1388 15.7506C48.9388 15.604 48.7788 15.4173 48.6588 15.1906C48.5388 14.964 48.4788 14.6906 48.4788 14.3706C48.4788 14.0306 48.5488 13.7373 48.6888 13.4906C48.8354 13.244 49.0388 13.0406 49.2988 12.8806C49.5588 12.7206 49.8588 12.604 50.1988 12.5306C50.5388 12.4506 50.9088 12.4106 51.3088 12.4106C51.6821 12.4106 52.0354 12.4506 52.3688 12.5306C52.7021 12.604 52.9954 12.724 53.2488 12.8906C53.5021 13.0573 53.6988 13.2673 53.8388 13.5206C53.9854 13.774 54.0588 14.074 54.0588 14.4206V14.5406H52.6088V14.4606C52.6088 14.2806 52.5554 14.1273 52.4488 14.0006C52.3421 13.874 52.1921 13.774 51.9988 13.7006C51.8054 13.6273 51.5788 13.5906 51.3188 13.5906C51.0388 13.5906 50.7988 13.6173 50.5988 13.6706C50.4054 13.724 50.2554 13.804 50.1488 13.9106C50.0488 14.0106 49.9988 14.1306 49.9988 14.2706C49.9988 14.4306 50.0554 14.564 50.1688 14.6706C50.2888 14.7706 50.4488 14.8606 50.6488 14.9406C50.8554 15.014 51.0854 15.0806 51.3388 15.1406C51.5921 15.2006 51.8521 15.2673 52.1188 15.3406C52.3854 15.414 52.6454 15.5006 52.8988 15.6006C53.1521 15.7006 53.3788 15.8273 53.5788 15.9806C53.7788 16.1273 53.9388 16.3106 54.0588 16.5306C54.1788 16.7506 54.2388 17.014 54.2388 17.3206C54.2388 17.8473 54.1121 18.2706 53.8588 18.5906C53.6054 18.9106 53.2588 19.144 52.8188 19.2906C52.3788 19.4373 51.8754 19.5106 51.3088 19.5106ZM59.3516 19.3906V12.5306H62.9216C63.415 12.5306 63.825 12.624 64.1516 12.8106C64.485 12.9906 64.735 13.2473 64.9016 13.5806C65.075 13.9073 65.1616 14.2973 65.1616 14.7506C65.1616 15.204 65.0716 15.6006 64.8916 15.9406C64.7183 16.274 64.4616 16.534 64.1216 16.7206C63.7816 16.9073 63.365 17.0006 62.8716 17.0006H60.8416V19.3906H59.3516ZM60.8416 15.7806H62.6716C62.985 15.7806 63.225 15.6906 63.3916 15.5106C63.565 15.3306 63.6516 15.0806 63.6516 14.7606C63.6516 14.5406 63.615 14.3573 63.5416 14.2106C63.4683 14.064 63.3583 13.9506 63.2116 13.8706C63.0716 13.7906 62.8916 13.7506 62.6716 13.7506H60.8416V15.7806Z" fill="#96001F"/>
<path d="M36.5911 57.1819C39.0954 60.3727 41.251 63.67 43.8821 66.8183C46.5766 70.0305 49.5247 73.2001 51.4268 76.6676C51.7121 77.1781 50.7294 77.3908 50.3807 76.9441C47.9714 73.817 45.5305 70.7112 42.9945 67.6267C40.2683 64.3082 38.081 60.862 35.6084 57.4584C35.228 56.9691 36.2424 56.7564 36.5911 57.1819Z" fill="#26201B"/>
<path d="M27.1263 7.25768C24.6978 10.0687 22.6076 12.9734 20.0562 15.747C17.4433 18.5767 14.5845 21.369 12.7401 24.4237C12.4635 24.8734 13.4164 25.0608 13.7546 24.6673C16.0908 21.9125 18.4577 19.1764 20.9169 16.4591C23.5605 13.5356 25.6815 10.4997 28.0792 7.5013C28.4481 7.07027 27.4644 6.88287 27.1263 7.25768Z" fill="#26201B"/>
<path d="M73.5125 57.2337C70.9616 60.4163 68.7658 63.705 66.0856 66.8451C63.3409 70.0489 60.3378 73.2102 58.4004 76.6686C58.1097 77.1778 59.1108 77.39 59.466 76.9444C61.9201 73.8255 64.4065 70.7278 66.9898 67.6513C69.7668 64.3415 71.9949 60.9043 74.5136 57.5096C74.9011 57.0216 73.8677 56.8094 73.5125 57.2337Z" fill="#26201B"/>
<path d="M83.8855 7.30337C86.0113 10.1115 87.8411 13.0133 90.0746 15.784C92.3618 18.6108 94.8644 21.4003 96.4789 24.4518C96.7211 24.9011 95.8869 25.0883 95.5909 24.6952C93.5458 21.9432 91.4738 19.2099 89.3211 16.4954C87.0069 13.5749 85.1502 10.5421 83.0513 7.54674C82.7284 7.11616 83.5895 6.92895 83.8855 7.30337Z" fill="#26201B"/>
<path d="M55.4216 41.7601C54.7915 40.847 54.365 39.8885 54.1884 38.9086V38.3253L54.0758 37.8069L54.1793 37.094C54.3999 34.2037 56.6435 31.6374 59.8188 29.4469C60.6414 28.8799 62.4428 27.8235 63.4105 27.3459C63.6693 27.2182 64.494 26.7853 64.7596 26.7348C65.1242 26.6654 65.3222 26.8346 65.5079 26.9856L66.6983 28.1508C67.9923 29.5636 69.2289 31.7974 69.2615 33.4001V34.5018C69.2615 34.6217 69.2762 34.8284 69.1974 34.936C69.0376 35.1518 67.6412 35.6534 67.2362 35.8284C65.7599 36.4661 63.5208 37.5509 62.3044 38.3253C61.1477 39.0615 60.1159 39.7751 59.137 40.5936C58.6993 40.9597 58.023 41.6927 57.5594 41.9545C57.6517 40.7951 58.6374 39.3888 59.6332 38.3901L60.71 37.4181C59.1696 38.3053 57.8419 39.0447 56.7099 40.1399L55.4216 41.7601ZM38.9937 29.8357C39.7115 29.9757 40.8727 30.5713 41.4691 30.8759C42.9307 31.6218 44.1347 32.2226 45.4388 33.076C49.4895 35.7266 52.4668 38.4258 53.574 41.9545C53.9881 43.2765 53.9858 44.1922 53.9588 45.5188C53.9419 46.303 53.4829 47.8058 53.0902 48.5647C52.9068 48.9198 52.7143 49.3988 52.271 49.6664C52.0944 49.0073 51.5216 48.3599 50.9523 47.787C49.539 46.3639 46.9882 44.841 44.8447 43.7691C45.7977 44.5895 46.7024 45.1941 47.5159 46.1021C48.7199 47.4455 49.5266 48.936 49.7911 50.4441V51.0273L49.9036 51.6754L49.8057 52.1939C49.7404 52.746 49.6954 53.2722 49.458 53.814C48.7143 53.65 47.6476 53.1536 46.9826 52.8659C45.3623 52.1653 43.8016 51.3987 42.3693 50.5737C39.8128 49.1007 37.4083 47.2368 35.9399 45.3244C32.0084 40.2021 33.6985 34.4149 38.9937 29.8357ZM55.1965 51.7402C54.8736 51.4531 54.7498 50.3657 54.7464 49.9904C54.7352 48.6179 54.9692 47.3068 55.5487 45.9725C57.6033 41.2358 63.3002 37.5347 70.3867 34.993L74.3249 33.7073C75.0214 33.5005 75.7044 33.2653 76.4628 33.1409C77.5261 34.6806 78.6794 37.2593 78.7132 38.9086L78.8257 40.2695L78.7132 41.3712L78.5028 42.5377C77.912 44.9881 76.3255 47.2641 73.8264 49.2776C71.4275 51.2114 68.2376 52.7901 64.7607 54.0525C62.9289 54.7174 60.8957 55.3532 58.9097 55.8502C58.1524 56.0401 57.2331 56.3233 56.4342 56.4062L56.5366 55.6934C56.8832 52.7946 59.0267 50.146 62.5148 48.0463C63.379 47.5259 64.3545 47.0735 65.3233 46.6205C62.6949 47.3489 58.7994 48.9762 56.9338 50.2497C56.0708 50.8388 55.8379 51.0928 55.1965 51.7402ZM61.1601 37.1588H61.0476L61.1601 37.2236V37.1588ZM61.0476 37.2236H60.935L61.0476 37.2884V37.2236ZM60.935 37.2884H60.8225L60.935 37.3533V37.2884ZM60.8225 37.3533H60.71L60.8225 37.4181V37.3533ZM44.5071 43.5098H44.3946L44.5071 43.5746V43.5098ZM44.6197 43.5746H44.5071L44.6197 43.6394V43.5746ZM44.7322 43.6394H44.6197L44.7322 43.7043V43.6394ZM44.8447 43.7043H44.7322L44.8447 43.7691V43.7043ZM65.6609 46.4909H65.5484L65.6609 46.5557V46.4909ZM65.4358 46.5557H65.3233L65.4358 46.6205V46.5557Z" fill="#004A0C"/>
<path d="M44.8447 43.7691C46.9882 44.841 49.539 46.3639 50.9523 47.787C51.5216 48.3599 52.0944 49.0073 52.271 49.6664C52.7143 49.3988 52.9068 48.9198 53.0902 48.5647C53.4829 47.8058 53.9419 46.303 53.9588 45.5188C53.9858 44.1922 53.9881 43.2765 53.574 41.9545C52.4668 38.4258 49.4895 35.7266 45.4388 33.076C44.1347 32.2226 42.9307 31.6218 41.4691 30.8759C40.8727 30.5713 39.7115 29.9757 38.9937 29.8357C33.6985 34.4149 32.0084 40.2021 35.9399 45.3244C37.4083 47.2368 39.8128 49.1007 42.3693 50.5737C43.8016 51.3987 45.3623 52.1653 46.9826 52.8659C47.6476 53.1536 48.7143 53.65 49.458 53.814C49.6954 53.2722 49.7404 52.746 49.8057 52.1939L49.9036 51.6754L49.7911 51.0273V50.4441C49.5266 48.936 48.7199 47.4455 47.5159 46.1021C46.7024 45.1941 45.7977 44.5895 44.8447 43.7691ZM44.8447 43.7691L44.7322 43.7043M44.8447 43.7691V43.7043H44.7322M44.5071 43.5746L44.3946 43.5098H44.5071V43.5746ZM44.5071 43.5746H44.6197V43.6394M44.5071 43.5746L44.6197 43.6394M44.6197 43.6394H44.7322V43.7043M44.6197 43.6394L44.7322 43.7043M55.4216 41.7601C54.7915 40.847 54.365 39.8885 54.1884 38.9086V38.3253L54.0758 37.8069L54.1793 37.094C54.3999 34.2037 56.6435 31.6374 59.8188 29.4469C60.6414 28.8799 62.4428 27.8235 63.4105 27.3459C63.6693 27.2182 64.494 26.7853 64.7596 26.7348C65.1242 26.6654 65.3222 26.8346 65.5079 26.9856L66.6983 28.1508C67.9923 29.5636 69.2289 31.7974 69.2615 33.4001V34.5018C69.2615 34.6217 69.2762 34.8284 69.1974 34.936C69.0376 35.1518 67.6412 35.6534 67.2362 35.8284C65.7599 36.4661 63.5208 37.5509 62.3044 38.3253C61.1477 39.0615 60.1159 39.7751 59.137 40.5936C58.6993 40.9597 58.023 41.6927 57.5594 41.9545C57.6517 40.7951 58.6374 39.3888 59.6332 38.3901L60.71 37.4181C59.1696 38.3053 57.8419 39.0447 56.7099 40.1399L55.4216 41.7601ZM55.1965 51.7402C54.8736 51.4531 54.7498 50.3657 54.7464 49.9904C54.7352 48.6179 54.9692 47.3068 55.5487 45.9725C57.6033 41.2358 63.3002 37.5347 70.3867 34.993L74.3249 33.7073C75.0214 33.5005 75.7044 33.2653 76.4628 33.1409C77.5261 34.6806 78.6794 37.2593 78.7132 38.9086L78.8257 40.2695L78.7132 41.3712L78.5028 42.5377C77.912 44.9881 76.3255 47.2641 73.8264 49.2776C71.4275 51.2114 68.2376 52.7901 64.7607 54.0525C62.9289 54.7174 60.8957 55.3532 58.9097 55.8502C58.1524 56.0401 57.2331 56.3233 56.4342 56.4062L56.5366 55.6934C56.8832 52.7946 59.0267 50.146 62.5148 48.0463C63.379 47.5259 64.3545 47.0735 65.3233 46.6205C62.6949 47.3489 58.7994 48.9762 56.9338 50.2497C56.0708 50.8388 55.8379 51.0928 55.1965 51.7402ZM61.1601 37.1588H61.0476L61.1601 37.2236V37.1588ZM61.0476 37.2236H60.935L61.0476 37.2884V37.2236ZM60.935 37.2884H60.8225L60.935 37.3533V37.2884ZM60.8225 37.3533H60.71L60.8225 37.4181V37.3533ZM65.6609 46.4909H65.5484L65.6609 46.5557V46.4909ZM65.4358 46.5557H65.3233L65.4358 46.6205V46.5557Z" stroke="black" stroke-width="0.2"/>
</svg>
