<svg width="615" height="1651" viewBox="0 0 615 1651" fill="none" xmlns="http://www.w3.org/2000/svg">
<path opacity="0.33" d="M352.257 1650.08C480.489 1650.08 584.442 1612.47 584.442 1566.08C584.442 1519.69 480.489 1482.08 352.257 1482.08C224.025 1482.08 120.072 1519.69 120.072 1566.08C120.072 1612.47 224.025 1650.08 352.257 1650.08Z" fill="#757575"/>
<path d="M614.99 651.107C614.99 685.322 613.535 727.864 605.899 782.174C605.353 785.794 605.172 789.415 604.99 793.035C604.626 809.69 602.626 862.551 592.626 888.982L591.717 892.059L587.899 905.093L567.717 920.119C562.626 923.921 556.262 925.007 550.262 923.015C540.989 920.119 527.898 915.593 524.625 912.154C524.625 912.154 513.716 910.162 509.17 897.49C504.625 884.818 510.988 875.223 504.625 858.93C498.988 844.267 528.08 827.793 534.08 824.716C534.625 824.354 535.171 824.173 535.171 824.173C535.171 824.173 558.08 815.483 556.262 794.846C554.444 774.208 547.716 731.847 538.625 704.149C538.443 703.787 538.262 703.244 538.262 702.701C537.898 701.253 537.353 699.624 536.989 697.994C536.625 696.184 536.262 694.193 535.898 692.02C535.534 690.029 535.353 687.676 535.171 685.503C534.989 684.055 534.989 682.426 534.807 680.977C532.807 650.021 537.171 608.565 534.08 599.695C534.08 599.695 530.443 582.678 518.08 564.937C509.17 552.084 493.716 526.739 483.534 500.671C482.806 498.68 482.079 496.869 481.352 494.878C479.534 489.99 478.079 485.102 476.806 480.395C476.261 478.223 475.715 476.232 475.352 474.059C475.17 472.973 474.988 472.068 474.806 471.163C474.806 471.163 474.806 471.344 474.624 471.706C474.443 472.068 474.261 472.792 473.897 473.516C471.533 479.671 464.624 496.145 454.442 514.791C454.442 514.791 454.442 514.791 454.442 514.972C447.533 527.282 439.351 540.317 429.715 551.903C424.624 557.877 421.533 565.299 420.805 573.083C419.714 586.479 418.078 609.289 417.351 635.177C416.442 669.029 416.987 707.77 422.26 737.821C422.442 738.726 422.624 739.631 422.987 740.355C426.987 751.036 454.806 829.06 462.442 900.568C463.17 906.723 463.715 913.24 464.261 919.757C469.533 980.583 471.897 1055.53 472.443 1082.68C472.443 1084.31 472.624 1085.76 472.806 1087.39V1087.57C473.352 1092.46 474.624 1097.35 476.443 1102.05C488.806 1133.55 527.171 1239.09 522.261 1308.25C517.352 1376.5 505.352 1442.39 501.534 1462.31C500.261 1468.82 500.443 1475.52 502.443 1481.86C503.534 1485.48 505.17 1488.92 507.716 1491.27C514.989 1497.97 528.807 1515.71 539.171 1526.39C549.534 1537.07 589.899 1557.89 571.171 1577.26C552.444 1596.63 512.807 1578.35 471.533 1557.53C471.533 1557.53 439.351 1543.41 439.533 1531.64C439.715 1519.87 444.442 1524.76 443.533 1457.42C442.624 1390.07 442.26 1344.27 433.533 1317.48C424.805 1290.69 402.987 1236.92 398.987 1150.39C398.987 1150.39 395.714 1136.27 390.26 1124.86C385.169 1114.18 354.441 1070.74 343.532 1015.7C341.532 1005.57 338.986 995.428 335.713 985.471C326.986 959.04 310.622 909.076 308.258 895.318L302.986 872.146C302.986 872.146 310.622 969.359 302.804 1050.82C302.258 1056.62 301.895 1062.41 301.895 1068.38C302.076 1089.56 304.258 1139.35 320.622 1187.32C342.259 1250.68 341.168 1255.93 336.986 1323.46C332.622 1390.98 351.714 1446.01 358.986 1458.87C366.259 1471.72 369.714 1493.08 364.259 1500.5C358.805 1507.93 316.258 1514.44 276.803 1512.45C237.348 1510.46 180.438 1549.56 146.801 1516.61C146.801 1516.61 136.256 1504.85 200.984 1490.37C212.075 1487.83 222.803 1483.12 231.894 1476.43C234.075 1474.8 235.894 1473.35 236.621 1472.26C239.712 1467.92 264.803 1443.12 276.44 1435.51C287.894 1427.91 239.712 1316.94 237.166 1261.9C237.166 1261.9 232.621 1203.79 234.257 1180.98C236.076 1158.36 230.985 1121.61 219.53 1097.71C208.075 1073.81 169.347 1034.71 165.529 936.774C161.711 838.836 164.802 786.518 167.347 767.872C169.165 755.019 180.075 685.865 184.802 637.711C186.257 623.591 187.166 611.1 186.984 602.591C186.984 598.971 186.802 596.074 186.438 593.902C186.075 591.91 185.893 590.1 185.711 588.109C184.984 581.049 182.802 566.747 176.984 559.325C176.62 558.963 176.438 558.601 176.075 558.42C170.62 552.446 161.893 533.98 156.256 521.489C153.165 514.61 151.165 509.541 151.165 509.541C151.165 509.541 143.711 524.024 134.983 543.213C134.074 545.385 132.983 547.558 132.074 549.911C122.074 572.178 111.71 598.789 109.346 615.806C106.619 635.901 107.346 657.443 101.528 679.529C99.5282 687.132 96.9827 694.736 92.9826 702.52C89.1644 710.123 84.2552 717.908 77.7096 725.692C76.9823 726.597 76.255 727.502 75.5277 728.407C74.9823 729.132 74.4369 729.856 73.8914 730.58C53.5275 758.64 50.4365 795.57 50.0728 813.492C50.0728 820.009 52.4366 826.164 56.9821 830.871L78.6187 853.319C83.8915 858.75 87.8916 865.086 90.2553 872.146C95.1644 885.904 104.074 908.895 110.256 913.24C119.347 919.576 97.7099 925.188 91.7098 918.49L83.7097 936.231C81.346 941.481 75.8914 944.377 70.255 943.653L33.5272 938.584C24.0725 937.136 16.9815 929.17 16.7996 919.757C16.7996 916.86 16.436 913.964 15.8905 911.611C13.3451 902.921 2.43582 881.74 5.16313 855.129C7.89044 828.517 5.70862 759.907 2.79948 744.157C0.799455 732.209 -6.10979 684.055 13.7087 629.384C17.3451 619.608 21.7088 609.47 27.3452 599.333C30.9816 592.634 34.9818 585.936 39.7091 579.238C41.5273 576.704 42.8 573.626 43.5273 570.549C44.9819 563.126 48.2547 547.739 51.7093 531.265C51.7093 531.265 51.7093 531.265 51.7093 531.084C55.3457 513.524 59.3458 494.697 62.0731 482.93C63.3458 477.68 64.2549 473.697 64.8004 472.068C65.5277 469.896 65.7094 467.18 65.8913 464.103C65.8913 461.93 65.8913 459.396 65.7095 456.862C65.5277 454.689 65.3459 452.517 65.164 450.344C64.0731 441.474 62.4367 432.603 61.3457 428.259C59.8912 422.285 57.8911 394.949 69.5277 371.958C74.255 362.545 81.1642 353.855 91.3462 347.7C126.438 326.157 167.893 312.037 178.62 301.718C186.62 293.934 213.348 278.908 226.803 265.693C228.803 263.702 230.439 261.891 231.712 260.081C233.348 257.728 234.439 255.555 234.803 253.564C235.166 250.668 235.348 246.323 235.348 241.254C235.348 238.357 235.348 235.28 235.166 232.021C235.166 230.754 235.166 229.668 234.985 228.401C234.257 207.944 232.075 184.048 232.075 184.048L335.713 153.092L346.986 178.436L351.168 227.496L351.714 234.737L352.077 239.082L353.714 257.547L354.804 270.581V271.486C354.804 271.486 375.168 285.969 401.714 297.736C412.987 302.804 425.351 307.33 437.715 310.227C472.988 318.373 525.352 316.382 539.534 371.053C539.534 371.234 539.716 371.415 539.716 371.596C539.716 371.596 539.716 371.777 539.716 371.958C539.716 372.139 539.898 372.32 539.898 372.501C539.898 372.863 540.08 373.225 540.262 373.768C542.444 382.82 543.535 393.32 543.353 405.63C543.353 405.63 546.807 411.966 551.353 420.655C553.716 425 556.262 430.069 558.989 435.138C564.626 445.819 570.262 456.68 573.171 462.111C573.898 463.379 574.808 465.37 575.898 467.904C586.262 491.438 613.172 563.307 613.899 600.781C614.081 608.203 614.263 615.987 614.445 624.496C614.445 628.66 614.626 633.004 614.626 637.53C614.808 641.513 614.808 646.22 614.99 651.107Z" fill="#004A0C"/>
<path d="M91.5252 918.531L90.0707 921.609L83.525 936.272C81.1614 941.522 75.7068 944.419 70.0704 943.695L33.3425 938.445C28.2516 937.721 23.8879 935.186 20.9788 931.385C18.2514 928.126 16.7968 923.962 16.7968 919.618C16.7968 916.721 16.4331 913.825 15.8877 911.471C13.3422 902.601 2.43302 881.601 5.16033 854.99C5.52397 852.274 5.70578 849.016 5.8876 845.395C7.52399 814.62 5.34213 758.138 2.97846 744.018C1.34207 734.242 -3.56711 700.57 5.3421 659.114C6.79667 652.416 8.61488 645.356 10.7967 638.115C11.8877 634.856 12.9786 631.598 14.2514 628.158C16.7969 621.46 19.706 614.581 22.9787 607.702C23.8878 609.15 60.0702 671.605 63.5248 702.743L99.1617 686.269C95.8889 696.769 90.7979 707.631 83.1614 718.311C81.3432 720.846 79.5251 723.38 77.3432 725.734C68.9794 735.69 63.1612 747.095 59.1611 758.5C51.5247 779.862 50.07 801.223 49.8882 813.534C49.8882 820.051 52.2518 826.206 56.7974 830.912L76.6159 851.369L78.4341 853.36C81.3432 856.257 83.7069 859.515 85.7069 862.955C86.2524 863.679 86.616 864.584 87.1615 865.489C88.2524 867.662 89.3434 870.015 90.0707 872.369C90.7979 874.722 91.707 877.075 92.798 879.791C92.9798 880.153 93.1615 880.515 93.1615 880.877C94.2524 883.954 95.5252 887.032 96.7979 890.11V890.291C101.162 900.79 106.071 910.566 109.889 913.281C119.162 919.437 97.5253 925.23 91.5252 918.531Z" fill="#96001F"/>
<path opacity="0.29" d="M401.585 297.525C344.857 305.31 288.856 321.059 288.856 321.059C288.856 321.059 280.674 317.982 239.037 308.387C197.582 298.793 178.309 301.508 178.309 301.508C187.582 292.638 221.037 274.172 231.401 259.871C233.037 257.518 234.128 255.345 234.492 253.354C234.855 250.457 235.037 246.113 235.037 241.044C235.037 237.061 234.855 232.716 234.674 228.191L248.128 228.915C248.128 228.915 301.402 240.682 302.675 239.777C303.402 239.234 330.311 231.992 350.675 227.467L351.221 234.708L353.221 257.518L354.493 271.638C354.675 271.276 375.221 285.577 401.585 297.525Z" fill="#757575"/>
<path opacity="0.29" d="M354.438 270.441C320.983 280.398 282.801 301.398 282.801 301.398L226.618 265.735C228.618 263.743 230.255 261.933 231.527 260.123C233.164 257.769 234.255 255.597 234.618 253.606C234.982 250.709 235.164 246.364 235.164 241.296C235.164 238.399 235.164 235.322 234.982 232.063L320.801 240.028L351.893 239.123L353.529 257.588L354.438 270.441Z" fill="#757575"/>
<path d="M353.347 257.407C325.528 267.364 282.982 290.355 282.982 290.355L231.527 260.123C233.163 257.77 234.254 255.597 234.618 253.606C234.981 250.709 235.163 246.365 235.163 241.296C235.163 236.227 234.981 230.253 234.618 224.098C233.709 204.728 231.891 184.09 231.891 184.09L335.528 153.134L346.801 178.478L349.347 207.805L351.529 234.779L353.347 257.407Z" fill="#96740F"/>
<path d="M351.347 234.779L284.801 270.08L234.982 241.296C234.8 219.753 231.891 184.09 231.891 184.09L335.529 153.134L346.802 178.478L351.347 234.779Z" fill="#FFCEBB"/>
<path d="M349.166 207.805L285.71 251.614C280.801 255.054 274.074 254.873 269.346 251.071L234.437 223.916C233.528 204.546 231.709 183.909 231.709 183.909L335.347 152.952L346.62 178.297L349.166 207.805Z" fill="#D69687"/>
<path opacity="0.39" d="M613.962 651.471L611.78 648.574L600.507 641.333L587.416 657.264L555.234 686.409L537.234 703.064C536.87 701.616 536.324 699.987 535.961 698.357C535.597 696.547 535.234 694.556 534.87 692.383C534.506 690.211 534.324 688.039 534.143 685.866L605.78 612.368L613.416 624.497C613.598 628.661 613.598 633.005 613.598 637.531C613.962 641.876 613.962 646.583 613.962 651.471Z" fill="#757575"/>
<path d="M614.078 676.312C613.351 705.82 611.169 740.759 605.35 782.758C604.805 786.379 604.623 790 604.441 793.62C604.078 810.275 602.078 863.136 592.078 889.567L591.168 892.644L587.35 905.678L567.168 920.704C562.077 924.505 555.532 925.592 549.531 923.6C540.259 920.704 527.168 915.997 523.895 912.739C523.895 912.739 512.986 910.747 508.44 898.075C503.894 885.403 510.258 875.808 503.894 859.515C498.258 844.852 527.349 828.378 533.349 825.301C533.895 824.939 534.44 824.758 534.44 824.758C534.44 824.758 557.35 816.068 555.532 795.431C554.077 779.5 549.895 750.716 543.713 725.553C542.622 721.208 541.531 716.863 540.44 712.7C539.531 709.803 538.804 707.269 537.895 704.553C537.713 704.01 537.531 703.467 537.35 702.924C536.986 701.476 536.622 700.027 536.259 698.398C536.259 698.398 534.44 696.226 535.168 692.424C535.713 690.252 536.986 687.717 539.895 684.64C548.259 676.131 605.35 622.908 605.35 622.908L613.714 637.391C614.442 649.339 614.441 662.192 614.078 676.312Z" fill="#96740F"/>
<path d="M614.079 676.312C613.352 705.82 611.17 740.759 605.352 782.758C604.806 786.379 604.624 789.999 604.443 793.62C604.079 810.275 602.079 863.136 592.079 889.566L591.17 892.644L587.351 905.678L567.169 920.703C562.078 924.505 555.533 925.591 549.533 923.6C540.26 920.703 527.169 915.997 523.896 912.738C523.896 912.738 512.987 910.747 508.441 898.074C503.896 885.402 510.259 875.808 503.896 859.515C503.168 857.524 502.987 855.351 503.35 853.36C505.896 840.688 528.26 828.197 533.169 825.481C533.714 825.119 534.26 824.938 534.26 824.938C534.26 824.938 557.169 816.249 555.351 795.611C554.26 783.12 551.351 762.302 547.169 741.664C546.078 736.233 544.987 730.983 543.715 725.733L603.17 648.976L614.079 676.312Z" fill="#96001F"/>
<path d="M591.169 892.644L587.35 905.678L575.896 914.186L567.168 920.704C562.077 924.505 555.532 925.591 549.532 923.6C540.259 920.704 527.168 915.997 523.895 912.738C523.895 912.738 512.986 910.747 508.44 898.075C505.895 890.833 506.804 884.497 506.804 877.437C506.804 875.808 506.804 874.179 506.622 872.549C506.44 868.567 505.531 864.403 503.713 859.515C503.349 858.61 503.167 857.705 502.986 856.8C502.44 850.826 506.804 844.852 512.258 839.602C514.804 837.248 517.531 835.257 520.077 833.266C525.531 829.283 530.804 826.387 532.986 825.3C530.441 826.749 524.44 831.455 528.077 839.421C531.168 846.481 540.259 866.756 545.35 878.161C547.532 883.049 551.895 886.489 557.168 887.213L591.169 892.644Z" fill="#FFCEBB"/>
<path opacity="0.39" d="M558.441 434.998L554.805 463.058C540.077 461.61 503.895 437.352 503.895 437.352C491.531 454.73 485.713 482.79 482.986 501.074C482.258 499.083 481.531 497.273 480.804 495.281C478.986 490.394 477.531 485.506 476.258 480.799L476.804 478.626C476.804 478.626 476.622 455.998 477.349 453.825C477.895 451.834 482.622 435.36 482.622 433.188C482.622 431.196 495.168 423.231 495.168 423.231L510.441 421.783L532.441 432.645L550.987 420.516C553.169 425.041 555.896 429.929 558.441 434.998Z" fill="#757575"/>
<path d="M555.533 429.387C554.26 442.783 550.987 456.722 550.987 456.722C540.987 455.998 502.259 431.378 502.259 431.378C481.35 468.127 479.895 492.023 479.713 492.747C477.168 485.506 475.168 478.446 473.895 471.567C473.895 471.567 466.077 453.283 467.35 444.05C468.622 434.818 489.713 401.327 489.713 401.327C489.713 401.327 528.441 428.844 536.078 423.232C543.714 417.62 542.623 405.672 542.623 405.672C542.623 405.672 548.805 416.715 555.533 429.387Z" fill="#96740F"/>
<path opacity="0.39" d="M142.253 486.411L98.0707 446.222C92.6161 456.722 71.7067 474.825 61.7065 483.152C62.9793 477.902 63.8884 473.92 64.4339 472.29C65.5248 468.67 65.7066 463.058 65.343 457.265L69.8885 454.549L83.3433 436.989L103.525 428.119L116.253 440.429L142.253 486.411Z" fill="#757575"/>
<path d="M142.254 486.411C131.527 468.308 103.89 441.335 100.435 439.886C96.9808 438.438 62.6167 479.17 62.6167 479.17C63.344 475.912 64.0713 473.558 64.4349 472.291C66.0713 467.222 65.7077 458.895 64.7986 450.567C68.7986 438.981 102.435 401.327 102.435 401.327C102.435 401.327 126.254 437.352 131.89 455.455C134.254 463.601 138.436 475.731 142.254 486.411Z" fill="#96740F"/>
<path d="M91.5254 918.531L83.5253 936.272C81.1616 941.522 75.7071 944.419 70.0706 943.694L33.3428 938.445C28.2518 937.721 23.8881 935.186 20.979 931.384C26.7973 907.85 45.8884 874.541 45.8884 874.541C45.8884 874.541 45.8884 874.541 70.0706 873.274C86.0708 872.368 87.7072 868.024 86.9799 865.308C88.0708 867.481 89.1617 869.834 89.889 872.187C90.0708 872.73 90.2526 873.274 90.4344 873.998C90.6163 874.541 90.7981 875.265 91.1618 875.808C91.5254 877.075 92.0709 878.342 92.6163 879.61C97.7073 893.006 104.616 909.661 109.889 913.281C119.162 919.436 97.5255 925.229 91.5254 918.531Z" fill="#FFCEBB"/>
<path opacity="0.39" d="M92.6171 879.61C82.2533 889.567 45.8892 874.722 45.8892 874.722C45.8892 874.722 45.8892 874.722 70.0714 873.455C86.0716 872.55 87.708 868.205 86.9807 865.49C88.0716 867.662 89.1625 870.015 89.8898 872.369C90.0716 872.912 90.2534 873.455 90.4352 874.179C90.6171 874.722 90.7989 875.446 91.1626 875.989C91.708 876.895 92.2535 878.162 92.6171 879.61Z" fill="#757575"/>
<path opacity="0.39" d="M100.244 679.716C98.2439 687.32 95.5166 694.923 91.6983 702.707C77.5163 708.5 66.4253 714.474 66.4253 714.474L47.6978 692.57L29.3338 645.14L13.1519 629.39C16.7883 619.614 21.152 609.477 26.7884 599.339C40.2432 621.968 67.1525 670.665 67.1525 693.475C66.9707 693.475 85.8801 686.053 100.244 679.716Z" fill="#757575"/>
<path opacity="0.39" d="M56.3141 725.502L55.9504 743.605C55.9504 743.605 36.4956 703.235 3.04053 670.468C4.49509 663.77 6.31325 656.71 8.4951 649.469C9.58602 646.21 10.677 642.952 11.9497 639.512L18.6771 644.762L39.0411 681.33L56.3141 725.502Z" fill="#757575"/>
<path d="M98.9806 686.088C95.7078 696.587 90.6168 707.449 82.9804 718.13C69.162 727.363 57.8891 732.069 57.8891 732.069C40.9798 682.829 21.7068 652.778 10.6157 637.934C11.1612 635.942 11.8884 633.951 12.6157 631.96C13.8885 627.977 15.5248 623.994 17.1612 620.012C18.9794 615.848 20.7977 611.684 22.7977 607.339C23.7068 608.788 59.8891 671.243 63.3437 702.38L98.9806 686.088Z" fill="#96740F"/>
<path d="M512.259 849.016C507.531 854.809 506.986 866.032 506.986 872.55C506.804 868.567 505.895 864.403 504.077 859.515C503.713 858.61 503.531 857.705 503.35 856.8C509.168 848.11 515.532 844.852 512.259 849.016Z" fill="#C17C67"/>
<path d="M523.169 874.541C522.987 875.808 519.714 891.015 512.259 904.773C510.805 902.963 509.532 900.609 508.623 897.894C508.623 898.075 520.987 880.515 523.169 874.541Z" fill="#C17C67"/>
<path d="M538.441 891.739C538.441 891.739 538.259 904.23 528.805 915.635C526.805 914.549 525.168 913.644 524.259 912.738C524.077 912.738 535.35 901.876 538.441 891.739Z" fill="#C17C67"/>
<path d="M562.806 901.877C562.806 901.877 561.351 913.644 550.26 923.781C550.078 923.781 549.897 923.6 549.715 923.6C547.897 923.057 546.078 922.514 544.26 921.79C544.26 921.79 560.806 911.471 562.806 901.877Z" fill="#C17C67"/>
<path d="M91.5259 918.531L90.0713 921.609C90.0713 921.609 70.9801 893.187 62.0709 887.756C62.0709 887.756 53.1616 896.626 53.1616 898.437C53.1616 900.066 63.8891 914.548 64.4345 915.454L53.3435 904.411C51.7071 902.781 49.1616 902.781 47.5252 904.411L40.6161 911.471C40.6161 911.471 39.3433 904.411 48.2526 895.54C52.2526 891.739 55.1618 888.661 57.3436 886.308C59.7073 883.773 63.7073 883.773 66.071 886.127C74.2529 894.092 90.9804 910.385 91.7077 912.376C92.0713 913.281 91.8895 915.816 91.5259 918.531Z" fill="#C17C67"/>
<path d="M150.617 509.583C150.617 509.583 144.071 522.074 136.253 539.272C144.071 522.074 150.617 509.583 150.617 509.583Z" fill="#E88E8E"/>
<path d="M135.889 539.815C135.889 539.997 135.708 540.178 135.708 540.178C135.889 540.178 135.889 539.997 135.889 539.815Z" fill="#E88E8E"/>
<path d="M570.259 1577.84C551.532 1597.22 511.895 1578.93 470.621 1558.11C470.621 1558.11 438.439 1543.99 438.621 1532.23C438.803 1520.46 443.53 1525.35 442.621 1458C441.712 1390.66 441.166 1344.86 432.621 1318.07C424.439 1292.9 404.802 1244.39 398.984 1167.27C398.62 1162.02 398.257 1156.59 398.075 1150.97C398.075 1150.97 394.802 1136.85 389.347 1125.45C386.257 1118.93 373.347 1099.74 361.347 1073.13C353.892 1056.66 346.801 1037.29 342.619 1016.29C340.983 1008.32 339.165 1000.36 336.801 992.754C336.074 990.582 335.529 988.409 334.801 986.237C327.71 964.875 315.71 928.126 310.074 907.67C308.801 902.782 307.892 898.799 307.346 896.265L302.073 873.093C302.073 873.093 305.528 917.083 305.346 970.668C305.346 977.909 305.346 985.151 305.164 992.573C304.801 1012.12 303.71 1032.22 301.892 1051.59C301.71 1053.94 301.528 1056.3 301.346 1058.65C301.164 1062.09 300.983 1065.53 301.164 1069.15C301.164 1084.36 302.437 1114.41 309.165 1147.9C310.801 1156.41 312.983 1164.91 315.346 1173.6C316.801 1178.49 318.256 1183.38 319.892 1188.09C320.983 1191.53 322.074 1194.6 323.165 1197.68C341.347 1252.17 340.256 1260.14 336.256 1324.22C335.347 1336.89 335.529 1349.02 336.074 1360.61C338.619 1410.93 352.438 1449.13 358.256 1459.45C365.529 1472.3 368.983 1493.67 363.529 1501.09C358.074 1508.33 315.528 1515.03 276.073 1513.04C236.618 1511.04 179.708 1550.15 146.071 1517.2C146.071 1517.2 135.526 1505.43 200.254 1490.95C211.345 1488.42 222.072 1483.71 231.163 1477.01C233.345 1475.38 235.163 1473.93 235.891 1472.85C238.982 1468.5 264.073 1443.7 275.709 1436.1C287.164 1428.49 238.982 1317.52 236.436 1262.31C236.436 1262.31 235.163 1245.29 234.072 1226.1C233.709 1217.23 233.345 1207.82 233.163 1199.31C233.163 1192.25 233.163 1186.09 233.527 1181.39C233.709 1179.94 233.709 1178.49 233.709 1177.04C234.618 1154.23 229.527 1120.56 218.8 1098.11C217.89 1096.12 216.618 1093.95 215.345 1091.6C204.799 1073.67 184.435 1047.06 172.981 998.547C168.799 981.168 165.89 960.893 164.981 937.178C164.071 911.652 163.526 889.204 163.344 869.653C163.162 841.955 163.526 820.051 164.253 803.396C164.435 799.232 164.617 795.25 164.799 791.81C164.981 788.732 165.162 785.836 165.344 783.301V783.12C165.89 776.965 166.253 772.078 166.799 768.457C169.344 750.173 190.072 619.288 185.89 594.486C185.526 592.676 185.345 590.685 185.163 588.694C184.435 581.452 182.072 565.884 175.526 558.823C166.981 549.41 150.617 509.945 150.617 509.945C150.617 509.945 146.617 499.445 142.253 486.773C138.435 476.092 134.253 463.963 131.707 455.636C131.162 453.645 130.253 451.472 129.344 449.3C138.253 467.222 165.344 496.006 189.89 530.764C214.436 565.522 205.709 717.406 220.981 767.552C236.436 817.697 297.71 853.722 297.71 853.722C297.71 853.722 320.074 816.249 343.529 784.207C366.983 751.983 372.074 754.518 372.074 700.933C371.893 647.347 392.62 541.807 406.439 520.445C420.075 499.626 465.894 446.584 467.53 444.774C466.258 453.826 473.53 471.205 474.076 472.291C474.076 472.472 473.894 472.653 473.894 472.834C472.803 475.911 467.349 489.851 458.258 507.23C456.803 510.126 455.167 513.023 453.712 515.919C453.712 515.919 453.712 515.919 453.712 516.1C451.53 519.902 449.348 523.885 446.803 527.686C445.894 529.315 444.803 530.764 443.894 532.393C443.348 533.117 442.803 534.022 442.439 534.746C441.712 536.014 440.803 537.281 439.894 538.367C438.803 539.996 437.53 541.626 436.439 543.436C436.075 543.979 435.53 544.522 435.166 545.246C434.621 546.151 433.893 546.875 433.166 547.781C432.803 548.324 432.439 548.686 432.075 549.229C430.984 550.496 430.075 551.763 428.984 553.212C423.893 559.186 420.802 566.608 420.075 574.573C420.075 575.478 419.893 576.202 419.893 577.108C419.893 577.289 419.893 577.289 419.893 577.47C419.893 578.556 419.712 579.642 419.712 580.728C419.712 581.452 419.53 582.176 419.53 583.082C419.53 583.625 419.53 584.168 419.348 584.711C419.348 585.797 419.166 586.883 419.166 587.969C419.166 589.056 418.984 590.323 418.984 591.409C418.984 592.133 418.802 593.038 418.802 593.762C418.802 594.849 418.621 595.935 418.621 597.021C418.621 597.745 418.621 598.288 418.439 599.012C418.439 599.736 418.257 600.279 418.257 601.004C417.893 605.891 417.712 611.322 417.348 616.934C417.348 617.839 417.348 618.564 417.166 619.469C417.166 621.279 416.984 623.089 416.984 624.9C416.984 626.348 416.802 627.796 416.802 629.244C416.802 630.15 416.802 631.055 416.802 631.96C416.802 632.503 416.802 633.046 416.802 633.77C416.802 634.675 416.802 635.761 416.802 636.848C416.802 638.115 416.802 639.382 416.621 640.649C415.711 673.416 416.621 710.708 421.712 739.311C421.893 740.216 422.075 741.121 422.439 741.845C426.439 752.526 454.257 830.55 461.894 902.058C464.803 929.936 466.985 962.884 468.621 993.659C470.258 1027.15 471.349 1057.92 471.894 1076.39C471.894 1079.29 472.076 1081.82 472.076 1084.17C472.076 1084.9 472.076 1085.8 472.258 1086.53C472.258 1087.07 472.258 1087.61 472.44 1088.16C472.44 1088.34 472.44 1088.7 472.44 1088.88C472.44 1089.24 472.44 1089.42 472.621 1089.79C473.167 1094.49 474.44 1099.2 476.076 1103.73C478.985 1110.97 483.167 1122.37 488.076 1136.31C503.895 1182.29 525.713 1256.88 521.895 1309.92C516.986 1378.17 504.985 1444.06 501.167 1463.98C499.894 1470.49 500.076 1477.19 502.076 1483.53C503.167 1487.15 504.804 1490.59 507.349 1492.94C514.622 1499.64 528.44 1517.38 538.804 1528.06C548.622 1537.66 588.987 1558.66 570.259 1577.84Z" fill="#96001F"/>
<path opacity="0.39" d="M302.075 872.731C300.438 869.653 298.984 866.576 297.711 863.498C296.438 860.421 295.165 857.162 293.893 854.085L293.711 853.723V852.817C293.711 851.007 294.075 849.921 294.256 848.654C294.62 847.386 294.802 846.119 295.165 845.033C295.529 843.947 295.893 842.68 296.438 841.412C296.984 840.326 297.347 839.059 297.893 837.973C298.984 835.801 300.075 833.628 301.529 831.637C302.802 829.645 304.256 827.473 305.711 825.663C307.166 823.671 308.62 821.861 310.257 820.232C311.893 818.422 313.529 816.611 315.348 815.163C317.166 813.534 318.802 811.904 320.62 810.456C322.439 809.008 324.257 807.56 326.257 806.111C328.075 804.663 330.075 803.396 332.075 802.129C334.075 800.862 336.075 799.594 338.075 798.508C340.075 797.422 342.257 796.336 344.257 795.25C346.257 794.163 348.439 793.077 350.439 792.353C354.803 790.543 358.985 788.914 363.348 787.465C367.712 786.198 372.257 785.112 376.803 784.207C373.348 787.284 369.712 790.181 366.076 792.715C362.439 795.431 358.985 798.146 355.348 800.681C351.894 803.396 348.257 806.111 344.803 808.646C343.166 810.094 341.348 811.361 339.712 812.629C338.802 813.353 338.075 813.896 337.166 814.62C336.257 815.344 335.53 816.068 334.621 816.611C332.984 818.06 331.348 819.327 329.53 820.775C327.893 822.223 326.439 823.671 324.802 824.939C321.711 827.835 318.62 830.732 315.711 833.809C312.802 836.887 310.257 839.964 307.711 843.404C307.166 844.309 306.62 845.033 305.893 845.938C305.347 846.843 304.802 847.568 304.257 848.473C303.711 849.378 303.347 850.283 302.802 851.007L302.256 852.274L302.075 852.817L301.893 853.179C301.893 853.179 301.893 853.18 301.893 853.361V852.093C302.075 855.533 302.256 858.791 302.256 862.231C302.256 865.852 302.256 869.291 302.075 872.731Z" fill="#8E8E8E"/>
<path d="M363.347 1501.09C357.893 1508.33 315.347 1515.03 275.892 1513.04C236.436 1511.05 179.527 1550.15 145.89 1517.2C145.89 1517.2 142.799 1513.94 149.89 1508.51C156.072 1503.8 169.89 1497.65 200.072 1490.77C211.345 1488.24 221.891 1483.53 230.982 1476.83C233.164 1475.2 234.982 1473.75 235.709 1472.67C238.8 1468.32 263.892 1443.52 275.528 1435.92C278.801 1433.75 277.346 1423.43 273.346 1408.4C263.346 1370.2 238.073 1301.77 236.255 1262.31C236.255 1262.31 234.255 1238.05 233.527 1214.7C232.982 1202.03 232.8 1189.53 233.527 1181.57C233.709 1180.12 233.709 1178.67 233.709 1177.22C234.618 1178.31 263.528 1215.97 265.71 1220.67C265.71 1220.67 296.619 1180.48 309.165 1148.26C311.165 1158.58 313.892 1169.26 317.165 1179.76C318.074 1182.66 318.983 1185.55 319.892 1188.45C341.529 1251.81 340.438 1257.06 336.074 1324.58C332.256 1385.05 346.984 1435.37 355.347 1454.56C356.256 1456.92 357.165 1458.73 358.075 1459.99C365.166 1472.3 368.802 1493.67 363.347 1501.09Z" fill="#004A0C"/>
<path opacity="0.51" d="M322.984 1197.5L266.801 1255.43L234.073 1225.74C233.71 1216.87 233.346 1207.46 233.164 1199.13L237.528 1201.12C237.528 1201.12 249.164 1214.7 250.073 1215.6C250.983 1216.51 265.528 1229.36 265.528 1229.36L276.801 1215.24L305.711 1180.3L315.347 1173.42C316.802 1178.31 318.256 1183.2 319.893 1187.91C320.802 1191.34 321.893 1194.6 322.984 1197.5Z" fill="#757575"/>
<path d="M316.983 1179.22C302.801 1203.11 270.256 1247.28 267.346 1247.28C263.892 1247.28 233.528 1214.34 233.528 1214.34C233.346 1211.26 233.346 1208.36 233.346 1205.47C233.164 1200.22 233.164 1195.33 233.164 1190.8C233.164 1187.18 233.346 1183.92 233.528 1181.21C233.71 1179.76 233.71 1178.31 233.71 1176.86C234.619 1177.95 263.528 1215.6 265.71 1220.31C265.71 1220.31 296.62 1180.12 309.165 1147.9C310.983 1158.04 313.711 1168.72 316.983 1179.22Z" fill="#96740F"/>
<path d="M363.347 1501.09C357.893 1508.33 315.347 1515.03 275.892 1513.04C236.436 1511.04 179.527 1550.15 145.89 1517.2C145.89 1517.2 142.799 1513.94 149.89 1508.51C149.89 1508.51 145.526 1516.29 158.072 1519.19C170.799 1522.09 190.436 1525.89 240.618 1510.32C243.346 1509.42 257.891 1501.45 278.983 1503.26C300.074 1504.89 319.347 1503.8 319.347 1503.8C319.347 1503.8 336.983 1460.18 355.347 1454.2C356.256 1456.55 357.165 1458.36 358.075 1459.63C365.166 1472.3 368.802 1493.67 363.347 1501.09Z" fill="#96740F"/>
<path d="M570.26 1577.85C551.533 1597.22 511.896 1578.93 470.623 1558.11C470.623 1558.11 438.44 1543.99 438.622 1532.23C438.804 1522.99 441.713 1523.9 442.622 1493.12C442.804 1484.25 442.986 1472.85 442.804 1458C441.895 1390.66 441.531 1344.86 432.804 1318.07C426.076 1297.25 411.349 1260.14 403.167 1203.84C402.803 1201.12 402.44 1198.22 402.076 1195.51C401.531 1191.16 400.985 1186.46 400.44 1181.93C399.894 1177.22 399.531 1172.34 399.167 1167.27C418.258 1180.3 452.622 1203.47 455.168 1203.11C455.168 1203.11 479.532 1168.9 487.714 1135.23C490.259 1142.65 492.986 1150.61 495.714 1159.3C496.259 1160.93 496.805 1162.56 497.168 1164.19C498.441 1168.35 499.714 1172.52 500.987 1176.68C513.35 1219.04 524.441 1269.73 521.532 1308.83C516.623 1377.08 504.623 1442.98 500.805 1462.89C500.259 1465.97 499.896 1469.05 500.078 1471.94C500.078 1475.56 500.623 1479 501.714 1482.44C502.805 1486.06 504.441 1489.5 506.987 1491.86C514.26 1498.55 528.078 1516.29 538.26 1526.98C545.169 1534.04 565.351 1545.62 572.442 1558.29C576.26 1564.81 576.624 1571.51 570.26 1577.85Z" fill="#004A0C"/>
<path opacity="0.51" d="M500.805 1176.68C488.259 1202.03 462.441 1241.49 462.441 1241.49L402.985 1203.84C402.621 1201.12 402.258 1198.22 401.894 1195.51C401.349 1191.16 400.803 1186.46 400.258 1181.93C406.44 1184.65 413.349 1187.72 416.076 1189.72C421.895 1193.52 433.713 1199.13 433.713 1199.13L456.259 1213.61L469.895 1205.28L481.35 1187L493.168 1161.47C493.168 1161.47 494.077 1160.57 495.35 1159.48C495.896 1161.11 496.441 1162.74 496.805 1164.37C498.259 1168.17 499.532 1172.52 500.805 1176.68Z" fill="#757575"/>
<path d="M496.986 1164.19C487.167 1192.07 460.076 1231.71 460.076 1231.71L401.894 1195.51C401.712 1193.7 401.348 1191.71 401.166 1189.9C400.803 1186.82 400.439 1183.56 400.075 1180.3C399.712 1176.14 399.166 1171.61 398.984 1167.27C418.076 1180.3 452.44 1203.47 454.985 1203.11C454.985 1203.11 479.349 1168.9 487.531 1135.23C490.622 1143.91 493.713 1153.69 496.986 1164.19Z" fill="#96740F"/>
<path d="M570.26 1577.85C551.532 1597.22 511.895 1578.93 470.622 1558.11C470.622 1558.11 438.44 1543.99 438.621 1532.23C438.803 1522.99 441.712 1523.9 442.621 1493.12C460.804 1511.95 454.803 1541.64 454.803 1541.64C458.258 1542.54 462.985 1549.6 520.077 1572.6C577.169 1595.59 572.623 1558.47 572.623 1558.47C576.26 1564.81 576.623 1571.51 570.26 1577.85Z" fill="#96740F"/>
<path opacity="0.28" d="M238.073 1171.97C238.073 1171.97 245.892 1179.58 250.983 1183.92C256.074 1188.45 272.801 1190.44 285.347 1156.59C285.347 1156.59 275.347 1201.3 264.255 1209.09C264.074 1209.27 248.437 1197.14 238.073 1171.97Z" fill="#757575"/>
<path opacity="0.28" d="M472.622 1132.69C472.622 1132.69 464.076 1170.89 450.44 1171.61C436.803 1172.34 422.439 1164.01 413.167 1151.34C413.167 1151.34 422.803 1177.59 446.622 1187.9C450.622 1189.72 455.349 1188.63 458.44 1185.55C465.167 1178.85 475.531 1163.28 472.622 1132.69Z" fill="#757575"/>
<path d="M216.437 132.677L210.073 130.143C207.527 129.238 204.8 131.048 204.982 133.763L206.618 166.892C206.8 171.056 209.345 174.857 213.164 176.668L224.073 181.917C224.255 182.098 226.8 148.789 216.437 132.677Z" fill="#CC9181"/>
<path d="M225.892 176.849L215.891 172.685C215.528 172.504 215.164 172.323 214.619 172.142C211.71 170.513 209.891 167.978 209.71 165.082L208.073 139.194C207.891 137.022 210.437 135.574 212.801 136.298L218.619 138.289C220.619 141.005 222.073 144.263 223.164 147.703C227.346 160.737 225.892 176.849 225.892 176.849Z" fill="#B27566"/>
<path d="M231.891 174.676L221.891 171.417C221.528 171.236 221.164 171.055 220.618 170.874C217.709 169.607 215.891 167.616 215.709 165.262L213.891 144.625C213.709 142.996 216.255 141.728 218.618 142.452L224.437 144.082C226.437 146.254 227.891 148.789 228.982 151.504C233.164 161.823 231.891 174.676 231.891 174.676Z" fill="#93564A"/>
<path d="M369.893 147.522C367.166 152.953 362.075 163.634 358.62 171.961C353.711 183.547 342.438 182.099 342.438 182.099C339.893 184.271 321.892 210.159 311.347 225.365C310.074 227.176 308.619 228.805 306.983 230.072C302.438 233.874 296.801 235.865 290.801 235.865L259.71 235.322C253.164 235.141 246.982 232.425 242.437 227.719C241.528 226.813 240.618 225.727 239.891 224.641C234.618 217.038 227.891 207.443 223.709 201.469C221.164 197.849 219.891 193.504 219.891 189.159C220.073 168.16 218.436 148.608 215.709 131.772C211.163 102.626 204.436 81.0838 200.982 71.3081C200.982 71.1271 200.8 70.765 200.8 70.584C199.891 67.1444 200.618 63.7048 202.982 60.9894L215.891 45.9638L217.527 30.3952C217.891 26.5936 219.891 23.154 223.164 20.9816C229.527 16.6369 240.618 9.39564 246.8 7.22327C255.891 4.14575 305.892 -6.53506 330.074 6.49915C344.984 14.4645 356.802 31.1193 363.711 42.8863C365.711 46.3259 367.529 49.4034 368.62 51.7568C369.893 54.2912 370.438 57.0067 369.893 59.7222C367.348 76.196 363.711 130.324 363.711 130.324L366.075 134.307L369.711 140.643C370.984 142.453 370.984 145.169 369.893 147.522Z" fill="#FFCEBB"/>
<path d="M286.801 150.056L276.074 148.608L265.165 149.694C265.165 149.694 258.074 152.047 260.437 158.021C262.983 163.995 268.801 171.418 275.529 171.599C282.074 171.78 288.256 164.538 291.165 158.745C294.074 152.952 286.801 150.056 286.801 150.056Z" fill="#EDB2A2"/>
<path opacity="0.44" d="M301.71 97.1953C301.71 97.1953 288.437 98.1005 284.801 106.066C281.164 114.031 298.801 102.264 306.619 102.988C314.437 103.712 301.71 97.1953 301.71 97.1953Z" fill="#D69383"/>
<path d="M369.712 140.28L366.076 133.944L363.712 129.961C363.712 129.961 367.348 75.8333 369.894 59.3595C370.257 56.644 369.894 53.7475 368.621 51.3941C367.53 49.0407 365.712 45.9632 363.712 42.5236C361.166 40.3512 359.348 38.722 358.803 38.1789C356.257 36.1875 333.166 37.6358 333.166 37.6358L317.166 48.8597L312.62 61.7128C312.62 61.7128 331.53 67.1438 333.53 78.9108L333.348 88.8675C333.348 92.126 330.802 94.6604 327.53 94.8415L310.62 95.7466L305.166 102.988L314.984 103.712C318.439 103.893 321.348 106.065 322.802 108.962L325.166 113.85L302.256 114.393V115.841L297.711 115.66C297.711 115.66 306.984 132.496 321.711 120.91C322.802 120.005 324.257 119.462 325.711 119.462C328.257 119.462 330.802 119.281 333.712 118.919C336.984 118.556 339.893 121.453 339.53 124.893L337.348 141.909C336.984 145.349 334.439 148.246 331.166 149.332L325.893 150.961C322.802 152.047 320.62 154.944 320.62 158.202C320.802 173.409 320.075 215.408 306.438 229.89C308.075 228.442 309.529 226.994 310.802 225.184C321.348 210.158 339.348 184.09 341.893 181.917C341.893 181.917 353.348 183.365 358.075 171.779C361.53 163.633 366.803 152.952 369.348 147.34C370.985 145.168 370.985 142.453 369.712 140.28Z" fill="#EDB2A2"/>
<path d="M252.619 117.833L252.255 116.928H236.073L236.255 112.764C236.437 109.687 238.619 107.152 241.528 106.609L250.437 104.98L250.619 101.54L248.982 99.0057L236.619 95.7471C233.346 94.842 231.164 91.5834 231.891 88.3249L232.437 84.7043L222.982 74.3855L214.618 70.2218L200.8 70.0408V70.2218C200.8 70.4028 200.982 70.7649 200.982 70.9459C204.436 80.7216 211.345 102.264 215.709 131.41C218.255 148.427 220.073 167.797 219.891 188.797C219.891 193.142 221.164 197.486 223.709 201.107C227.891 207.081 234.618 216.676 239.891 224.279C240.619 225.365 241.528 226.451 242.437 227.356C230.437 210.883 232.982 169.427 234.255 155.487C234.437 152.772 232.8 150.237 230.255 149.513L229.346 149.332C226.618 148.427 224.618 146.074 224.073 143.358L221.527 127.065C221.164 124.531 223.164 122.178 225.891 122.178C229.346 122.359 232.255 122.359 234.8 122.54C234.073 121.997 233.346 121.453 232.437 120.729C232.8 120.91 244.619 118.014 252.619 117.833Z" fill="#EDB2A2"/>
<path d="M252.619 117.833C244.619 118.014 232.801 120.729 232.801 120.729C233.528 121.453 234.255 121.996 235.164 122.54C252.801 135.212 259.165 119.1 259.165 119.1C257.892 118.195 255.528 117.833 252.619 117.833Z" fill="#EDB2A2"/>
<path d="M289.166 103.712C292.075 100.816 295.711 99.1863 299.347 97.9191C302.984 96.6518 306.984 96.1088 310.802 95.9277C314.62 95.7467 318.439 96.1088 322.257 96.8329C324.075 97.1949 326.075 97.738 327.893 98.2811C329.712 99.0053 331.53 99.7294 333.348 100.635C331.348 101.178 329.53 101.359 327.53 101.721C325.711 102.083 323.893 102.083 321.893 102.264C318.257 102.626 314.62 102.807 310.984 102.988L289.166 103.712Z" fill="#3D352D"/>
<path opacity="0.44" d="M251.164 99.7295C254.255 100.997 263.346 102.083 262.983 106.609C262.437 111.134 258.983 106.428 250.437 105.16C241.891 103.893 251.164 99.7295 251.164 99.7295Z" fill="#D69383"/>
<path d="M259.528 104.798C257.892 104.617 256.437 104.798 254.801 104.798C253.346 104.979 251.71 104.979 250.255 104.979C247.346 104.979 244.255 104.979 241.346 104.798C238.255 104.617 235.346 104.255 232.255 103.712C229.164 103.169 226.255 102.264 223.164 100.816C226.255 99.3673 229.346 98.6432 232.437 98.1001C235.528 97.738 238.619 97.557 241.892 97.738C244.983 97.919 248.074 98.4621 251.165 99.5483C252.619 100.091 254.255 100.635 255.71 101.54C256.437 101.902 257.165 102.445 257.892 102.988C258.437 103.531 259.165 104.074 259.528 104.798Z" fill="#3D352D"/>
<path d="M370.075 59.3597C370.075 59.5408 370.075 59.9028 369.893 60.0839C369.529 62.0752 369.347 64.6096 368.984 67.3251C368.62 71.1267 368.075 75.4715 367.711 80.1783C365.711 102.083 363.893 129.962 363.893 129.962L366.256 133.944L355.893 137.203L350.256 126.884L341.893 105.523C340.256 101.54 339.529 97.3762 339.711 93.0314C339.711 90.316 339.711 86.5143 339.529 80.9024C339.347 77.6438 338.438 74.9284 336.983 72.756C331.711 64.6096 319.165 62.2562 307.165 61.1701C291.71 59.7218 286.801 52.2995 286.801 52.2995C286.801 52.2995 275.892 70.7647 304.801 71.8509C327.347 72.756 330.62 82.3506 330.801 86.6954C330.801 87.9626 330.801 88.6867 330.801 88.6867C330.62 88.3247 330.62 87.9626 330.438 87.7816C324.619 74.0232 316.074 79.4541 292.619 81.8075C275.892 83.4368 271.164 69.6785 269.891 60.989C269.346 57.1874 266.073 54.4719 262.255 54.4719C254.255 54.6529 248.619 55.196 244.618 56.1012C241.709 56.8253 239.164 58.2736 237.527 60.627C236.073 62.6183 234.982 64.9717 234.8 67.5061L233.709 79.8162C233.346 83.7989 232.073 87.6005 229.709 91.0401L222.254 102.445C219.345 106.971 217.527 112.04 216.982 117.471L215.891 131.591C211.345 102.445 204.618 80.9024 201.163 71.1267C199.891 67.5061 200.618 63.7045 203.163 60.808L216.073 45.7825L216.436 42.7049L216.618 41.4377L217.709 30.2138C218.073 26.4122 220.073 22.9726 223.345 20.8002C229.709 16.4555 240.8 9.21425 246.982 7.04188C256.073 3.96436 306.074 -6.71646 330.256 6.31775C349.529 16.6365 363.711 41.4377 368.802 51.5754C369.893 53.9288 370.438 56.6443 370.075 59.3597Z" fill="#3D352D"/>
<path d="M363.711 129.962L366.075 133.944L355.711 137.203L350.075 126.884L346.438 117.652L341.711 105.523C340.983 103.893 340.62 102.264 340.256 100.454C339.711 98.1004 339.529 95.566 339.529 93.0315C339.529 90.3161 339.529 86.5144 339.347 80.9025C339.165 77.6439 338.438 74.9285 336.983 72.7561C337.529 73.4802 341.711 79.0922 344.256 89.4109C346.438 98.4625 362.984 95.928 367.893 80.1784C367.347 85.6093 366.984 91.4023 366.438 97.1952C366.075 102.264 365.711 107.333 365.347 111.678C364.256 122.359 363.711 129.962 363.711 129.962Z" fill="#26201B"/>
<path d="M279.892 160.194L271.892 160.013C267.892 160.013 264.619 156.573 264.983 152.591L265.165 150.418L266.983 128.876C267.346 125.436 270.256 122.902 273.71 122.902H277.892C281.347 122.902 284.074 125.436 284.438 128.695L286.801 150.961L286.983 152.41C287.347 156.754 284.074 160.194 279.892 160.194Z" fill="#C67D6F"/>
<path d="M279.892 160.194L271.892 160.013C267.892 160.013 264.619 156.573 264.983 152.59L265.165 150.418C265.165 150.78 266.074 154.401 269.71 153.314C273.347 152.047 272.619 151.323 276.074 151.323C279.528 151.323 278.801 152.047 282.256 153.495C285.347 154.582 286.438 152.047 286.801 151.142L286.983 152.59C287.347 156.754 284.074 160.194 279.892 160.194Z" fill="#C67D6F"/>
<path d="M300.438 117.471C299.347 117.471 298.438 116.746 298.074 115.66C297.529 114.212 298.256 112.764 299.711 112.402C300.074 112.221 307.892 109.686 323.165 111.134C324.62 111.316 325.711 112.583 325.529 114.031C325.347 115.479 324.075 116.565 322.62 116.384C308.62 115.117 301.347 117.29 301.347 117.471C300.983 117.471 300.801 117.471 300.438 117.471Z" fill="#2B251D"/>
<path d="M256.619 120.729C256.256 120.729 255.892 120.729 255.528 120.548C255.346 120.548 249.164 118.014 237.164 120.186C235.71 120.367 234.437 119.462 234.073 118.014C233.892 116.566 234.801 115.298 236.255 114.936C250.074 112.402 257.346 115.479 257.71 115.66C258.983 116.203 259.71 117.833 258.983 119.1C258.619 120.005 257.71 120.729 256.619 120.729Z" fill="#2B251D"/>
<path opacity="0.68" d="M293.711 121.272C296.075 123.263 298.62 124.893 301.166 126.16C303.711 127.427 306.438 128.151 308.984 128.332C309.347 128.332 309.711 128.332 309.893 128.332L310.802 128.151C311.529 128.151 312.075 128.151 312.802 127.789C313.529 127.608 314.075 127.427 314.802 127.246C315.348 126.884 316.075 126.703 316.802 126.341C317.529 126.16 318.075 125.798 318.62 125.436L320.439 124.349C321.711 123.444 322.802 122.539 324.257 121.815C323.53 123.082 322.62 124.349 321.711 125.617L320.075 127.246C319.529 127.789 318.984 128.332 318.257 128.694C315.711 130.686 312.257 131.591 308.984 131.591C305.529 131.591 302.438 130.142 299.893 128.332C296.984 126.522 294.984 124.168 293.711 121.272Z" fill="#D69383"/>
<path opacity="0.68" d="M233.891 123.806C236.073 125.255 238.255 126.703 240.437 127.789C242.618 128.875 244.8 129.78 246.982 129.961C249.164 130.324 251.164 129.78 253.346 128.694C255.346 127.608 257.346 125.979 259.164 124.168C258.437 126.703 256.982 129.056 254.801 130.867C253.71 131.772 252.437 132.496 250.982 132.858C249.528 133.22 248.073 133.401 246.619 133.22C243.709 132.858 241.164 131.41 238.982 129.78C236.8 128.332 235.164 126.341 233.891 123.806Z" fill="#D69383"/>
<path d="M270.074 119.281C268.437 119.824 266.983 119.462 265.892 118.738C264.619 118.195 263.71 117.109 262.983 116.022C262.255 114.755 261.892 113.488 262.074 112.04C262.074 110.772 262.801 109.324 263.892 108.238H264.256C264.256 109.324 264.437 110.41 264.801 111.316C264.983 112.402 265.528 113.307 266.074 114.212C266.619 115.117 267.165 116.022 267.892 116.746C268.619 117.471 269.347 118.195 270.256 118.919L270.074 119.281Z" fill="#D69383"/>
<path d="M304.255 165.444C305.709 165.806 306.8 166.53 307.891 167.435C308.982 168.159 309.891 169.246 310.8 170.151C311.709 171.237 312.437 172.323 312.982 173.59C313.528 174.857 313.891 176.125 314.073 177.573H313.891C312.8 175.22 311.164 173.228 309.528 171.056C307.709 169.427 306.073 167.435 304.255 165.444Z" fill="#D69383"/>
<path d="M249.346 165.625C248.255 167.435 246.801 169.064 245.528 170.512C244.255 171.961 242.801 173.409 241.528 175.038C241.528 173.952 241.891 172.866 242.437 171.961C242.982 171.055 243.528 170.15 244.255 169.426C244.982 168.702 245.71 167.978 246.619 167.254C247.346 166.53 248.255 165.987 249.346 165.625Z" fill="#D69383"/>
<path d="M262.801 188.072C265.165 188.253 267.165 188.615 269.165 188.796C271.165 188.977 272.983 189.34 274.801 189.34C276.62 189.521 278.438 189.34 280.256 189.34C282.074 189.158 284.074 188.977 286.438 188.615C285.347 190.788 283.529 192.236 281.347 193.322C279.165 194.408 276.801 194.77 274.438 194.589C272.074 194.408 269.71 193.684 267.71 192.598C265.71 191.693 263.892 190.245 262.801 188.072Z" fill="#D69383"/>
<path d="M275.71 235.503H272.437C272.255 233.873 272.074 232.425 271.892 230.796C271.71 228.262 271.71 225.727 271.71 223.193C271.71 218.124 271.892 213.055 272.437 207.986C272.619 213.055 272.983 218.124 273.528 223.012C273.892 225.546 274.256 227.899 274.619 230.434C274.801 232.063 275.165 233.873 275.71 235.503Z" fill="#E2A491"/>
<path d="M245.891 169.788C248.437 170.693 250.982 171.418 253.528 171.961C256.073 172.504 258.619 172.866 261.346 173.047C263.892 173.228 266.437 173.59 269.164 173.59L272.983 173.771H276.983C282.255 173.952 287.346 173.771 292.619 173.409C295.165 173.228 297.892 173.047 300.437 172.504C302.983 172.142 305.71 171.599 308.074 170.693L308.256 171.056C306.074 172.685 303.528 173.59 300.801 174.314C298.256 175.038 295.528 175.762 292.983 176.124C287.71 177.03 282.255 177.211 276.801 177.211C271.346 177.03 266.073 176.667 260.801 175.581C258.073 175.038 255.528 174.314 252.982 173.409C250.437 172.504 247.891 171.418 245.709 169.788H245.891Z" fill="#353334"/>
<path d="M369.893 147.521C367.166 152.952 362.075 163.633 358.62 171.96C353.711 183.546 342.438 182.098 342.438 182.098C343.711 177.21 344.802 148.426 345.348 137.022C345.529 133.944 346.62 131.048 348.62 128.875L350.257 126.884C359.166 120.367 363.893 130.142 363.893 130.142L369.893 140.461C370.984 142.452 370.984 145.168 369.893 147.521Z" fill="#DB9A8A"/>
<path d="M297.893 110.23C299.529 108.962 301.529 108.238 303.347 107.695C305.347 107.152 307.347 106.79 309.347 106.609C310.438 106.609 311.347 106.609 312.438 106.609C313.529 106.79 314.438 106.79 315.529 106.971C317.529 107.333 319.529 108.057 321.166 109.143V109.324C319.347 108.962 317.347 108.6 315.347 108.419C313.347 108.238 311.529 108.238 309.529 108.419C305.711 108.6 301.711 109.143 297.893 110.23Z" fill="#D69383"/>
<path d="M258.437 113.668C256.618 113.125 254.982 112.763 253.164 112.582C251.346 112.401 249.709 112.22 247.891 112.22C246.073 112.039 244.255 112.22 242.618 112.22H239.891C238.982 112.22 238.073 112.22 237.164 112.22C238.8 111.496 240.618 110.953 242.436 110.772C244.255 110.41 246.073 110.41 247.891 110.41C249.709 110.591 251.527 110.772 253.346 111.315C255.346 111.858 256.982 112.582 258.437 113.668Z" fill="#D69383"/>
<path d="M279.347 158.926C279.347 158.926 281.529 155.306 285.529 155.487C285.529 155.487 284.438 159.651 279.347 158.926Z" fill="#353334"/>
<path d="M272.619 158.746C272.619 158.746 270.619 154.944 266.619 155.125C266.619 155.125 267.528 159.289 272.619 158.746Z" fill="#353334"/>
<path d="M237.346 60.6269C235.891 62.6182 234.8 64.9716 234.618 67.506L233.527 79.8161C233.164 83.7988 231.891 87.6005 229.527 91.04L222.073 102.445C221.891 102.807 221.709 102.988 221.527 103.35C218.8 107.695 217.345 112.402 216.982 117.471L215.891 131.591C214.982 125.617 213.891 120.005 212.982 114.755C211.345 106.971 209.709 100.092 208.072 93.9365C205.345 83.7988 202.8 76.0145 201.163 71.1267C199.891 67.506 200.618 63.7044 203.163 60.8079L216.073 45.7824L216.436 42.7048C216.982 44.5151 219.891 48.8599 234.073 56.8252C235.346 57.5494 236.618 58.9976 237.346 60.6269Z" fill="#26201B"/>
<path d="M330.802 86.6956C330.802 87.9632 330.802 88.6876 330.802 88.6876C330.62 88.3254 330.62 87.9632 330.438 87.7821C330.438 87.4199 330.62 87.0577 330.802 86.6956Z" fill="#96732D"/>
<path d="M369.893 60.2649C369.529 62.2562 369.347 64.7907 368.984 67.5061C368.802 64.0665 369.166 61.7131 369.893 60.2649Z" fill="#96732D"/>
<path d="M351.348 175.219C351.348 175.219 352.621 169.969 349.893 165.987C349.348 165.082 348.62 164.357 347.53 163.633C347.53 163.633 346.257 144.625 348.984 135.574C349.711 132.858 350.802 131.048 352.439 130.867C359.348 129.962 365.712 135.574 366.621 143.358C367.348 150.961 358.257 168.34 351.348 175.219Z" fill="#C67D6F"/>
<path d="M358.075 151.504C356.257 158.021 352.984 162.909 349.711 166.168C349.166 165.262 348.438 164.538 347.347 163.814C347.347 163.814 346.075 144.806 348.802 135.754C348.802 135.754 362.075 137.022 358.075 151.504Z" fill="#A05A50"/>
<path opacity="0.39" d="M147.267 514.315C147.267 514.134 147.449 514.133 147.449 513.952C147.449 514.133 147.449 514.134 147.267 514.315Z" fill="#565656"/>
<path opacity="0.39" d="M148.904 511.237C148.904 511.056 149.086 511.056 149.086 510.875C148.904 511.056 148.904 511.056 148.904 511.237Z" fill="#565656"/>
<path opacity="0.39" d="M149.449 509.97C149.449 509.788 149.631 509.607 149.631 509.607C149.631 509.789 149.631 509.788 149.449 509.97Z" fill="#565656"/>
<path opacity="0.39" d="M131.267 450.048L129.449 446.79C129.995 447.876 130.54 448.962 131.267 450.048Z" fill="#565656"/>
<path opacity="0.39" d="M136.358 537.305C136.358 537.305 136.358 537.124 136.54 537.124C136.903 536.219 137.449 535.133 137.812 534.228C137.812 534.228 137.812 534.228 137.812 534.047C138.176 533.142 138.54 532.237 139.085 531.512C139.267 531.331 139.267 530.969 139.449 530.788C139.812 530.064 140.176 529.34 140.54 528.435C140.722 528.073 140.903 527.892 140.903 527.53C141.085 526.987 141.449 526.444 141.631 525.9C141.813 525.538 141.994 524.995 142.176 524.633C142.358 524.09 142.54 523.728 142.903 523.366C143.085 523.004 143.267 522.642 143.449 522.28C143.631 521.737 143.994 521.194 144.176 520.651C144.358 520.289 144.54 519.926 144.722 519.564C144.904 519.383 144.903 519.202 145.085 519.021C145.449 518.297 145.631 517.754 145.994 517.211C145.994 517.03 146.176 516.849 146.176 516.849C148.722 511.961 150.358 508.703 150.722 507.978C150.54 508.159 150.358 508.703 149.994 509.427C150.54 508.34 150.904 507.797 150.904 507.797C150.904 507.797 147.085 497.298 142.54 484.625C138.722 473.945 134.54 461.816 131.994 453.488C131.449 451.497 130.54 449.324 129.63 447.152C129.63 447.152 85.4481 530.788 86.7208 581.296C87.9935 631.26 107.994 681.044 75.2661 726.663C75.9934 725.758 76.7207 724.853 77.448 723.948C109.267 685.751 104.357 648.096 108.903 614.062C111.267 597.045 121.63 570.434 131.631 548.167C133.267 544.366 134.903 540.745 136.54 537.305C136.358 537.124 136.358 537.305 136.358 537.305Z" fill="#565656"/>
<path opacity="0.39" d="M139.085 531.331C139.085 531.15 139.267 531.15 139.267 530.969C139.267 531.15 139.085 531.15 139.085 531.331Z" fill="#565656"/>
<path opacity="0.39" d="M155.631 519.202C155.631 519.383 155.813 519.383 155.813 519.564C155.813 519.564 155.813 519.383 155.631 519.202Z" fill="#565656"/>
<path opacity="0.39" d="M140.54 528.254C140.54 528.254 140.54 528.073 140.722 528.073C140.54 528.073 140.54 528.254 140.54 528.254Z" fill="#565656"/>
<path opacity="0.39" d="M146.358 516.306C146.358 516.124 146.54 516.124 146.54 515.943C146.54 515.943 146.358 516.124 146.358 516.306Z" fill="#565656"/>
<path opacity="0.39" d="M144.358 520.47C144.358 520.47 144.358 520.288 144.54 520.288C144.358 520.288 144.358 520.47 144.358 520.47Z" fill="#565656"/>
<path opacity="0.39" d="M143.085 523.004C143.085 523.004 143.085 522.823 143.267 522.823C143.085 522.823 143.085 522.823 143.085 523.004Z" fill="#565656"/>
<path opacity="0.39" d="M93.5199 880.598C74.2469 836.246 56.4286 860.685 45.883 832.625C34.7919 802.755 59.3377 758.403 59.3377 758.403C51.7012 779.764 50.2467 801.126 50.0649 813.436C50.0649 819.953 52.4285 826.108 56.974 830.815L78.6107 853.263C81.5199 856.159 83.8835 859.418 85.8836 862.857C86.429 863.581 86.7926 864.487 87.3381 865.392C88.429 867.564 89.5199 869.918 90.2472 872.271C91.3381 874.624 92.2472 877.521 93.5199 880.598Z" fill="#757575"/>
<path opacity="0.39" d="M89.8295 922.02L83.2839 936.684C80.9202 941.933 75.4656 944.83 69.8292 944.106L33.1014 938.856C28.0104 938.132 23.6467 935.597 20.7376 931.796C18.0103 928.537 16.5556 924.373 16.5556 920.029C16.5556 917.132 16.192 914.236 15.6465 911.882C13.101 903.012 2.19185 882.012 4.91916 855.401C5.2828 852.685 5.46461 849.427 5.64643 845.806C5.64643 845.806 14.192 908.443 40.7379 915.322C66.9201 922.02 70.9201 944.468 89.8295 922.02Z" fill="#757575"/>
<path opacity="0.36" d="M60.9707 716.82C60.9707 716.82 39.1522 664.502 13.1519 631.916C14.4246 627.934 16.061 623.951 17.6974 619.968C30.4248 638.433 59.1525 683.51 60.9707 716.82Z" fill="#757575"/>
<path d="M8.4339 681.562C12.0703 694.596 14.0703 707.45 16.2522 720.303C17.3431 726.639 18.0704 732.975 18.9795 739.311C19.3431 742.388 19.8886 745.647 20.2523 748.725C20.6159 751.983 21.1613 755.423 21.3431 758.681C22.4341 772.077 22.2523 785.293 21.1614 798.508C20.6159 805.025 19.7068 811.542 18.7977 818.059C17.7068 824.576 16.6158 830.912 15.8885 837.611L14.7976 837.792C13.5249 831.275 13.343 824.757 13.1612 818.24L12.7976 798.689C12.6158 785.655 12.0704 772.621 10.9794 759.586C10.434 753.069 9.5248 746.552 8.97934 740.035C8.43388 733.518 8.07027 727.001 7.70663 720.484C7.34299 713.967 7.16113 707.45 7.16113 700.932C7.16113 694.415 7.16114 687.898 7.34296 681.381L8.4339 681.562Z" fill="#EF6767"/>
<path opacity="0.48" d="M65.2454 471.982C66.3363 468.362 66.5182 462.75 66.1545 456.957C65.9727 454.784 65.7909 452.612 65.6091 450.259C64.5182 441.388 62.8818 432.518 61.7909 428.173C60.3363 422.199 58.3363 394.863 69.9728 371.872C69.6092 373.683 60.3363 417.13 97.4277 427.63C97.4277 427.63 59.7908 494.611 52.1543 530.998C55.7907 513.438 59.7908 494.611 62.5181 482.844C63.7908 477.594 64.7 473.793 65.2454 471.982Z" fill="#757575"/>
<path opacity="0.29" d="M453.66 517.829C446.933 530.139 438.569 543.173 428.932 554.759C423.841 560.733 420.75 568.155 420.023 575.939C418.932 589.336 417.296 612.146 416.569 638.033C416.569 638.033 402.568 639.843 387.477 665.55C372.386 691.256 317.113 751.358 286.021 749.91C255.112 748.462 212.384 685.644 192.384 653.783C189.474 649.076 186.747 644.55 184.202 640.205C186.202 620.111 187.111 603.637 185.838 596.396C185.474 594.586 185.292 592.594 185.111 590.603C184.383 583.543 182.202 569.241 176.383 561.819C178.747 563.991 186.747 568.336 207.838 556.207C223.657 547.155 248.384 531.406 266.203 519.82C278.385 512.036 294.385 513.122 305.112 522.535C326.567 541.362 361.84 569.241 380.568 567.974C408.568 566.164 438.569 541.544 453.66 517.829Z" fill="#757575"/>
<path opacity="0.28" d="M472.077 1087.8C463.895 1024.62 456.804 1037.83 449.895 942.066C442.804 845.214 406.44 772.802 397.712 749.449C388.985 726.096 391.894 617.84 401.167 568.237C410.258 519.359 466.077 446.223 467.713 443.869C466.44 452.921 473.713 470.3 474.259 471.386C474.259 471.567 474.077 471.748 474.077 471.929C471.895 477.541 466.077 491.48 458.44 506.325C456.986 509.221 455.349 512.118 453.713 515.014C453.713 515.014 453.713 515.014 453.713 515.195C451.531 518.997 449.349 522.98 446.804 526.781C445.895 528.41 444.804 529.859 443.895 531.488C443.349 532.212 442.804 533.117 442.44 533.841C441.713 535.109 440.804 536.376 439.895 537.462C438.804 539.091 437.531 540.721 436.44 542.531C436.076 543.074 435.531 543.617 435.167 544.341C434.622 545.246 433.894 545.97 433.167 546.876C432.804 547.238 432.44 547.781 432.076 548.324C430.985 549.591 430.076 550.858 428.985 552.306C423.894 558.281 420.803 565.703 420.076 573.487C420.076 574.392 419.894 575.116 419.894 576.203C419.894 576.384 419.894 576.384 419.894 576.565C419.894 577.651 419.713 578.737 419.713 579.823C419.713 580.547 419.531 581.271 419.531 582.177C419.531 582.72 419.531 583.263 419.349 583.806C419.349 584.892 419.167 585.978 419.167 587.064C418.985 588.151 418.985 589.418 418.985 590.504C418.985 591.228 418.803 592.133 418.803 592.857C418.803 593.944 418.622 595.03 418.622 596.116C418.622 596.84 418.44 597.383 418.44 598.107C418.44 598.831 418.44 599.374 418.258 600.099C417.894 604.986 417.712 610.417 417.349 616.029C417.349 616.934 417.349 617.659 417.167 618.564C417.167 620.374 416.985 622.184 416.985 623.995C416.985 625.443 416.803 626.891 416.803 628.339C416.803 629.245 416.803 630.15 416.803 631.055C416.803 631.598 416.803 632.141 416.803 632.865C416.803 633.951 416.803 634.856 416.622 635.943C416.622 637.21 416.622 638.477 416.44 639.744C415.712 672.511 416.44 709.622 421.531 738.406C421.713 739.311 421.894 740.216 422.258 740.94C426.258 751.621 454.077 829.645 461.713 901.153C468.44 964.332 471.168 1053.22 471.895 1083.27C471.895 1083.99 471.895 1084.9 472.077 1085.62C472.077 1086.17 472.077 1086.71 472.259 1087.25C472.077 1087.43 472.077 1087.61 472.077 1087.8Z" fill="#757575"/>
<path d="M539.351 371.639C539.169 371.276 539.169 371.094 539.169 371.094C539.351 371.276 539.351 371.457 539.351 371.639Z" fill="#757575"/>
<path opacity="0.48" d="M575.064 466.008C551.063 432.156 488.881 416.949 488.881 416.949C547.064 422.561 541.972 382.553 539.609 371.872C541.791 380.924 542.882 391.424 542.7 403.734C542.7 403.734 565.609 447 572.337 460.215C573.064 461.482 573.973 463.474 575.064 466.008Z" fill="#757575"/>
<path opacity="0.39" d="M52.1543 583.584L87.0639 575.618C91.064 574.713 95.064 577.61 95.4276 581.773L97.9732 616.35C97.9732 616.35 95.7913 594.084 52.1543 583.584Z" fill="#757575"/>
<path opacity="0.39" d="M544.658 581.263C544.658 582.892 552.295 545.962 583.386 530.936L538.477 532.746C538.658 532.746 545.386 544.151 544.658 581.263Z" fill="#757575"/>
<path opacity="0.36" d="M588.541 651.455L541.086 713.187C540.177 710.29 539.449 707.756 538.54 705.04C538.358 704.497 538.176 703.954 537.995 703.411L588.541 651.455Z" fill="#757575"/>
<path opacity="0.39" d="M603.71 648.741C602.255 651.275 564.437 713.369 547.709 741.428C546.618 735.998 545.527 730.748 544.254 725.498L603.71 648.741Z" fill="#757575"/>
<path d="M602.988 679.39C604.624 688.441 605.169 697.493 605.351 706.364C605.533 715.415 605.169 724.286 604.442 733.156C603.715 742.027 602.624 750.897 600.806 759.768C598.988 768.638 596.988 777.509 593.169 785.836C592.624 776.603 592.442 767.733 592.624 758.862C592.806 749.992 593.169 741.121 593.897 732.251C594.624 723.38 595.715 714.51 596.988 705.639C598.442 696.95 600.26 688.079 602.988 679.39Z" fill="#EF6767"/>
<path opacity="0.39" d="M575.801 914.241L567.074 920.758C561.983 924.559 555.437 925.646 549.437 923.654C540.164 920.758 527.073 916.051 523.8 912.792C523.8 912.792 512.891 910.801 508.345 898.129C505.8 890.888 506.709 884.552 506.709 877.491C506.709 875.862 506.709 874.233 506.527 872.604C506.345 868.621 505.436 864.457 503.618 859.569C503.254 858.664 502.545 857.84 502.363 856.935C501.818 850.961 506.709 844.906 512.164 839.656L519.982 833.32C519.982 833.32 504.527 852.328 507.618 854.863C507.618 854.863 506.345 885.276 515.073 891.431C515.073 891.431 521.437 901.387 533.073 905.37C533.073 905.37 544.164 922.93 557.619 916.413C557.983 916.232 565.437 917.68 575.801 914.241Z" fill="#757575"/>
<path opacity="0.39" d="M562.6 796.071C559.327 831.01 509.508 832.277 503.326 850.743C505.872 838.07 528.236 825.579 533.145 822.864C533.69 822.502 534.236 822.321 534.236 822.321C534.236 822.321 557.145 813.631 555.327 792.994C554.236 780.503 551.327 759.684 547.145 739.047C546.054 733.616 544.963 728.366 543.69 723.116C543.69 722.935 565.872 761.132 562.6 796.071Z" fill="#757575"/>
<path opacity="0.39" d="M533.164 597.94C533.164 597.94 529.528 580.924 517.164 563.183C508.255 550.329 492.8 524.985 482.618 498.917C481.891 496.925 481.163 495.115 480.436 493.124C478.618 488.236 477.163 483.348 475.891 478.641C475.345 476.469 474.8 474.478 474.436 472.305C478.982 484.434 502.618 539.105 556.983 537.295C562.801 537.114 567.165 542.726 565.528 548.338C558.255 572.777 542.073 629.078 534.073 679.223C531.891 648.086 536.437 606.811 533.164 597.94Z" fill="#757575"/>
<path opacity="0.38" d="M335.711 1360.61L335.347 1360.79C333.529 1286.75 303.892 1210.35 292.438 1183.38C289.892 1177.59 289.529 1171.07 291.347 1165.1C298.983 1139.75 291.347 1100.83 286.619 1078.2C282.438 1058.65 254.619 1059.37 241.892 1060.64C302.983 1046.52 302.074 872.73 302.074 872.73C302.074 872.73 309.711 969.944 301.892 1051.41C301.347 1057.2 300.983 1062.99 300.983 1068.97C300.983 1084.17 302.256 1114.23 308.983 1147.72C311.711 1160.75 315.165 1174.51 319.711 1187.9C341.348 1251.27 340.257 1256.52 335.893 1324.04C335.166 1336.71 335.166 1349.02 335.711 1360.61Z" fill="#757575"/>
<path opacity="0.38" d="M321.165 1436.46C303.165 1427.41 278.983 1435.74 275.528 1435.56C278.801 1433.38 277.346 1423.06 273.346 1408.04C277.71 1412.93 282.983 1417.09 289.346 1419.08C314.074 1426.68 321.165 1436.46 321.165 1436.46Z" fill="#757575"/>
<path opacity="0.38" d="M506.986 1492.04C506.44 1491.67 497.168 1487.15 476.076 1487.33C462.622 1487.51 482.622 1478.82 499.895 1472.3C499.895 1475.93 500.44 1479.36 501.531 1482.8C502.622 1486.06 504.44 1489.68 506.986 1492.04Z" fill="#757575"/>
<path opacity="0.6" d="M246.438 1246.92C249.347 1258.33 251.71 1269.73 254.256 1280.95C256.801 1292.18 259.347 1303.4 261.892 1314.63C262.438 1317.34 263.165 1320.24 263.892 1322.95L265.892 1331.28C267.347 1336.89 268.62 1342.51 270.074 1348.12C272.62 1359.34 275.711 1370.38 278.074 1382.15C271.711 1372.19 266.438 1361.69 262.074 1350.65C259.892 1345.22 258.074 1339.61 256.256 1334C254.62 1328.39 252.983 1322.77 251.71 1316.98C248.983 1305.58 247.165 1293.99 246.074 1282.22C245.165 1270.46 244.983 1258.69 246.438 1246.92Z" fill="white"/>
<path opacity="0.6" d="M504.623 1352.64C503.532 1340.88 502.805 1329.29 502.077 1317.88C501.35 1306.3 500.623 1294.89 499.714 1283.49C499.532 1280.59 499.35 1277.7 498.986 1274.98L498.259 1266.47C497.714 1260.68 497.35 1255.07 496.804 1249.27C495.895 1237.69 494.623 1226.28 494.077 1214.52C498.804 1225.38 502.441 1236.6 504.986 1248.01C506.441 1253.8 507.168 1259.59 508.259 1265.39C508.987 1271.18 509.714 1276.97 510.077 1282.95C510.987 1294.71 510.987 1306.48 510.259 1318.07C509.532 1329.47 507.896 1341.24 504.623 1352.64Z" fill="white"/>
<path opacity="0.34" d="M456.441 1213.61L401.167 1189.9C400.803 1186.82 400.44 1183.56 400.076 1180.3L456.441 1213.61Z" fill="#757575"/>
<path opacity="0.34" d="M265.528 1229.36L233.164 1205.47C232.982 1200.22 232.982 1195.33 232.982 1190.8L265.528 1229.36Z" fill="#757575"/>
<path opacity="0.28" d="M215.346 1091.23C200.982 1066.8 168.436 1026.43 164.799 936.815C162.072 866.032 162.981 818.964 164.618 791.267C164.618 791.448 161.89 978.996 215.346 1091.23Z" fill="#757575"/>
<path opacity="0.14" d="M358.237 1459.49C365.51 1472.34 368.964 1493.71 363.51 1501.13C358.055 1508.37 315.509 1515.07 276.054 1513.08C236.599 1511.08 179.689 1550.19 146.052 1517.24C146.052 1517.24 135.506 1505.47 200.235 1490.99C211.326 1488.46 222.053 1483.75 231.144 1477.05C233.326 1475.42 235.144 1473.97 235.872 1472.89C238.962 1468.54 264.054 1443.74 275.69 1436.14C287.145 1428.53 238.962 1317.56 236.417 1262.35C236.417 1262.35 235.144 1245.33 234.053 1226.14C233.69 1217.27 233.326 1207.86 233.144 1199.35C233.144 1192.29 233.144 1186.13 233.508 1181.43C233.69 1179.98 233.69 1178.53 233.69 1177.08C234.599 1154.27 229.508 1120.6 218.78 1098.15C217.871 1096.16 216.598 1093.99 215.326 1091.64C204.78 1073.71 184.416 1047.1 172.961 998.587C168.78 981.208 165.871 960.932 164.961 937.217C164.052 911.692 163.507 889.244 163.325 869.693L305.509 970.708C305.509 977.949 305.509 985.19 305.327 992.613C304.963 1012.16 303.872 1032.26 302.054 1051.63C301.872 1053.98 301.691 1056.34 301.509 1058.69C301.327 1062.13 301.145 1065.57 301.327 1069.19C301.327 1084.4 302.6 1114.45 309.327 1147.94C310.963 1156.45 313.145 1164.95 315.509 1173.64C316.964 1178.53 318.418 1183.42 320.055 1188.13C321.145 1191.57 322.236 1194.64 323.327 1197.72C341.509 1252.21 340.418 1260.18 336.418 1324.26C335.509 1336.93 335.691 1349.06 336.237 1360.65C338.782 1410.79 352.419 1449.17 358.237 1459.49Z" fill="#757575"/>
<path opacity="0.14" d="M570.183 1576.93C551.455 1596.3 511.819 1578.02 470.545 1557.2C470.545 1557.2 438.363 1543.08 438.545 1531.31C438.727 1519.54 443.454 1524.43 442.545 1457.09C441.636 1389.75 441.09 1343.95 432.545 1317.15C424.363 1291.99 404.726 1243.47 398.908 1166.35C398.544 1161.1 398.181 1155.67 397.999 1150.06C397.999 1150.06 394.726 1135.94 389.271 1124.54C386.18 1118.02 373.271 1098.83 361.271 1072.22C353.816 1055.74 346.725 1036.37 342.543 1015.37C340.907 1007.41 339.089 999.444 336.725 991.841L472 1087.97C472.545 1092.67 473.818 1097.38 475.454 1101.91C478.364 1109.15 482.545 1120.55 487.455 1134.49C503.273 1180.47 525.091 1255.06 521.273 1308.1C516.364 1376.35 504.364 1442.24 500.546 1462.16C499.273 1468.68 499.455 1475.37 501.455 1481.71C502.546 1485.33 504.182 1488.77 506.728 1491.12C514 1497.82 527.819 1515.56 538.183 1526.24C548.546 1536.74 588.911 1557.74 570.183 1576.93Z" fill="#757575"/>
<path d="M244.326 360L211 401.457L287 496L363 401.457L329.674 360H244.326Z" fill="black"/>
<path d="M244.326 360L211 401.457L287 496L363 401.457L329.674 360H244.326Z" fill="black"/>
<path d="M252.234 364.25L224.218 397.762L287.102 485.375L349.784 397.762L324.59 364.25H252.234Z" fill="#EAC734"/>
<path d="M252.234 364.25L224.218 397.762L287.102 485.375L349.784 397.762L324.59 364.25H252.234Z" fill="#ECD400"/>
<path d="M283.23 383.995C282.83 383.995 282.45 383.955 282.09 383.875C281.73 383.795 281.41 383.668 281.13 383.495C280.856 383.315 280.64 383.092 280.48 382.825C280.326 382.552 280.25 382.222 280.25 381.835C280.25 381.802 280.25 381.768 280.25 381.735C280.25 381.695 280.253 381.665 280.26 381.645H281.74C281.733 381.665 281.73 381.692 281.73 381.725C281.73 381.758 281.73 381.788 281.73 381.815C281.73 382.028 281.786 382.208 281.9 382.355C282.02 382.502 282.193 382.612 282.42 382.685C282.646 382.758 282.91 382.795 283.21 382.795C283.403 382.795 283.573 382.785 283.72 382.765C283.873 382.738 284.006 382.705 284.12 382.665C284.24 382.618 284.336 382.565 284.41 382.505C284.49 382.445 284.546 382.375 284.58 382.295C284.62 382.215 284.64 382.125 284.64 382.025C284.64 381.845 284.58 381.698 284.46 381.585C284.346 381.472 284.186 381.375 283.98 381.295C283.78 381.215 283.553 381.142 283.3 381.075C283.046 381.008 282.786 380.942 282.52 380.875C282.253 380.802 281.993 380.715 281.74 380.615C281.486 380.508 281.26 380.382 281.06 380.235C280.86 380.088 280.7 379.902 280.58 379.675C280.46 379.448 280.4 379.175 280.4 378.855C280.4 378.515 280.47 378.222 280.61 377.975C280.756 377.728 280.96 377.525 281.22 377.365C281.48 377.205 281.78 377.088 282.12 377.015C282.46 376.935 282.83 376.895 283.23 376.895C283.603 376.895 283.956 376.935 284.29 377.015C284.623 377.088 284.916 377.208 285.17 377.375C285.423 377.542 285.62 377.752 285.76 378.005C285.906 378.258 285.98 378.558 285.98 378.905V379.025H284.53V378.945C284.53 378.765 284.476 378.612 284.37 378.485C284.263 378.358 284.113 378.258 283.92 378.185C283.726 378.112 283.5 378.075 283.24 378.075C282.96 378.075 282.72 378.102 282.52 378.155C282.326 378.208 282.176 378.288 282.07 378.395C281.97 378.495 281.92 378.615 281.92 378.755C281.92 378.915 281.976 379.048 282.09 379.155C282.21 379.255 282.37 379.345 282.57 379.425C282.776 379.498 283.006 379.565 283.26 379.625C283.513 379.685 283.773 379.752 284.04 379.825C284.306 379.898 284.566 379.985 284.82 380.085C285.073 380.185 285.3 380.312 285.5 380.465C285.7 380.612 285.86 380.795 285.98 381.015C286.1 381.235 286.16 381.498 286.16 381.805C286.16 382.332 286.033 382.755 285.78 383.075C285.526 383.395 285.18 383.628 284.74 383.775C284.3 383.922 283.796 383.995 283.23 383.995ZM291.272 383.875V377.015H294.842C295.336 377.015 295.746 377.108 296.072 377.295C296.406 377.475 296.656 377.732 296.822 378.065C296.996 378.392 297.082 378.782 297.082 379.235C297.082 379.688 296.992 380.085 296.812 380.425C296.639 380.758 296.382 381.018 296.042 381.205C295.702 381.392 295.286 381.485 294.792 381.485H292.762V383.875H291.272ZM292.762 380.265H294.592C294.906 380.265 295.146 380.175 295.312 379.995C295.486 379.815 295.572 379.565 295.572 379.245C295.572 379.025 295.536 378.842 295.462 378.695C295.389 378.548 295.279 378.435 295.132 378.355C294.992 378.275 294.812 378.235 294.592 378.235H292.762V380.265Z" fill="#96001F"/>
<path d="M261.106 441.86C264.536 446.428 267.488 451.149 271.091 455.656C274.78 460.254 278.817 464.792 281.422 469.756C281.813 470.487 280.467 470.791 279.989 470.152C276.69 465.675 273.348 461.229 269.875 456.813C266.142 452.062 263.147 447.129 259.761 442.256C259.24 441.556 260.629 441.251 261.106 441.86Z" fill="#26201B"/>
<path d="M248.145 370.39C244.82 374.414 241.958 378.572 238.464 382.543C234.886 386.594 230.971 390.591 228.446 394.964C228.067 395.608 229.372 395.877 229.835 395.313C233.034 391.369 236.275 387.453 239.642 383.563C243.263 379.377 246.167 375.031 249.45 370.739C249.955 370.122 248.608 369.853 248.145 370.39Z" fill="#26201B"/>
<path d="M311.666 441.935C308.173 446.491 305.166 451.199 301.496 455.694C297.737 460.281 293.625 464.806 290.972 469.757C290.574 470.486 291.945 470.79 292.431 470.152C295.792 465.687 299.197 461.252 302.734 456.848C306.537 452.11 309.588 447.189 313.037 442.329C313.567 441.631 312.152 441.327 311.666 441.935Z" fill="#26201B"/>
<path d="M325.871 370.455C328.782 374.475 331.287 378.63 334.346 382.596C337.478 386.643 340.905 390.636 343.116 395.005C343.447 395.648 342.305 395.916 341.9 395.353C339.099 391.413 336.262 387.5 333.314 383.614C330.145 379.434 327.602 375.092 324.728 370.804C324.286 370.187 325.465 369.919 325.871 370.455Z" fill="#26201B"/>
<path d="M286.893 419.783C286.03 418.476 285.446 417.103 285.204 415.701V414.866L285.05 414.124L285.191 413.103C285.493 408.965 288.566 405.291 292.914 402.156C294.04 401.344 296.507 399.832 297.832 399.148C298.187 398.965 299.316 398.345 299.68 398.273C300.179 398.174 300.45 398.416 300.704 398.632L302.335 400.3C304.106 402.323 305.8 405.521 305.845 407.815V409.392C305.845 409.564 305.865 409.86 305.757 410.014C305.538 410.323 303.626 411.041 303.071 411.291C301.049 412.204 297.983 413.757 296.318 414.866C294.734 415.92 293.321 416.941 291.98 418.113C291.381 418.637 290.455 419.686 289.82 420.061C289.946 418.401 291.296 416.388 292.66 414.959L294.134 413.567C292.025 414.837 290.207 415.896 288.657 417.463L286.893 419.783ZM264.397 402.712C265.38 402.913 266.97 403.765 267.786 404.201C269.788 405.269 271.437 406.129 273.222 407.351C278.769 411.145 282.846 415.01 284.362 420.061C284.93 421.954 284.926 423.265 284.889 425.164C284.866 426.286 284.238 428.438 283.7 429.524C283.449 430.033 283.185 430.718 282.578 431.101C282.336 430.158 281.552 429.231 280.772 428.411C278.837 426.374 275.344 424.193 272.409 422.659C273.714 423.833 274.953 424.699 276.067 425.999C277.715 427.922 278.82 430.056 279.182 432.215V433.05L279.336 433.977L279.202 434.72C279.113 435.51 279.051 436.263 278.726 437.039C277.708 436.804 276.247 436.094 275.336 435.682C273.118 434.679 270.981 433.581 269.019 432.4C265.518 430.291 262.226 427.623 260.215 424.885C254.831 417.553 257.146 409.268 264.397 402.712ZM286.584 434.07C286.142 433.659 285.973 432.102 285.968 431.565C285.953 429.6 286.273 427.723 287.067 425.813C289.88 419.032 297.681 413.734 307.385 410.095L312.778 408.255C313.732 407.959 314.667 407.622 315.706 407.444C317.162 409.648 318.741 413.34 318.787 415.701L318.941 417.649L318.787 419.226L318.499 420.896C317.69 424.404 315.518 427.662 312.096 430.545C308.811 433.313 304.442 435.573 299.681 437.38C297.173 438.332 294.389 439.242 291.669 439.954C290.632 440.226 289.373 440.631 288.279 440.75L288.419 439.729C288.894 435.58 291.829 431.788 296.606 428.782C297.789 428.037 299.125 427.389 300.452 426.741C296.852 427.784 291.518 430.113 288.963 431.936C287.782 432.78 287.463 433.143 286.584 434.07ZM294.751 413.196H294.597L294.751 413.289V413.196ZM294.597 413.289H294.442L294.597 413.381V413.289ZM294.442 413.381H294.288L294.442 413.474V413.381ZM294.288 413.474H294.134L294.288 413.567V413.474ZM271.947 422.288H271.793L271.947 422.381V422.288ZM272.101 422.381H271.947L272.101 422.473V422.381ZM272.255 422.473H272.101L272.255 422.566V422.473ZM272.409 422.566H272.255L272.409 422.659V422.566ZM300.914 426.555H300.76L300.914 426.648V426.555ZM300.606 426.648H300.452L300.606 426.741V426.648Z" fill="#004A0C"/>
<path d="M272.409 422.659C275.344 424.193 278.837 426.374 280.772 428.411C281.552 429.231 282.336 430.158 282.578 431.101C283.185 430.718 283.449 430.033 283.7 429.524C284.238 428.438 284.866 426.286 284.889 425.164C284.926 423.265 284.93 421.954 284.362 420.061C282.846 415.01 278.769 411.145 273.222 407.351C271.437 406.129 269.788 405.269 267.786 404.201C266.97 403.765 265.38 402.913 264.397 402.712C257.146 409.268 254.831 417.553 260.215 424.885C262.226 427.623 265.518 430.291 269.019 432.4C270.981 433.581 273.118 434.679 275.336 435.682C276.247 436.094 277.708 436.804 278.726 437.039C279.051 436.263 279.113 435.51 279.202 434.72L279.336 433.977L279.182 433.05V432.215C278.82 430.056 277.715 427.922 276.067 425.999C274.953 424.699 273.714 423.833 272.409 422.659ZM272.409 422.659L272.255 422.566M272.409 422.659V422.566H272.255M271.947 422.381L271.793 422.288H271.947V422.381ZM271.947 422.381H272.101V422.473M271.947 422.381L272.101 422.473M272.101 422.473H272.255V422.566M272.101 422.473L272.255 422.566M286.893 419.783C286.03 418.476 285.446 417.103 285.204 415.701V414.866L285.05 414.124L285.191 413.103C285.493 408.965 288.566 405.291 292.914 402.156C294.04 401.344 296.507 399.832 297.832 399.148C298.187 398.965 299.316 398.345 299.68 398.273C300.179 398.174 300.45 398.416 300.704 398.632L302.335 400.3C304.106 402.323 305.8 405.521 305.845 407.815V409.392C305.845 409.564 305.865 409.86 305.757 410.014C305.538 410.323 303.626 411.041 303.071 411.291C301.049 412.204 297.983 413.757 296.318 414.866C294.734 415.92 293.321 416.941 291.98 418.113C291.381 418.637 290.455 419.686 289.82 420.061C289.946 418.401 291.296 416.388 292.66 414.959L294.134 413.567C292.025 414.837 290.207 415.896 288.657 417.463L286.893 419.783ZM286.584 434.07C286.142 433.659 285.973 432.102 285.968 431.565C285.953 429.6 286.273 427.723 287.067 425.813C289.88 419.032 297.681 413.734 307.385 410.095L312.778 408.255C313.732 407.959 314.667 407.622 315.706 407.444C317.162 409.648 318.741 413.34 318.787 415.701L318.941 417.649L318.787 419.226L318.499 420.896C317.69 424.404 315.518 427.662 312.096 430.545C308.811 433.313 304.442 435.573 299.681 437.38C297.173 438.332 294.389 439.242 291.669 439.954C290.632 440.226 289.373 440.631 288.279 440.75L288.419 439.729C288.894 435.58 291.829 431.788 296.606 428.782C297.789 428.037 299.125 427.389 300.452 426.741C296.852 427.784 291.518 430.113 288.963 431.936C287.782 432.78 287.463 433.143 286.584 434.07ZM294.751 413.196H294.597L294.751 413.289V413.196ZM294.597 413.289H294.442L294.597 413.381V413.289ZM294.442 413.381H294.288L294.442 413.474V413.381ZM294.288 413.474H294.134L294.288 413.567V413.474ZM300.914 426.555H300.76L300.914 426.648V426.555ZM300.606 426.648H300.452L300.606 426.741V426.648Z" stroke="black" stroke-width="0.2"/>
</svg>
