<svg width="315" height="103" viewBox="0 0 315 103" fill="none" xmlns="http://www.w3.org/2000/svg">
<g filter="url(#filter0_d_247_20)">
<path d="M86.7378 0L111.096 28.9591L55.5478 95L0 28.9591L24.3579 0H86.7378Z" fill="black"/>
<path d="M86.7378 0L111.096 28.9591L55.5478 95L0 28.9591L24.3579 0H86.7378Z" fill="black"/>
</g>
<path d="M81.0948 4.45752L101.751 28.3391L55.3864 90.7747L9.1709 28.3391L27.7463 4.45752H81.0948Z" fill="#B80000"/>
<path d="M81.0948 4.45752L101.751 28.3391L55.3864 90.7747L9.1709 28.3391L27.7463 4.45752H81.0948Z" fill="#B80000"/>
<path d="M47.905 23.3694C47.3394 23.3694 46.8021 23.3121 46.2931 23.1975C45.784 23.0829 45.3316 22.9015 44.9357 22.6531C44.5492 22.3953 44.2428 22.0753 44.0166 21.6933C43.7998 21.3017 43.6914 20.829 43.6914 20.275C43.6914 20.2273 43.6914 20.1795 43.6914 20.1318C43.6914 20.0745 43.6961 20.0315 43.7055 20.0028H45.7982C45.7888 20.0315 45.784 20.0697 45.784 20.1174C45.784 20.1652 45.784 20.2082 45.784 20.2464C45.784 20.552 45.8642 20.8099 46.0244 21.02C46.1941 21.2301 46.4392 21.3877 46.7597 21.4927C47.0802 21.5978 47.4525 21.6503 47.8767 21.6503C48.15 21.6503 48.3904 21.636 48.5978 21.6073C48.8146 21.5691 49.0031 21.5214 49.1634 21.4641C49.333 21.3972 49.4697 21.3208 49.5734 21.2349C49.6865 21.1489 49.7667 21.0486 49.8138 20.934C49.8703 20.8194 49.8986 20.6905 49.8986 20.5472C49.8986 20.2894 49.8138 20.0792 49.6441 19.9169C49.4839 19.7545 49.2576 19.616 48.9654 19.5014C48.6826 19.3868 48.3621 19.2818 48.0039 19.1863C47.6457 19.0908 47.2781 18.9952 46.9011 18.8997C46.524 18.7947 46.1564 18.6705 45.7982 18.5273C45.44 18.3745 45.1195 18.193 44.8367 17.9829C44.5539 17.7728 44.3277 17.5053 44.158 17.1806C43.9883 16.8559 43.9035 16.4643 43.9035 16.0059C43.9035 15.5188 44.0025 15.0986 44.2004 14.7452C44.4078 14.3918 44.6953 14.1005 45.0629 13.8713C45.4306 13.6421 45.8547 13.475 46.3355 13.3699C46.8162 13.2553 47.3394 13.198 47.905 13.198C48.4328 13.198 48.9324 13.2553 49.4037 13.3699C49.8751 13.475 50.2898 13.6469 50.648 13.8856C51.0062 14.1244 51.2843 14.4253 51.4822 14.7882C51.6896 15.1511 51.7933 15.5809 51.7933 16.0775V16.2494H49.7431V16.1348C49.7431 15.877 49.6677 15.6573 49.5169 15.4758C49.366 15.2944 49.1539 15.1511 48.8806 15.046C48.6072 14.941 48.2867 14.8885 47.9191 14.8885C47.5232 14.8885 47.1838 14.9267 46.9011 15.0031C46.6277 15.0795 46.4156 15.1941 46.2648 15.3469C46.1234 15.4902 46.0527 15.6621 46.0527 15.8626C46.0527 16.0918 46.1328 16.2829 46.2931 16.4357C46.4627 16.5789 46.689 16.7079 46.9718 16.8225C47.264 16.9275 47.5892 17.023 47.9474 17.109C48.3056 17.1949 48.6732 17.2905 49.0503 17.3955C49.4273 17.5006 49.7949 17.6247 50.1531 17.768C50.5113 17.9112 50.8318 18.0927 51.1146 18.3124C51.3974 18.5225 51.6236 18.7851 51.7933 19.1003C51.963 19.4155 52.0478 19.7927 52.0478 20.2321C52.0478 20.9866 51.8687 21.593 51.5105 22.0515C51.1523 22.5099 50.6622 22.8442 50.04 23.0543C49.4179 23.2644 48.7062 23.3694 47.905 23.3694Z" fill="black"/>
<path d="M59.2772 23.1975V13.3699H64.3249C65.0225 13.3699 65.6022 13.5036 66.0641 13.771C66.5354 14.0289 66.8889 14.3966 67.1246 14.8741C67.3696 15.3421 67.4922 15.9008 67.4922 16.5503C67.4922 17.1997 67.3649 17.768 67.1104 18.2551C66.8653 18.7326 66.5024 19.1051 66.0217 19.3725C65.5409 19.6399 64.9518 19.7736 64.2542 19.7736H61.3839V23.1975H59.2772ZM61.3839 18.0259H63.9715C64.4145 18.0259 64.7538 17.8969 64.9895 17.6391C65.2346 17.3812 65.3571 17.023 65.3571 16.5646C65.3571 16.2494 65.3053 15.9868 65.2016 15.7767C65.0979 15.5666 64.9424 15.4042 64.735 15.2896C64.537 15.175 64.2825 15.1177 63.9715 15.1177H61.3839V18.0259Z" fill="black"/>
<path d="M74.3135 62.2742C71.7895 65.6571 69.6168 69.1527 66.965 72.4905C64.2492 75.8959 61.2778 79.2563 59.3608 82.9323C59.0732 83.4736 60.0637 83.6991 60.4151 83.2255C62.8434 79.9103 65.3035 76.6176 67.8596 73.3475C70.6073 69.8293 72.8119 66.1758 75.304 62.5674C75.6874 62.0487 74.665 61.8232 74.3135 62.2742Z" fill="black"/>
<path d="M83.8535 9.34816C86.3011 12.3283 88.4079 15.4078 90.9794 18.3482C93.6129 21.3483 96.4943 24.3085 98.3532 27.547C98.6321 28.0238 97.6716 28.2225 97.3308 27.8053C94.9762 24.8847 92.5905 21.984 90.1119 19.1032C87.4475 16.0038 85.3097 12.7853 82.8931 9.60644C82.5213 9.14948 83.5127 8.9508 83.8535 9.34816Z" fill="black"/>
<path d="M37.2077 62.2733C39.8201 65.643 42.0686 69.1251 44.8133 72.4499C47.624 75.8421 50.6993 79.1894 52.6833 82.8512C52.9809 83.3903 51.9558 83.615 51.5921 83.1432C49.079 79.8408 46.5328 76.561 43.8874 73.3036C41.0436 69.799 38.7619 66.1597 36.1826 62.5653C35.7858 62.0486 36.844 61.824 37.2077 62.2733Z" fill="black"/>
<path d="M26.5845 9.4065C24.4075 12.3798 22.5337 15.4522 20.2465 18.3859C17.9042 21.379 15.3415 24.3325 13.6881 27.5635C13.4401 28.0392 14.2944 28.2374 14.5975 27.8211C16.6918 24.9073 18.8136 22.0133 21.0181 19.1391C23.3879 16.0469 25.2893 12.8357 27.4387 9.66419C27.7694 9.20828 26.8876 9.01006 26.5845 9.4065Z" fill="black"/>
<path d="M54.1026 44.459C53.3681 43.6209 52.871 42.7412 52.665 41.8419V41.3065L52.5339 40.8307L52.6545 40.1764C52.9116 37.5236 55.527 35.1682 59.2284 33.1578C60.1872 32.6373 62.2871 31.6678 63.4151 31.2294C63.7168 31.1122 64.6782 30.7149 64.9878 30.6685C65.4127 30.6049 65.6436 30.7601 65.86 30.8987L67.2477 31.9682C68.7561 33.2648 70.1975 35.3151 70.2356 36.7861V37.7972C70.2356 37.9073 70.2526 38.097 70.1608 38.1957C69.9746 38.3938 68.3468 38.8542 67.8746 39.0148C66.1538 39.6001 63.5437 40.5958 62.1258 41.3065C60.7774 41.9822 59.5747 42.6371 58.4336 43.3884C57.9233 43.7244 57.135 44.3971 56.5947 44.6374C56.7022 43.5733 57.8512 42.2826 59.012 41.366L60.2672 40.4738C58.4716 41.2881 56.9239 41.9668 55.6044 42.972L54.1026 44.459ZM34.9528 33.5146C35.7896 33.6431 37.1432 34.1897 37.8384 34.4693C39.5422 35.1539 40.9456 35.7053 42.4658 36.4887C47.1877 38.9214 50.6582 41.3987 51.9489 44.6374C52.4315 45.8508 52.4289 46.6913 52.3975 47.9089C52.3778 48.6286 51.8426 50.0079 51.3849 50.7044C51.1711 51.0304 50.9468 51.4699 50.43 51.7156C50.2241 51.1107 49.5565 50.5165 48.8928 49.9907C47.2454 48.6845 44.2719 47.2867 41.7733 46.3029C42.8842 47.0559 43.9388 47.6109 44.8871 48.4442C46.2905 49.6772 47.2309 51.0452 47.5392 52.4293V52.9647L47.6703 53.5595L47.5562 54.0353C47.4802 54.5421 47.4277 55.0251 47.1509 55.5223C46.284 55.3718 45.0405 54.9162 44.2654 54.6521C42.3766 54.0091 40.5574 53.3055 38.8877 52.5483C35.9077 51.1963 33.1047 49.4857 31.3931 47.7304C26.8102 43.0291 28.7803 37.7175 34.9528 33.5146ZM53.8402 53.619C53.4638 53.3555 53.3195 52.3574 53.3156 52.013C53.3025 50.7532 53.5753 49.5499 54.2508 48.3252C56.6458 43.9778 63.2866 40.5809 71.5472 38.2481L76.1379 37.068C76.9498 36.8782 77.746 36.6623 78.63 36.5481C79.8695 37.9614 81.2139 40.3281 81.2532 41.8419L81.3844 43.091L81.2532 44.1021L81.008 45.1728C80.3194 47.4217 78.47 49.5107 75.5568 51.3587C72.7604 53.1336 69.042 54.5825 64.9891 55.7412C62.8537 56.3515 60.4836 56.935 58.1686 57.3912C57.2859 57.5655 56.2143 57.8254 55.283 57.9015L55.4024 57.2472C55.8064 54.5867 58.305 52.1557 62.3711 50.2286C63.3784 49.751 64.5156 49.3358 65.6449 48.92C62.5809 49.5886 58.0401 51.0821 55.8654 52.2509C54.8594 52.7916 54.5879 53.0247 53.8402 53.619ZM60.7919 40.2359H60.6607L60.7919 40.2954V40.2359ZM60.6607 40.2954H60.5295L60.6607 40.3549V40.2954ZM60.5295 40.3549H60.3984L60.5295 40.4143V40.3549ZM60.3984 40.4143H60.2672L60.3984 40.4738V40.4143ZM41.3798 46.065H41.2486L41.3798 46.1244V46.065ZM41.5109 46.1244H41.3798L41.5109 46.1839V46.1244ZM41.6421 46.1839H41.5109L41.6421 46.2434V46.1839ZM41.7733 46.2434H41.6421L41.7733 46.3029V46.2434ZM66.0384 48.8011H65.9072L66.0384 48.8605V48.8011ZM65.776 48.8605H65.6449L65.776 48.92V48.8605Z" fill="#01AB12"/>
<path d="M151.494 51.3434C150.137 51.3434 148.828 51.2084 147.568 50.9382C146.331 50.6681 145.228 50.2383 144.259 49.6489C143.289 49.0349 142.514 48.249 141.932 47.2912C141.374 46.3334 141.096 45.1546 141.096 43.7548C141.096 43.632 141.096 43.5092 141.096 43.3864C141.12 43.2636 141.132 43.1408 141.132 43.018H144.622C144.622 43.0917 144.61 43.2145 144.586 43.3864C144.586 43.5337 144.586 43.6688 144.586 43.7916C144.586 44.7739 144.877 45.6089 145.459 46.2966C146.04 46.9842 146.84 47.5 147.858 47.8438C148.901 48.1631 150.076 48.3227 151.385 48.3227C151.967 48.3227 152.573 48.2859 153.203 48.2122C153.858 48.1385 154.476 48.0157 155.057 47.8438C155.663 47.6473 156.197 47.4017 156.657 47.107C157.142 46.7878 157.518 46.4071 157.784 45.9651C158.075 45.4984 158.221 44.9336 158.221 44.2705C158.221 43.4355 157.978 42.7478 157.493 42.2076C157.033 41.6427 156.415 41.1884 155.639 40.8445C154.863 40.4762 153.979 40.1569 152.985 39.8867C152.015 39.592 151.009 39.3096 149.967 39.0395C148.925 38.7693 147.907 38.4623 146.913 38.1185C145.944 37.7501 145.071 37.3081 144.295 36.7923C143.52 36.252 142.889 35.5889 142.405 34.8031C141.944 34.0172 141.714 33.0594 141.714 31.9297C141.714 30.8737 141.92 29.9281 142.332 29.0931C142.768 28.2581 143.398 27.5582 144.223 26.9934C145.071 26.404 146.113 25.9619 147.349 25.6672C148.586 25.3479 150.004 25.1883 151.603 25.1883C152.912 25.1883 154.124 25.3356 155.239 25.6303C156.378 25.9005 157.372 26.3303 158.221 26.9197C159.093 27.4845 159.772 28.209 160.257 29.0931C160.741 29.9773 160.984 31.0456 160.984 32.2981V32.7401H157.566V32.1876C157.566 31.3526 157.312 30.6403 156.803 30.0509C156.294 29.4615 155.591 29.0072 154.694 28.6879C153.821 28.3687 152.827 28.209 151.712 28.209C150.258 28.209 149.046 28.3564 148.077 28.6511C147.107 28.9212 146.38 29.3265 145.895 29.8667C145.434 30.3825 145.204 30.9719 145.204 31.635C145.204 32.3963 145.434 33.0348 145.895 33.5506C146.38 34.0663 147.01 34.4961 147.786 34.8399C148.561 35.1592 149.446 35.4539 150.44 35.724C151.434 35.9942 152.44 36.2766 153.458 36.5713C154.5 36.8414 155.506 37.1607 156.475 37.5291C157.469 37.8729 158.354 38.315 159.13 38.8553C159.929 39.371 160.56 40.0341 161.02 40.8445C161.481 41.6304 161.711 42.6005 161.711 43.7548C161.711 45.5476 161.275 47.0088 160.402 48.1385C159.529 49.2437 158.33 50.0541 156.803 50.5698C155.276 51.0856 153.506 51.3434 151.494 51.3434Z" fill="black"/>
<path d="M176.722 51.3434C174.831 51.3434 173.231 50.9873 171.922 50.2751C170.638 49.5384 169.656 48.4209 168.977 46.9228C168.323 45.4248 167.996 43.5214 167.996 41.2129C167.996 38.8798 168.323 36.9765 168.977 35.503C169.656 34.0049 170.65 32.8998 171.959 32.1876C173.268 31.4508 174.904 31.0824 176.867 31.0824C178.661 31.0824 180.164 31.4385 181.376 32.1507C182.588 32.8384 183.497 33.8821 184.102 35.282C184.733 36.6573 185.048 38.3887 185.048 40.4762V42.0234H171.304C171.353 43.5706 171.571 44.8476 171.959 45.8545C172.371 46.8369 172.977 47.5614 173.777 48.028C174.577 48.4701 175.582 48.6911 176.794 48.6911C177.619 48.6911 178.334 48.5928 178.94 48.3964C179.57 48.1753 180.091 47.8684 180.503 47.4754C180.939 47.0825 181.267 46.6159 181.485 46.0756C181.703 45.5353 181.824 44.9459 181.848 44.3073H184.975C184.951 45.3388 184.757 46.2966 184.393 47.1807C184.03 48.0403 183.497 48.777 182.794 49.391C182.091 50.005 181.23 50.4839 180.212 50.8277C179.194 51.1715 178.031 51.3434 176.722 51.3434ZM171.377 39.592H181.739C181.739 38.5115 181.618 37.6028 181.376 36.866C181.133 36.1292 180.782 35.5276 180.321 35.0609C179.885 34.5943 179.364 34.2628 178.758 34.0663C178.176 33.8453 177.509 33.7348 176.758 33.7348C175.643 33.7348 174.698 33.9435 173.922 34.361C173.146 34.7785 172.553 35.417 172.141 36.2766C171.728 37.1362 171.474 38.2413 171.377 39.592Z" fill="black"/>
<path d="M201.004 51.3434C199.719 51.3434 198.568 51.0856 197.55 50.5698C196.532 50.0295 195.695 49.2191 195.041 48.1385H194.787L194.459 50.9014H191.914V24.2673H195.114V33.9558H195.332C195.768 33.2681 196.277 32.7156 196.859 32.2981C197.441 31.8806 198.095 31.5736 198.822 31.3771C199.549 31.1806 200.325 31.0824 201.149 31.0824C202.628 31.0824 203.925 31.4385 205.04 32.1507C206.155 32.8629 207.015 33.9558 207.621 35.4293C208.251 36.9028 208.566 38.7816 208.566 41.0656C208.566 43.4723 208.263 45.437 207.657 46.9597C207.051 48.4578 206.191 49.5629 205.076 50.2751C203.961 50.9873 202.604 51.3434 201.004 51.3434ZM200.24 48.5069C201.331 48.5069 202.24 48.2859 202.967 47.8438C203.719 47.4017 204.288 46.6773 204.676 45.6703C205.064 44.6389 205.258 43.2881 205.258 41.6181V40.8445C205.258 39.2237 205.076 37.9098 204.712 36.9028C204.349 35.8714 203.791 35.1223 203.04 34.6557C202.288 34.1645 201.319 33.919 200.131 33.919C199.453 33.919 198.81 34.0295 198.204 34.2505C197.598 34.4715 197.053 34.8522 196.568 35.3925C196.108 35.9328 195.744 36.6573 195.477 37.5659C195.235 38.4746 195.114 39.592 195.114 40.9182V41.5076C195.114 43.0303 195.283 44.3073 195.623 45.3388C195.986 46.3703 196.544 47.1562 197.295 47.6964C198.071 48.2367 199.053 48.5069 200.24 48.5069Z" fill="black"/>
<path d="M217.017 57.6059C216.435 57.6059 215.926 57.5568 215.49 57.4586C215.078 57.3849 214.799 57.3358 214.654 57.3112V54.9536H216.254C216.835 54.9536 217.405 54.8308 217.963 54.5852C218.52 54.3396 219.041 53.9221 219.526 53.3327C220.011 52.7433 220.423 51.9328 220.762 50.9014L213.345 31.5245H216.69L220.508 41.5076C220.677 41.9742 220.871 42.5514 221.089 43.239C221.332 43.9021 221.562 44.5898 221.78 45.302C222.023 46.0142 222.216 46.6404 222.362 47.1807H222.58C222.677 46.7878 222.798 46.3457 222.944 45.8545C223.089 45.3634 223.235 44.8599 223.38 44.3442C223.55 43.8039 223.707 43.3004 223.853 42.8338C224.022 42.3426 224.156 41.9128 224.253 41.5445L227.488 31.5245H230.724L224.253 50.3488C223.889 51.4048 223.489 52.3749 223.053 53.259C222.616 54.1677 222.132 54.9413 221.598 55.5798C221.065 56.2184 220.423 56.7095 219.671 57.0534C218.92 57.4217 218.035 57.6059 217.017 57.6059Z" fill="black"/>
<path d="M180.98 66.4348C180.435 66.4348 179.955 66.3785 179.541 66.266C179.127 66.1534 178.783 65.9897 178.511 65.7748C178.238 65.5599 178.031 65.3041 177.89 65.0073C177.748 64.7106 177.677 64.3729 177.677 63.9943C177.677 63.9431 177.677 63.8971 177.677 63.8562C177.677 63.805 177.682 63.7641 177.693 63.7334H179.011C179 63.7743 178.995 63.8101 178.995 63.8408C178.995 63.8715 178.995 63.9022 178.995 63.9329C179.006 64.291 179.096 64.5725 179.268 64.7771C179.45 64.9818 179.697 65.125 180.01 65.2069C180.324 65.2887 180.672 65.3297 181.056 65.3297C181.389 65.3297 181.697 65.2887 181.98 65.2069C182.263 65.1148 182.485 64.9818 182.646 64.8078C182.818 64.6236 182.904 64.3934 182.904 64.1171C182.904 63.7794 182.793 63.5236 182.571 63.3496C182.359 63.1654 182.076 63.0222 181.722 62.9198C181.369 62.8175 181 62.7101 180.616 62.5975C180.293 62.5054 179.97 62.4031 179.647 62.2905C179.324 62.178 179.031 62.0398 178.768 61.8761C178.516 61.7124 178.309 61.5026 178.147 61.2468C177.996 60.9807 177.92 60.6482 177.92 60.2491C177.92 59.8909 177.991 59.5737 178.132 59.2974C178.283 59.0211 178.496 58.7858 178.768 58.5914C179.041 58.3969 179.369 58.2537 179.753 58.1616C180.147 58.0592 180.581 58.0081 181.056 58.0081C181.561 58.0081 182 58.0644 182.374 58.1769C182.758 58.2895 183.076 58.4481 183.328 58.6527C183.581 58.8574 183.767 59.0928 183.889 59.3588C184.01 59.6146 184.07 59.8909 184.07 60.1877C184.07 60.2491 184.07 60.3105 184.07 60.3719C184.07 60.423 184.065 60.464 184.055 60.4947H182.752V60.3258C182.752 60.1212 182.697 59.9267 182.586 59.7425C182.485 59.5481 182.303 59.3946 182.04 59.2821C181.788 59.1593 181.434 59.0979 180.98 59.0979C180.687 59.0979 180.435 59.1235 180.223 59.1746C180.01 59.2156 179.834 59.2872 179.692 59.3895C179.551 59.4816 179.445 59.5942 179.374 59.7272C179.303 59.85 179.268 59.9933 179.268 60.157C179.268 60.423 179.354 60.6277 179.526 60.771C179.697 60.9142 179.925 61.0319 180.207 61.124C180.5 61.2161 180.813 61.3184 181.147 61.431C181.5 61.5333 181.859 61.6407 182.222 61.7533C182.596 61.8556 182.934 61.9887 183.237 62.1524C183.55 62.3161 183.798 62.5412 183.98 62.8278C184.171 63.104 184.267 63.4724 184.267 63.9329C184.267 64.3627 184.187 64.7362 184.025 65.0534C183.863 65.3706 183.631 65.6315 183.328 65.8362C183.035 66.0409 182.687 66.1892 182.283 66.2813C181.889 66.3837 181.455 66.4348 180.98 66.4348Z" fill="black"/>
<path d="M187.127 68.9061V58.1769H188.188L188.324 59.3281H188.43C188.703 58.8779 189.051 58.5453 189.475 58.3304C189.899 58.1053 190.379 57.9927 190.914 57.9927C191.581 57.9927 192.147 58.1411 192.611 58.4379C193.076 58.7346 193.434 59.2002 193.687 59.8346C193.939 60.4588 194.066 61.2724 194.066 62.2752C194.066 63.2166 193.934 63.9994 193.672 64.6236C193.419 65.2376 193.061 65.6929 192.596 65.9897C192.131 66.2865 191.591 66.4348 190.975 66.4348C190.632 66.4348 190.308 66.3939 190.005 66.312C189.703 66.2302 189.43 66.1023 189.187 65.9283C188.945 65.7441 188.733 65.5139 188.551 65.2376H188.46V68.9061H187.127ZM190.551 65.2529C191.046 65.2529 191.45 65.1557 191.763 64.9613C192.076 64.7566 192.308 64.4445 192.46 64.025C192.611 63.5952 192.687 63.0478 192.687 62.3826V62.0603C192.687 61.3542 192.606 60.7914 192.445 60.3719C192.283 59.9421 192.046 59.6351 191.733 59.4509C191.43 59.2667 191.051 59.1746 190.596 59.1746C190.101 59.1746 189.692 59.2872 189.369 59.5123C189.056 59.7272 188.824 60.0546 188.672 60.4947C188.531 60.9347 188.46 61.4719 188.46 62.1063V62.3366C188.46 62.8994 188.511 63.3701 188.612 63.7487C188.723 64.1171 188.874 64.4138 189.066 64.639C189.268 64.8641 189.495 65.0227 189.748 65.1148C190 65.2069 190.268 65.2529 190.551 65.2529Z" fill="black"/>
<path d="M198.934 66.4348C198.641 66.4348 198.349 66.399 198.056 66.3274C197.763 66.2558 197.49 66.1381 197.238 65.9743C196.985 65.8106 196.783 65.5855 196.632 65.299C196.48 65.0022 196.404 64.6338 196.404 64.1938C196.404 63.6413 196.536 63.1859 196.798 62.8278C197.061 62.4696 197.424 62.1933 197.889 61.9989C198.364 61.7942 198.924 61.6561 199.571 61.5845C200.217 61.5026 200.919 61.4617 201.676 61.4617V60.5407C201.676 60.244 201.626 59.9881 201.525 59.7732C201.424 59.5584 201.242 59.3946 200.979 59.2821C200.727 59.1593 200.363 59.0979 199.889 59.0979C199.434 59.0979 199.071 59.1593 198.798 59.2821C198.535 59.3946 198.349 59.543 198.237 59.7272C198.136 59.9114 198.086 60.116 198.086 60.3412V60.5714H196.798C196.788 60.5202 196.783 60.4691 196.783 60.4179C196.783 60.3668 196.783 60.3054 196.783 60.2337C196.783 59.7425 196.914 59.3332 197.177 59.0058C197.45 58.6681 197.828 58.4174 198.313 58.2537C198.798 58.0797 199.353 57.9927 199.98 57.9927C200.646 57.9927 201.202 58.0899 201.646 58.2844C202.101 58.4788 202.439 58.7551 202.661 59.1132C202.893 59.4714 203.009 59.9012 203.009 60.4026V64.7771C203.009 64.9715 203.055 65.1097 203.146 65.1915C203.237 65.2632 203.348 65.299 203.479 65.299H204.07V66.1892C203.929 66.2506 203.772 66.3018 203.6 66.3427C203.429 66.3939 203.232 66.4195 203.009 66.4195C202.747 66.4195 202.53 66.3632 202.358 66.2506C202.186 66.1483 202.055 66.005 201.964 65.8209C201.873 65.6264 201.813 65.4115 201.782 65.1762H201.676C201.495 65.432 201.262 65.6571 200.979 65.8516C200.707 66.0357 200.399 66.179 200.055 66.2813C199.712 66.3837 199.338 66.4348 198.934 66.4348ZM199.268 65.299C199.591 65.299 199.894 65.2478 200.177 65.1455C200.469 65.0432 200.727 64.8999 200.949 64.7157C201.171 64.5213 201.348 64.291 201.479 64.025C201.611 63.7589 201.676 63.4673 201.676 63.1501V62.4747C200.858 62.4747 200.161 62.5208 199.586 62.6129C199.01 62.705 198.566 62.8687 198.253 63.104C197.95 63.3394 197.798 63.672 197.798 64.1017C197.798 64.378 197.859 64.6032 197.98 64.7771C198.101 64.9511 198.273 65.0841 198.495 65.1762C198.717 65.2581 198.975 65.299 199.268 65.299Z" fill="black"/>
<path d="M208.265 66.4348C207.851 66.4348 207.528 66.3581 207.296 66.2046C207.063 66.0409 206.897 65.8311 206.796 65.5753C206.695 65.3092 206.644 65.0278 206.644 64.7311V59.3128H205.614V58.1769H206.674L206.917 55.9206H207.977V58.1769H209.477V59.3128H207.977V64.5315C207.977 64.7873 208.023 64.9818 208.114 65.1148C208.205 65.2376 208.376 65.299 208.629 65.299H209.477V66.1892C209.376 66.2404 209.255 66.2813 209.114 66.312C208.972 66.3427 208.826 66.3683 208.674 66.3888C208.533 66.4195 208.396 66.4348 208.265 66.4348ZM207.159 70.7326V70.1186C207.442 70.1186 207.649 70.0214 207.78 69.827C207.922 69.6326 207.992 69.3819 207.992 69.0749H207.326V67.586H208.75V68.7986C208.75 69.2591 208.684 69.6275 208.553 69.9038C208.422 70.1903 208.235 70.4001 207.992 70.5331C207.76 70.6661 207.482 70.7326 207.159 70.7326Z" fill="black"/>
<path d="M212.111 56.6573V55.1531H213.444V56.6573H212.111ZM212.111 66.2506V58.1769H213.444V66.2506H212.111Z" fill="black"/>
<path d="M216.726 56.6573V55.1531H218.059V56.6573H216.726ZM216.726 66.2506V58.1769H218.059V66.2506H216.726Z" fill="black"/>
<path d="M227.824 66.2506L224.87 58.1769H226.264L227.718 62.2138C227.789 62.4082 227.87 62.6538 227.961 62.9505C228.051 63.2371 228.142 63.5338 228.233 63.8408C228.334 64.1376 228.415 64.4036 228.476 64.639H228.551C228.622 64.4138 228.703 64.1529 228.794 63.8562C228.885 63.5492 228.976 63.2524 229.066 62.9659C229.167 62.6691 229.253 62.4184 229.324 62.2138L230.763 58.1769H232.111L229.157 66.2506H227.824Z" fill="black"/>
<path d="M237.672 66.4348C236.884 66.4348 236.217 66.2865 235.672 65.9897C235.137 65.6827 234.728 65.2171 234.445 64.5929C234.172 63.9687 234.036 63.1757 234.036 62.2138C234.036 61.2417 234.172 60.4486 234.445 59.8346C234.728 59.2104 235.142 58.75 235.687 58.4532C236.232 58.1462 236.914 57.9927 237.732 57.9927C238.48 57.9927 239.106 58.1411 239.611 58.4379C240.116 58.7244 240.495 59.1593 240.747 59.7425C241.01 60.3156 241.141 61.037 241.141 61.9068V62.5515H235.414C235.435 63.1961 235.526 63.7282 235.687 64.1478C235.859 64.5571 236.111 64.859 236.445 65.0534C236.778 65.2376 237.197 65.3297 237.702 65.3297C238.045 65.3297 238.343 65.2887 238.596 65.2069C238.858 65.1148 239.076 64.9869 239.247 64.8232C239.429 64.6594 239.565 64.465 239.656 64.2399C239.747 64.0148 239.798 63.7692 239.808 63.5031H241.111C241.1 63.9329 241.02 64.332 240.868 64.7004C240.717 65.0585 240.495 65.3655 240.202 65.6213C239.909 65.8771 239.55 66.0767 239.126 66.2199C238.702 66.3632 238.217 66.4348 237.672 66.4348ZM235.445 61.5384H239.762C239.762 61.0882 239.712 60.7096 239.611 60.4026C239.51 60.0956 239.363 59.8449 239.171 59.6505C238.99 59.456 238.773 59.3179 238.52 59.236C238.278 59.1439 238 59.0979 237.687 59.0979C237.222 59.0979 236.828 59.1849 236.505 59.3588C236.182 59.5328 235.935 59.7988 235.763 60.157C235.591 60.5151 235.485 60.9756 235.445 61.5384Z" fill="black"/>
<path d="M244.002 66.2506V58.1769H245.077L245.199 59.5123H245.305C245.386 59.2565 245.497 59.016 245.638 58.7909C245.779 58.5555 245.971 58.3662 246.214 58.223C246.456 58.0695 246.754 57.9927 247.108 57.9927C247.259 57.9927 247.395 58.0081 247.517 58.0388C247.648 58.0592 247.744 58.0848 247.804 58.1155V59.3588H247.304C246.961 59.3588 246.663 59.4202 246.411 59.543C246.168 59.6556 245.966 59.8193 245.805 60.0342C245.643 60.2491 245.522 60.5049 245.441 60.8016C245.37 61.0984 245.335 61.4156 245.335 61.7533V66.2506H244.002Z" fill="black"/>
<path d="M249.668 66.2506V65.5292L254.107 59.3128H249.986V58.1769H256.016V58.883L251.562 65.1148H256.258V66.2506H249.668Z" fill="black"/>
<path d="M259.001 56.6573V55.1531H260.334V56.6573H259.001ZM259.001 66.2506V58.1769H260.334V66.2506H259.001Z" fill="black"/>
<path d="M271.023 66.4348C270.256 66.4348 269.61 66.2865 269.084 65.9897C268.569 65.6827 268.175 65.2171 267.903 64.5929C267.64 63.9585 267.509 63.1654 267.509 62.2138C267.509 61.2621 267.64 60.4742 267.903 59.85C268.175 59.2258 268.574 58.7602 269.099 58.4532C269.635 58.1462 270.291 57.9927 271.069 57.9927C271.614 57.9927 272.084 58.0644 272.478 58.2076C272.882 58.3509 273.215 58.5607 273.478 58.8369C273.74 59.1132 273.932 59.4458 274.053 59.8346C274.185 60.2235 274.25 60.6686 274.25 61.17H272.902C272.902 60.6993 272.836 60.3156 272.705 60.0188C272.584 59.7119 272.387 59.4867 272.114 59.3435C271.842 59.19 271.483 59.1132 271.039 59.1132C270.594 59.1132 270.21 59.2156 269.887 59.4202C269.564 59.6146 269.317 59.9267 269.145 60.3565C268.973 60.7863 268.887 61.3542 268.887 62.0603V62.3826C268.887 63.0478 268.968 63.6003 269.13 64.0403C269.301 64.4804 269.549 64.8027 269.872 65.0073C270.195 65.212 270.589 65.3143 271.054 65.3143C271.508 65.3143 271.872 65.2325 272.145 65.0687C272.427 64.905 272.629 64.6697 272.75 64.3627C272.882 64.0557 272.947 63.6873 272.947 63.2575H274.25C274.25 63.7078 274.185 64.1273 274.053 64.5162C273.932 64.905 273.74 65.2427 273.478 65.5292C273.215 65.8157 272.882 66.0409 272.478 66.2046C272.074 66.3581 271.589 66.4348 271.023 66.4348Z" fill="black"/>
<path d="M279.531 66.4348C278.763 66.4348 278.147 66.2353 277.682 65.8362C277.218 65.4371 276.986 64.7413 276.986 63.7487V58.1769H278.319V63.5645C278.319 63.9022 278.359 64.1785 278.44 64.3934C278.521 64.6083 278.637 64.7771 278.788 64.8999C278.94 65.0227 279.117 65.1097 279.319 65.1608C279.531 65.212 279.758 65.2376 280 65.2376C280.384 65.2376 280.738 65.1455 281.061 64.9613C281.384 64.7771 281.647 64.511 281.849 64.1631C282.061 63.805 282.167 63.3906 282.167 62.9198V58.1769H283.5V66.2506H282.424L282.303 65.038H282.197C281.985 65.3655 281.742 65.6315 281.47 65.8362C281.207 66.0409 280.909 66.1892 280.576 66.2813C280.253 66.3837 279.904 66.4348 279.531 66.4348Z" fill="black"/>
<path d="M286.78 66.2506V58.1769H287.856L287.977 59.5123H288.083C288.164 59.2565 288.275 59.016 288.416 58.7909C288.558 58.5555 288.749 58.3662 288.992 58.223C289.234 58.0695 289.532 57.9927 289.886 57.9927C290.037 57.9927 290.173 58.0081 290.295 58.0388C290.426 58.0592 290.522 58.0848 290.583 58.1155V59.3588H290.083C289.739 59.3588 289.441 59.4202 289.189 59.543C288.946 59.6556 288.744 59.8193 288.583 60.0342C288.421 60.2491 288.3 60.5049 288.219 60.8016C288.149 61.0984 288.113 61.4156 288.113 61.7533V66.2506H286.78Z" fill="black"/>
<path d="M294.874 66.4348C294.581 66.4348 294.288 66.399 293.995 66.3274C293.702 66.2558 293.43 66.1381 293.177 65.9743C292.925 65.8106 292.723 65.5855 292.571 65.299C292.42 65.0022 292.344 64.6338 292.344 64.1938C292.344 63.6413 292.475 63.1859 292.738 62.8278C293 62.4696 293.364 62.1933 293.829 61.9989C294.303 61.7942 294.864 61.6561 295.51 61.5845C296.156 61.5026 296.858 61.4617 297.616 61.4617V60.5407C297.616 60.244 297.565 59.9881 297.464 59.7732C297.363 59.5584 297.182 59.3946 296.919 59.2821C296.666 59.1593 296.303 59.0979 295.828 59.0979C295.374 59.0979 295.01 59.1593 294.737 59.2821C294.475 59.3946 294.288 59.543 294.177 59.7272C294.076 59.9114 294.025 60.116 294.025 60.3412V60.5714H292.738C292.728 60.5202 292.723 60.4691 292.723 60.4179C292.723 60.3668 292.723 60.3054 292.723 60.2337C292.723 59.7425 292.854 59.3332 293.116 59.0058C293.389 58.6681 293.768 58.4174 294.253 58.2537C294.737 58.0797 295.293 57.9927 295.919 57.9927C296.586 57.9927 297.141 58.0899 297.586 58.2844C298.04 58.4788 298.378 58.7551 298.601 59.1132C298.833 59.4714 298.949 59.9012 298.949 60.4026V64.7771C298.949 64.9715 298.994 65.1097 299.085 65.1915C299.176 65.2632 299.287 65.299 299.419 65.299H300.009V66.1892C299.868 66.2506 299.712 66.3018 299.54 66.3427C299.368 66.3939 299.171 66.4195 298.949 66.4195C298.686 66.4195 298.469 66.3632 298.298 66.2506C298.126 66.1483 297.995 66.005 297.904 65.8209C297.813 65.6264 297.752 65.4115 297.722 65.1762H297.616C297.434 65.432 297.202 65.6571 296.919 65.8516C296.646 66.0357 296.338 66.179 295.995 66.2813C295.651 66.3837 295.278 66.4348 294.874 66.4348ZM295.207 65.299C295.53 65.299 295.833 65.2478 296.116 65.1455C296.409 65.0432 296.666 64.8999 296.889 64.7157C297.111 64.5213 297.288 64.291 297.419 64.025C297.55 63.7589 297.616 63.4673 297.616 63.1501V62.4747C296.798 62.4747 296.101 62.5208 295.525 62.6129C294.95 62.705 294.505 62.8687 294.192 63.104C293.889 63.3394 293.738 63.672 293.738 64.1017C293.738 64.378 293.798 64.6032 293.919 64.7771C294.041 64.9511 294.212 65.0841 294.434 65.1762C294.657 65.2581 294.914 65.299 295.207 65.299Z" fill="black"/>
<path d="M304.205 66.4348C303.791 66.4348 303.467 66.3581 303.235 66.2046C303.003 66.0409 302.836 65.8311 302.735 65.5753C302.634 65.3092 302.584 65.0278 302.584 64.7311V59.3128H301.554V58.1769H302.614L302.856 55.9206H303.917V58.1769H305.417V59.3128H303.917V64.5315C303.917 64.7873 303.962 64.9818 304.053 65.1148C304.144 65.2376 304.316 65.299 304.568 65.299H305.417V66.1892C305.316 66.2404 305.194 66.2813 305.053 66.312C304.912 66.3427 304.765 66.3683 304.614 66.3888C304.472 66.4195 304.336 66.4348 304.205 66.4348Z" fill="black"/>
<path d="M311.232 66.4348C310.444 66.4348 309.778 66.2865 309.232 65.9897C308.697 65.6827 308.288 65.2171 308.005 64.5929C307.733 63.9687 307.596 63.1757 307.596 62.2138C307.596 61.2417 307.733 60.4486 308.005 59.8346C308.288 59.2104 308.702 58.75 309.248 58.4532C309.793 58.1462 310.475 57.9927 311.293 57.9927C312.04 57.9927 312.666 58.1411 313.171 58.4379C313.676 58.7244 314.055 59.1593 314.307 59.7425C314.57 60.3156 314.701 61.037 314.701 61.9068V62.5515H308.975C308.995 63.1961 309.086 63.7282 309.248 64.1478C309.419 64.5571 309.672 64.859 310.005 65.0534C310.338 65.2376 310.757 65.3297 311.262 65.3297C311.606 65.3297 311.904 65.2887 312.156 65.2069C312.419 65.1148 312.636 64.9869 312.808 64.8232C312.989 64.6594 313.126 64.465 313.217 64.2399C313.308 64.0148 313.358 63.7692 313.368 63.5031H314.671C314.661 63.9329 314.58 64.332 314.429 64.7004C314.277 65.0585 314.055 65.3655 313.762 65.6213C313.469 65.8771 313.111 66.0767 312.686 66.2199C312.262 66.3632 311.777 66.4348 311.232 66.4348ZM309.005 61.5384H313.323C313.323 61.0882 313.272 60.7096 313.171 60.4026C313.07 60.0956 312.924 59.8449 312.732 59.6505C312.55 59.456 312.333 59.3179 312.08 59.236C311.838 59.1439 311.56 59.0979 311.247 59.0979C310.783 59.0979 310.389 59.1849 310.066 59.3588C309.742 59.5328 309.495 59.7988 309.323 60.157C309.152 60.5151 309.046 60.9756 309.005 61.5384Z" fill="black"/>
<defs>
<filter id="filter0_d_247_20" x="-4" y="0" width="119.096" height="103" filterUnits="userSpaceOnUse" color-interpolation-filters="sRGB">
<feFlood flood-opacity="0" result="BackgroundImageFix"/>
<feColorMatrix in="SourceAlpha" type="matrix" values="0 0 0 0 0 0 0 0 0 0 0 0 0 0 0 0 0 0 127 0" result="hardAlpha"/>
<feOffset dy="4"/>
<feGaussianBlur stdDeviation="2"/>
<feComposite in2="hardAlpha" operator="out"/>
<feColorMatrix type="matrix" values="0 0 0 0 0 0 0 0 0 0 0 0 0 0 0 0 0 0 0.25 0"/>
<feBlend mode="normal" in2="BackgroundImageFix" result="effect1_dropShadow_247_20"/>
<feBlend mode="normal" in="SourceGraphic" in2="effect1_dropShadow_247_20" result="shape"/>
</filter>
</defs>
</svg>
