<svg width="68" height="47" viewBox="0 0 68 47" fill="none" xmlns="http://www.w3.org/2000/svg">
<path d="M1.118 26V17.082H3.029L5.057 22.867C5.109 23.023 5.161 23.1963 5.213 23.387C5.27367 23.569 5.32567 23.7423 5.369 23.907C5.421 24.0717 5.46 24.2147 5.486 24.336H5.577C5.603 24.206 5.63767 24.0587 5.681 23.894C5.72433 23.7207 5.772 23.543 5.824 23.361C5.876 23.179 5.92367 23.0143 5.967 22.867L7.995 17.082H9.893V26H8.658V20.774C8.658 20.5053 8.66233 20.215 8.671 19.903C8.67967 19.5823 8.68833 19.292 8.697 19.032C8.70567 18.7633 8.71 18.5727 8.71 18.46H8.606C8.58 18.5727 8.53667 18.733 8.476 18.941C8.41533 19.1403 8.35033 19.3527 8.281 19.578C8.22033 19.7947 8.164 19.9897 8.112 20.163L6.019 26H4.953L2.86 20.163C2.808 20.0157 2.75167 19.8467 2.691 19.656C2.639 19.4567 2.58267 19.253 2.522 19.045C2.47 18.837 2.418 18.642 2.366 18.46H2.275C2.28367 18.6507 2.288 18.889 2.288 19.175C2.29667 19.4523 2.301 19.734 2.301 20.02C2.30967 20.2973 2.314 20.5487 2.314 20.774V26H1.118ZM15.6738 26.156C14.9978 26.156 14.4258 26.0303 13.9578 25.779C13.4985 25.519 13.1475 25.1247 12.9048 24.596C12.6708 24.0673 12.5538 23.3957 12.5538 22.581C12.5538 21.7577 12.6708 21.086 12.9048 20.566C13.1475 20.0373 13.5028 19.6473 13.9708 19.396C14.4388 19.136 15.0238 19.006 15.7258 19.006C16.3672 19.006 16.9045 19.1317 17.3378 19.383C17.7712 19.6257 18.0962 19.994 18.3128 20.488C18.5382 20.9733 18.6508 21.5843 18.6508 22.321V22.867H13.7368C13.7542 23.413 13.8322 23.8637 13.9708 24.219C14.1182 24.5657 14.3348 24.8213 14.6208 24.986C14.9068 25.142 15.2665 25.22 15.6998 25.22C15.9945 25.22 16.2502 25.1853 16.4668 25.116C16.6922 25.038 16.8785 24.9297 17.0258 24.791C17.1818 24.6523 17.2988 24.4877 17.3768 24.297C17.4548 24.1063 17.4982 23.8983 17.5068 23.673H18.6248C18.6162 24.037 18.5468 24.375 18.4168 24.687C18.2868 24.9903 18.0962 25.2503 17.8448 25.467C17.5935 25.6837 17.2858 25.8527 16.9218 25.974C16.5578 26.0953 16.1418 26.156 15.6738 26.156ZM13.7628 22.009H17.4678C17.4678 21.6277 17.4245 21.307 17.3378 21.047C17.2512 20.787 17.1255 20.5747 16.9608 20.41C16.8048 20.2453 16.6185 20.1283 16.4018 20.059C16.1938 19.981 15.9555 19.942 15.6868 19.942C15.2882 19.942 14.9502 20.0157 14.6728 20.163C14.3955 20.3103 14.1832 20.5357 14.0358 20.839C13.8885 21.1423 13.7975 21.5323 13.7628 22.009ZM21.1059 26V19.162H22.0289L22.1329 20.189H22.2239C22.4059 19.9117 22.6096 19.6863 22.8349 19.513C23.0689 19.3397 23.3246 19.214 23.6019 19.136C23.8879 19.0493 24.1912 19.006 24.5119 19.006C24.9452 19.006 25.3222 19.0797 25.6429 19.227C25.9722 19.3743 26.2279 19.6127 26.4099 19.942C26.6006 20.2713 26.6959 20.7177 26.6959 21.281V26H25.5519V21.437C25.5519 21.151 25.5129 20.917 25.4349 20.735C25.3656 20.553 25.2659 20.41 25.1359 20.306C25.0146 20.202 24.8629 20.1283 24.6809 20.085C24.5076 20.0417 24.3126 20.02 24.0959 20.02C23.7752 20.02 23.4719 20.098 23.1859 20.254C22.8999 20.41 22.6702 20.6353 22.4969 20.93C22.3322 21.2247 22.2499 21.5757 22.2499 21.983V26H21.1059ZM29.4711 17.875V16.601H30.6151V17.875H29.4711ZM29.4711 26V19.162H30.6151V26H29.4711ZM35.55 26.156C34.8914 26.156 34.3627 25.987 33.964 25.649C33.5654 25.311 33.366 24.7217 33.366 23.881V19.162H34.51V23.725C34.51 24.011 34.5447 24.245 34.614 24.427C34.6834 24.609 34.783 24.752 34.913 24.856C35.043 24.96 35.1947 25.0337 35.368 25.077C35.55 25.1203 35.745 25.142 35.953 25.142C36.2824 25.142 36.5857 25.064 36.863 24.908C37.1404 24.752 37.3657 24.5267 37.539 24.232C37.721 23.9287 37.812 23.5777 37.812 23.179V19.162H38.956V26H38.033L37.929 24.973H37.838C37.656 25.2503 37.448 25.4757 37.214 25.649C36.9887 25.8223 36.733 25.948 36.447 26.026C36.1697 26.1127 35.8707 26.156 35.55 26.156Z" fill="black"/>
<path d="M66.9714 20.5411H45.0286C44.0823 20.5411 44 21.1383 44 21.8772C44 22.6161 44.0823 23.2133 45.0286 23.2133H66.9714C67.9177 23.2133 68 22.6161 68 21.8772C68 21.1383 67.9177 20.5411 66.9714 20.5411ZM66.9714 25.8856H45.0286C44.0823 25.8856 44 26.4829 44 27.2217C44 27.9606 44.0823 28.5579 45.0286 28.5579H66.9714C67.9177 28.5579 68 27.9606 68 27.2217C68 26.4829 67.9177 25.8856 66.9714 25.8856ZM45.0286 17.8688H66.9714C67.9177 17.8688 68 17.2715 68 16.5327C68 15.7938 67.9177 15.1965 66.9714 15.1965H45.0286C44.0823 15.1965 44 15.7938 44 16.5327C44 17.2715 44.0823 17.8688 45.0286 17.8688Z" fill="black"/>
</svg>
