<svg width="347" height="139" viewBox="0 0 347 139" fill="none" xmlns="http://www.w3.org/2000/svg">
<path d="M0.202386 123.347L12.7118 102.865L26.1261 98.1688L34.0987 131.16L18.9776 134.814L0.202386 123.347Z" fill="white"/>
<ellipse cx="264.5" cy="52" rx="82.5" ry="52" fill="white"/>
<path d="M21.5 113L211 12.5C211 12.5 131.5 82.5 282 102.5L28 120.5L21.5 113Z" fill="white" fill-opacity="0.5"/>
<rect x="6" y="123" width="6" height="16" fill="white"/>
<path d="M238.952 18L219 39.0335L264.5 87L310 39.0335L290.048 18H238.952Z" fill="black"/>
<path d="M238.952 18L219 39.0335L264.5 87L310 39.0335L290.048 18H238.952Z" fill="black"/>
<path d="M243.686 20.1562L226.913 37.1587L264.561 81.6094L302.087 37.1587L287.004 20.1562H243.686Z" fill="#EAC734"/>
<path d="M243.686 20.1562L226.913 37.1587L264.561 81.6094L302.087 37.1587L287.004 20.1562H243.686Z" fill="#ECD400"/>
<path d="M260.104 34.6669C259.704 34.6669 259.324 34.6269 258.964 34.5469C258.604 34.4669 258.284 34.3402 258.004 34.1669C257.731 33.9869 257.514 33.7635 257.354 33.4969C257.201 33.2235 257.124 32.8935 257.124 32.5069C257.124 32.4735 257.124 32.4402 257.124 32.4069C257.124 32.3669 257.127 32.3369 257.134 32.3169H258.614C258.607 32.3369 258.604 32.3635 258.604 32.3969C258.604 32.4302 258.604 32.4602 258.604 32.4869C258.604 32.7002 258.661 32.8802 258.774 33.0269C258.894 33.1735 259.067 33.2835 259.294 33.3569C259.521 33.4302 259.784 33.4669 260.084 33.4669C260.277 33.4669 260.447 33.4569 260.594 33.4369C260.747 33.4102 260.881 33.3769 260.994 33.3369C261.114 33.2902 261.211 33.2369 261.284 33.1769C261.364 33.1169 261.421 33.0469 261.454 32.9669C261.494 32.8869 261.514 32.7969 261.514 32.6969C261.514 32.5169 261.454 32.3702 261.334 32.2569C261.221 32.1435 261.061 32.0469 260.854 31.9669C260.654 31.8869 260.427 31.8135 260.174 31.7469C259.921 31.6802 259.661 31.6135 259.394 31.5469C259.127 31.4735 258.867 31.3869 258.614 31.2869C258.361 31.1802 258.134 31.0535 257.934 30.9069C257.734 30.7602 257.574 30.5735 257.454 30.3469C257.334 30.1202 257.274 29.8469 257.274 29.5269C257.274 29.1869 257.344 28.8935 257.484 28.6469C257.631 28.4002 257.834 28.1969 258.094 28.0369C258.354 27.8769 258.654 27.7602 258.994 27.6869C259.334 27.6069 259.704 27.5669 260.104 27.5669C260.477 27.5669 260.831 27.6069 261.164 27.6869C261.497 27.7602 261.791 27.8802 262.044 28.0469C262.297 28.2135 262.494 28.4235 262.634 28.6769C262.781 28.9302 262.854 29.2302 262.854 29.5769V29.6969H261.404V29.6169C261.404 29.4369 261.351 29.2835 261.244 29.1569C261.137 29.0302 260.987 28.9302 260.794 28.8569C260.601 28.7835 260.374 28.7469 260.114 28.7469C259.834 28.7469 259.594 28.7735 259.394 28.8269C259.201 28.8802 259.051 28.9602 258.944 29.0669C258.844 29.1669 258.794 29.2869 258.794 29.4269C258.794 29.5869 258.851 29.7202 258.964 29.8269C259.084 29.9269 259.244 30.0169 259.444 30.0969C259.651 30.1702 259.881 30.2369 260.134 30.2969C260.387 30.3569 260.647 30.4235 260.914 30.4969C261.181 30.5702 261.441 30.6569 261.694 30.7569C261.947 30.8569 262.174 30.9835 262.374 31.1369C262.574 31.2835 262.734 31.4669 262.854 31.6869C262.974 31.9069 263.034 32.1702 263.034 32.4769C263.034 33.0035 262.907 33.4269 262.654 33.7469C262.401 34.0669 262.054 34.3002 261.614 34.4469C261.174 34.5935 260.671 34.6669 260.104 34.6669ZM268.147 34.5469V27.6869H271.717C272.21 27.6869 272.62 27.7802 272.947 27.9669C273.28 28.1469 273.53 28.4035 273.697 28.7369C273.87 29.0635 273.957 29.4535 273.957 29.9069C273.957 30.3602 273.867 30.7569 273.687 31.0969C273.513 31.4302 273.257 31.6902 272.917 31.8769C272.577 32.0635 272.16 32.1569 271.667 32.1569H269.637V34.5469H268.147ZM269.637 30.9369H271.467C271.78 30.9369 272.02 30.8469 272.187 30.6669C272.36 30.4869 272.447 30.2369 272.447 29.9169C272.447 29.6969 272.41 29.5135 272.337 29.3669C272.263 29.2202 272.153 29.1069 272.007 29.0269C271.867 28.9469 271.687 28.9069 271.467 28.9069H269.637V30.9369Z" fill="#96001F"/>
<path d="M248.998 59.5321C251.051 61.8497 252.818 64.2445 254.975 66.5312C257.184 68.8643 259.601 71.1664 261.161 73.6849C261.395 74.0557 260.589 74.2102 260.303 73.8857C258.328 71.6145 256.327 69.3587 254.248 67.1184C252.013 64.7081 250.219 62.2051 248.192 59.733C247.881 59.3776 248.712 59.2231 248.998 59.5321Z" fill="#26201B"/>
<path d="M241.239 23.2714C239.248 25.3131 237.534 27.4228 235.442 29.4373C233.3 31.4926 230.957 33.5207 229.445 35.7393C229.218 36.066 229.999 36.2021 230.276 35.9163C232.191 33.9154 234.132 31.9282 236.148 29.9545C238.315 27.8312 240.054 25.6262 242.02 23.4484C242.322 23.1353 241.516 22.9992 241.239 23.2714Z" fill="#26201B"/>
<path d="M279.267 59.5697C277.176 61.8813 275.376 64.2699 273.178 66.5506C270.928 68.8776 268.466 71.1737 266.878 73.6856C266.64 74.0554 267.46 74.2095 267.751 73.8859C269.763 71.6206 271.802 69.3707 273.92 67.1362C276.196 64.7322 278.023 62.2357 280.088 59.7701C280.405 59.4156 279.558 59.2615 279.267 59.5697Z" fill="#26201B"/>
<path d="M287.771 23.3045C289.514 25.3441 291.014 27.4517 292.845 29.4641C294.72 31.5173 296.772 33.5433 298.096 35.7597C298.294 36.086 297.61 36.222 297.368 35.9365C295.691 33.9376 293.992 31.9524 292.228 29.9808C290.33 27.8596 288.808 25.6569 287.087 23.4813C286.823 23.1685 287.529 23.0326 287.771 23.3045Z" fill="#26201B"/>
<path d="M264.436 48.331C263.919 47.6678 263.569 46.9716 263.425 46.2599V45.8363L263.332 45.4597L263.417 44.942C263.598 42.8427 265.437 40.9787 268.041 39.3878C268.715 38.9759 270.192 38.2087 270.985 37.8618C271.197 37.769 271.873 37.4546 272.091 37.4179C272.39 37.3675 272.552 37.4904 272.705 37.6L273.681 38.4464C274.741 39.4725 275.755 41.095 275.782 42.259V43.0592C275.782 43.1463 275.794 43.2964 275.729 43.3746C275.598 43.5313 274.454 43.8956 274.122 44.0227C272.911 44.4859 271.076 45.2738 270.078 45.8363C269.13 46.371 268.284 46.8893 267.482 47.4837C267.123 47.7497 266.568 48.282 266.188 48.4722C266.264 47.6301 267.072 46.6087 267.888 45.8834L268.771 45.1773C267.508 45.8217 266.42 46.3588 265.492 47.1543L264.436 48.331ZM250.968 39.6702C251.556 39.7718 252.508 40.2044 252.997 40.4256C254.195 40.9674 255.182 41.4037 256.252 42.0237C259.572 43.9488 262.013 45.9093 262.921 48.4722C263.26 49.4324 263.259 50.0975 263.236 51.061C263.223 51.6306 262.846 52.7221 262.524 53.2733C262.374 53.5313 262.216 53.8791 261.853 54.0735C261.708 53.5948 261.238 53.1246 260.772 52.7085C259.613 51.6748 257.522 50.5687 255.765 49.7902C256.546 50.3861 257.288 50.8252 257.954 51.4847C258.941 52.4604 259.603 53.543 259.82 54.6383V55.062L259.912 55.5327L259.832 55.9092C259.778 56.3103 259.741 56.6925 259.547 57.086C258.937 56.9669 258.062 56.6063 257.517 56.3973C256.189 55.8885 254.909 55.3317 253.735 54.7325C251.639 53.6626 249.668 52.3089 248.464 50.9198C245.241 47.1994 246.627 42.9961 250.968 39.6702ZM264.251 55.5797C263.986 55.3712 263.885 54.5814 263.882 54.3088C263.873 53.3119 264.065 52.3597 264.54 51.3905C266.224 47.9502 270.895 45.2621 276.704 43.416L279.933 42.4821C280.504 42.332 281.064 42.1611 281.686 42.0707C282.557 43.1891 283.503 45.062 283.531 46.2599L283.623 47.2484L283.531 48.0486L283.358 48.8958C282.874 50.6755 281.573 52.3286 279.524 53.7911C277.558 55.1956 274.943 56.3423 272.092 57.2592C270.59 57.7421 268.923 58.2039 267.295 58.5649C266.674 58.7028 265.921 58.9085 265.266 58.9688L265.35 58.451C265.634 56.3456 267.391 54.4218 270.251 52.8968C270.959 52.5188 271.759 52.1902 272.553 51.8612C270.398 52.3903 267.205 53.5722 265.675 54.4971C264.968 54.925 264.777 55.1095 264.251 55.5797ZM269.14 44.989H269.048L269.14 45.0361V44.989ZM269.048 45.0361H268.956L269.048 45.0832V45.0361ZM268.956 45.0832H268.863L268.956 45.1303V45.0832ZM268.863 45.1303H268.771L268.863 45.1773V45.1303ZM255.488 49.6019H255.396L255.488 49.6489V49.6019ZM255.58 49.6489H255.488L255.58 49.696V49.6489ZM255.672 49.696H255.58L255.672 49.7431V49.696ZM255.765 49.7431H255.672L255.765 49.7902V49.7431ZM272.83 51.7671H272.738L272.83 51.8142V51.7671ZM272.646 51.8142H272.553L272.646 51.8612V51.8142Z" fill="#004A0C"/>
<path d="M255.765 49.7902C257.522 50.5687 259.613 51.6748 260.772 52.7085C261.238 53.1246 261.708 53.5948 261.853 54.0735C262.216 53.8791 262.374 53.5313 262.524 53.2733C262.846 52.7221 263.223 51.6306 263.236 51.061C263.259 50.0975 263.26 49.4324 262.921 48.4722C262.013 45.9093 259.572 43.9488 256.252 42.0237C255.182 41.4037 254.195 40.9674 252.997 40.4256C252.508 40.2044 251.556 39.7718 250.968 39.6702C246.627 42.9961 245.241 47.1994 248.464 50.9198C249.668 52.3089 251.639 53.6626 253.735 54.7325C254.909 55.3317 256.189 55.8885 257.517 56.3973C258.062 56.6063 258.937 56.9669 259.547 57.086C259.741 56.6925 259.778 56.3103 259.832 55.9092L259.912 55.5327L259.82 55.062V54.6383C259.603 53.543 258.941 52.4604 257.954 51.4847C257.288 50.8252 256.546 50.3861 255.765 49.7902ZM255.765 49.7902L255.672 49.7431M255.765 49.7902V49.7431H255.672M255.488 49.6489L255.396 49.6019H255.488V49.6489ZM255.488 49.6489H255.58V49.696M255.488 49.6489L255.58 49.696M255.58 49.696H255.672V49.7431M255.58 49.696L255.672 49.7431M264.436 48.331C263.919 47.6678 263.569 46.9716 263.425 46.2599V45.8363L263.332 45.4597L263.417 44.942C263.598 42.8427 265.437 40.9787 268.041 39.3878C268.715 38.9759 270.192 38.2087 270.985 37.8618C271.197 37.769 271.873 37.4546 272.091 37.4179C272.39 37.3675 272.552 37.4904 272.705 37.6L273.681 38.4464C274.741 39.4725 275.755 41.095 275.782 42.259V43.0592C275.782 43.1463 275.794 43.2964 275.729 43.3746C275.598 43.5313 274.454 43.8956 274.122 44.0227C272.911 44.4859 271.076 45.2738 270.078 45.8363C269.13 46.371 268.284 46.8893 267.482 47.4837C267.123 47.7497 266.568 48.282 266.188 48.4722C266.264 47.6301 267.072 46.6087 267.888 45.8834L268.771 45.1773C267.508 45.8217 266.42 46.3588 265.492 47.1543L264.436 48.331ZM264.251 55.5797C263.986 55.3712 263.885 54.5814 263.882 54.3088C263.873 53.3119 264.065 52.3597 264.54 51.3905C266.224 47.9502 270.895 45.2621 276.704 43.416L279.933 42.4821C280.504 42.332 281.064 42.1611 281.686 42.0707C282.557 43.1891 283.503 45.062 283.531 46.2599L283.623 47.2484L283.531 48.0486L283.358 48.8958C282.874 50.6755 281.573 52.3286 279.524 53.7911C277.558 55.1956 274.943 56.3423 272.092 57.2592C270.59 57.7421 268.923 58.2039 267.295 58.5649C266.674 58.7028 265.921 58.9085 265.266 58.9688L265.35 58.451C265.634 56.3456 267.391 54.4218 270.251 52.8968C270.959 52.5188 271.759 52.1902 272.553 51.8612C270.398 52.3903 267.205 53.5722 265.675 54.4971C264.968 54.925 264.777 55.1095 264.251 55.5797ZM269.14 44.989H269.048L269.14 45.0361V44.989ZM269.048 45.0361H268.956L269.048 45.0832V45.0361ZM268.956 45.0832H268.863L268.956 45.1303V45.0832ZM268.863 45.1303H268.771L268.863 45.1773V45.1303ZM272.83 51.7671H272.738L272.83 51.8142V51.7671ZM272.646 51.8142H272.553L272.646 51.8612V51.8142Z" stroke="black" stroke-width="0.2"/>
</svg>
